<?xml version="1.0" encoding="utf-8" standalone="no"?>
<!DOCTYPE svg PUBLIC "-//W3C//DTD SVG 1.1//EN"
  "http://www.w3.org/Graphics/SVG/1.1/DTD/svg11.dtd">
<svg xmlns:xlink="http://www.w3.org/1999/xlink" width="776.580725pt" height="544.049pt" viewBox="0 0 776.580725 544.049" xmlns="http://www.w3.org/2000/svg" version="1.1">
 <metadata>
  <rdf:RDF xmlns:dc="http://purl.org/dc/elements/1.1/" xmlns:cc="http://creativecommons.org/ns#" xmlns:rdf="http://www.w3.org/1999/02/22-rdf-syntax-ns#">
   <cc:Work>
    <dc:type rdf:resource="http://purl.org/dc/dcmitype/StillImage"/>
    <dc:date>2024-12-09T21:38:07.675872</dc:date>
    <dc:format>image/svg+xml</dc:format>
    <dc:creator>
     <cc:Agent>
      <dc:title>Matplotlib v3.9.0, https://matplotlib.org/</dc:title>
     </cc:Agent>
    </dc:creator>
   </cc:Work>
  </rdf:RDF>
 </metadata>
 <defs>
  <style type="text/css">*{stroke-linejoin: round; stroke-linecap: butt}</style>
 </defs>
 <g id="figure_1">
  <g id="patch_1">
   <path d="M 0 544.049 
L 776.580725 544.049 
L 776.580725 0 
L 0 0 
z
" style="fill: #ffffff"/>
  </g>
  <g id="axes_1">
   <g id="patch_2">
    <path d="M 98.495 479.394 
L 768.095 479.394 
L 768.095 35.874 
L 98.495 35.874 
z
" style="fill: #ffffff"/>
   </g>
   <g id="matplotlib.axis_1">
    <g id="xtick_1">
     <g id="line2d_1">
      <path d="M 178.287629 479.394 
L 178.287629 35.874 
" clip-path="url(#p99b01e5eb4)" style="fill: none; stroke: #b0b0b0; stroke-width: 0.8; stroke-linecap: square"/>
     </g>
     <g id="line2d_2">
      <defs>
       <path id="mfb7277dbc8" d="M 0 0 
L 0 3.5 
" style="stroke: #000000; stroke-width: 0.8"/>
      </defs>
      <g>
       <use xlink:href="#mfb7277dbc8" x="178.287629" y="479.394" style="stroke: #000000; stroke-width: 0.8"/>
      </g>
     </g>
     <g id="text_1">
      <!-- 5 -->
      <g transform="translate(170.652629 504.63025) scale(0.24 -0.24)">
       <defs>
        <path id="DejaVuSans-35" d="M 691 4666 
L 3169 4666 
L 3169 4134 
L 1269 4134 
L 1269 2991 
Q 1406 3038 1543 3061 
Q 1681 3084 1819 3084 
Q 2600 3084 3056 2656 
Q 3513 2228 3513 1497 
Q 3513 744 3044 326 
Q 2575 -91 1722 -91 
Q 1428 -91 1123 -41 
Q 819 9 494 109 
L 494 744 
Q 775 591 1075 516 
Q 1375 441 1709 441 
Q 2250 441 2565 725 
Q 2881 1009 2881 1497 
Q 2881 1984 2565 2268 
Q 2250 2553 1709 2553 
Q 1456 2553 1204 2497 
Q 953 2441 691 2322 
L 691 4666 
z
" transform="scale(0.015625)"/>
       </defs>
       <use xlink:href="#DejaVuSans-35"/>
      </g>
     </g>
    </g>
    <g id="xtick_2">
     <g id="line2d_3">
      <path d="M 260.548071 479.394 
L 260.548071 35.874 
" clip-path="url(#p99b01e5eb4)" style="fill: none; stroke: #b0b0b0; stroke-width: 0.8; stroke-linecap: square"/>
     </g>
     <g id="line2d_4">
      <g>
       <use xlink:href="#mfb7277dbc8" x="260.548071" y="479.394" style="stroke: #000000; stroke-width: 0.8"/>
      </g>
     </g>
     <g id="text_2">
      <!-- 10 -->
      <g transform="translate(245.278071 504.63025) scale(0.24 -0.24)">
       <defs>
        <path id="DejaVuSans-31" d="M 794 531 
L 1825 531 
L 1825 4091 
L 703 3866 
L 703 4441 
L 1819 4666 
L 2450 4666 
L 2450 531 
L 3481 531 
L 3481 0 
L 794 0 
L 794 531 
z
" transform="scale(0.015625)"/>
        <path id="DejaVuSans-30" d="M 2034 4250 
Q 1547 4250 1301 3770 
Q 1056 3291 1056 2328 
Q 1056 1369 1301 889 
Q 1547 409 2034 409 
Q 2525 409 2770 889 
Q 3016 1369 3016 2328 
Q 3016 3291 2770 3770 
Q 2525 4250 2034 4250 
z
M 2034 4750 
Q 2819 4750 3233 4129 
Q 3647 3509 3647 2328 
Q 3647 1150 3233 529 
Q 2819 -91 2034 -91 
Q 1250 -91 836 529 
Q 422 1150 422 2328 
Q 422 3509 836 4129 
Q 1250 4750 2034 4750 
z
" transform="scale(0.015625)"/>
       </defs>
       <use xlink:href="#DejaVuSans-31"/>
       <use xlink:href="#DejaVuSans-30" x="63.623047"/>
      </g>
     </g>
    </g>
    <g id="xtick_3">
     <g id="line2d_5">
      <path d="M 342.808514 479.394 
L 342.808514 35.874 
" clip-path="url(#p99b01e5eb4)" style="fill: none; stroke: #b0b0b0; stroke-width: 0.8; stroke-linecap: square"/>
     </g>
     <g id="line2d_6">
      <g>
       <use xlink:href="#mfb7277dbc8" x="342.808514" y="479.394" style="stroke: #000000; stroke-width: 0.8"/>
      </g>
     </g>
     <g id="text_3">
      <!-- 15 -->
      <g transform="translate(327.538514 504.63025) scale(0.24 -0.24)">
       <use xlink:href="#DejaVuSans-31"/>
       <use xlink:href="#DejaVuSans-35" x="63.623047"/>
      </g>
     </g>
    </g>
    <g id="xtick_4">
     <g id="line2d_7">
      <path d="M 425.068956 479.394 
L 425.068956 35.874 
" clip-path="url(#p99b01e5eb4)" style="fill: none; stroke: #b0b0b0; stroke-width: 0.8; stroke-linecap: square"/>
     </g>
     <g id="line2d_8">
      <g>
       <use xlink:href="#mfb7277dbc8" x="425.068956" y="479.394" style="stroke: #000000; stroke-width: 0.8"/>
      </g>
     </g>
     <g id="text_4">
      <!-- 20 -->
      <g transform="translate(409.798956 504.63025) scale(0.24 -0.24)">
       <defs>
        <path id="DejaVuSans-32" d="M 1228 531 
L 3431 531 
L 3431 0 
L 469 0 
L 469 531 
Q 828 903 1448 1529 
Q 2069 2156 2228 2338 
Q 2531 2678 2651 2914 
Q 2772 3150 2772 3378 
Q 2772 3750 2511 3984 
Q 2250 4219 1831 4219 
Q 1534 4219 1204 4116 
Q 875 4013 500 3803 
L 500 4441 
Q 881 4594 1212 4672 
Q 1544 4750 1819 4750 
Q 2544 4750 2975 4387 
Q 3406 4025 3406 3419 
Q 3406 3131 3298 2873 
Q 3191 2616 2906 2266 
Q 2828 2175 2409 1742 
Q 1991 1309 1228 531 
z
" transform="scale(0.015625)"/>
       </defs>
       <use xlink:href="#DejaVuSans-32"/>
       <use xlink:href="#DejaVuSans-30" x="63.623047"/>
      </g>
     </g>
    </g>
    <g id="xtick_5">
     <g id="line2d_9">
      <path d="M 507.329398 479.394 
L 507.329398 35.874 
" clip-path="url(#p99b01e5eb4)" style="fill: none; stroke: #b0b0b0; stroke-width: 0.8; stroke-linecap: square"/>
     </g>
     <g id="line2d_10">
      <g>
       <use xlink:href="#mfb7277dbc8" x="507.329398" y="479.394" style="stroke: #000000; stroke-width: 0.8"/>
      </g>
     </g>
     <g id="text_5">
      <!-- 25 -->
      <g transform="translate(492.059398 504.63025) scale(0.24 -0.24)">
       <use xlink:href="#DejaVuSans-32"/>
       <use xlink:href="#DejaVuSans-35" x="63.623047"/>
      </g>
     </g>
    </g>
    <g id="xtick_6">
     <g id="line2d_11">
      <path d="M 589.58984 479.394 
L 589.58984 35.874 
" clip-path="url(#p99b01e5eb4)" style="fill: none; stroke: #b0b0b0; stroke-width: 0.8; stroke-linecap: square"/>
     </g>
     <g id="line2d_12">
      <g>
       <use xlink:href="#mfb7277dbc8" x="589.58984" y="479.394" style="stroke: #000000; stroke-width: 0.8"/>
      </g>
     </g>
     <g id="text_6">
      <!-- 30 -->
      <g transform="translate(574.31984 504.63025) scale(0.24 -0.24)">
       <defs>
        <path id="DejaVuSans-33" d="M 2597 2516 
Q 3050 2419 3304 2112 
Q 3559 1806 3559 1356 
Q 3559 666 3084 287 
Q 2609 -91 1734 -91 
Q 1441 -91 1130 -33 
Q 819 25 488 141 
L 488 750 
Q 750 597 1062 519 
Q 1375 441 1716 441 
Q 2309 441 2620 675 
Q 2931 909 2931 1356 
Q 2931 1769 2642 2001 
Q 2353 2234 1838 2234 
L 1294 2234 
L 1294 2753 
L 1863 2753 
Q 2328 2753 2575 2939 
Q 2822 3125 2822 3475 
Q 2822 3834 2567 4026 
Q 2313 4219 1838 4219 
Q 1578 4219 1281 4162 
Q 984 4106 628 3988 
L 628 4550 
Q 988 4650 1302 4700 
Q 1616 4750 1894 4750 
Q 2613 4750 3031 4423 
Q 3450 4097 3450 3541 
Q 3450 3153 3228 2886 
Q 3006 2619 2597 2516 
z
" transform="scale(0.015625)"/>
       </defs>
       <use xlink:href="#DejaVuSans-33"/>
       <use xlink:href="#DejaVuSans-30" x="63.623047"/>
      </g>
     </g>
    </g>
    <g id="xtick_7">
     <g id="line2d_13">
      <path d="M 671.850283 479.394 
L 671.850283 35.874 
" clip-path="url(#p99b01e5eb4)" style="fill: none; stroke: #b0b0b0; stroke-width: 0.8; stroke-linecap: square"/>
     </g>
     <g id="line2d_14">
      <g>
       <use xlink:href="#mfb7277dbc8" x="671.850283" y="479.394" style="stroke: #000000; stroke-width: 0.8"/>
      </g>
     </g>
     <g id="text_7">
      <!-- 35 -->
      <g transform="translate(656.580283 504.63025) scale(0.24 -0.24)">
       <use xlink:href="#DejaVuSans-33"/>
       <use xlink:href="#DejaVuSans-35" x="63.623047"/>
      </g>
     </g>
    </g>
    <g id="xtick_8">
     <g id="line2d_15">
      <path d="M 754.110725 479.394 
L 754.110725 35.874 
" clip-path="url(#p99b01e5eb4)" style="fill: none; stroke: #b0b0b0; stroke-width: 0.8; stroke-linecap: square"/>
     </g>
     <g id="line2d_16">
      <g>
       <use xlink:href="#mfb7277dbc8" x="754.110725" y="479.394" style="stroke: #000000; stroke-width: 0.8"/>
      </g>
     </g>
     <g id="text_8">
      <!-- 40 -->
      <g transform="translate(738.840725 504.63025) scale(0.24 -0.24)">
       <defs>
        <path id="DejaVuSans-34" d="M 2419 4116 
L 825 1625 
L 2419 1625 
L 2419 4116 
z
M 2253 4666 
L 3047 4666 
L 3047 1625 
L 3713 1625 
L 3713 1100 
L 3047 1100 
L 3047 0 
L 2419 0 
L 2419 1100 
L 313 1100 
L 313 1709 
L 2253 4666 
z
" transform="scale(0.015625)"/>
       </defs>
       <use xlink:href="#DejaVuSans-34"/>
       <use xlink:href="#DejaVuSans-30" x="63.623047"/>
      </g>
     </g>
    </g>
    <g id="text_9">
     <!-- Number of subsystems N -->
     <g transform="translate(281.995625 531.85775) scale(0.24 -0.24)">
      <defs>
       <path id="DejaVuSans-4e" d="M 628 4666 
L 1478 4666 
L 3547 763 
L 3547 4666 
L 4159 4666 
L 4159 0 
L 3309 0 
L 1241 3903 
L 1241 0 
L 628 0 
L 628 4666 
z
" transform="scale(0.015625)"/>
       <path id="DejaVuSans-75" d="M 544 1381 
L 544 3500 
L 1119 3500 
L 1119 1403 
Q 1119 906 1312 657 
Q 1506 409 1894 409 
Q 2359 409 2629 706 
Q 2900 1003 2900 1516 
L 2900 3500 
L 3475 3500 
L 3475 0 
L 2900 0 
L 2900 538 
Q 2691 219 2414 64 
Q 2138 -91 1772 -91 
Q 1169 -91 856 284 
Q 544 659 544 1381 
z
M 1991 3584 
L 1991 3584 
z
" transform="scale(0.015625)"/>
       <path id="DejaVuSans-6d" d="M 3328 2828 
Q 3544 3216 3844 3400 
Q 4144 3584 4550 3584 
Q 5097 3584 5394 3201 
Q 5691 2819 5691 2113 
L 5691 0 
L 5113 0 
L 5113 2094 
Q 5113 2597 4934 2840 
Q 4756 3084 4391 3084 
Q 3944 3084 3684 2787 
Q 3425 2491 3425 1978 
L 3425 0 
L 2847 0 
L 2847 2094 
Q 2847 2600 2669 2842 
Q 2491 3084 2119 3084 
Q 1678 3084 1418 2786 
Q 1159 2488 1159 1978 
L 1159 0 
L 581 0 
L 581 3500 
L 1159 3500 
L 1159 2956 
Q 1356 3278 1631 3431 
Q 1906 3584 2284 3584 
Q 2666 3584 2933 3390 
Q 3200 3197 3328 2828 
z
" transform="scale(0.015625)"/>
       <path id="DejaVuSans-62" d="M 3116 1747 
Q 3116 2381 2855 2742 
Q 2594 3103 2138 3103 
Q 1681 3103 1420 2742 
Q 1159 2381 1159 1747 
Q 1159 1113 1420 752 
Q 1681 391 2138 391 
Q 2594 391 2855 752 
Q 3116 1113 3116 1747 
z
M 1159 2969 
Q 1341 3281 1617 3432 
Q 1894 3584 2278 3584 
Q 2916 3584 3314 3078 
Q 3713 2572 3713 1747 
Q 3713 922 3314 415 
Q 2916 -91 2278 -91 
Q 1894 -91 1617 61 
Q 1341 213 1159 525 
L 1159 0 
L 581 0 
L 581 4863 
L 1159 4863 
L 1159 2969 
z
" transform="scale(0.015625)"/>
       <path id="DejaVuSans-65" d="M 3597 1894 
L 3597 1613 
L 953 1613 
Q 991 1019 1311 708 
Q 1631 397 2203 397 
Q 2534 397 2845 478 
Q 3156 559 3463 722 
L 3463 178 
Q 3153 47 2828 -22 
Q 2503 -91 2169 -91 
Q 1331 -91 842 396 
Q 353 884 353 1716 
Q 353 2575 817 3079 
Q 1281 3584 2069 3584 
Q 2775 3584 3186 3129 
Q 3597 2675 3597 1894 
z
M 3022 2063 
Q 3016 2534 2758 2815 
Q 2500 3097 2075 3097 
Q 1594 3097 1305 2825 
Q 1016 2553 972 2059 
L 3022 2063 
z
" transform="scale(0.015625)"/>
       <path id="DejaVuSans-72" d="M 2631 2963 
Q 2534 3019 2420 3045 
Q 2306 3072 2169 3072 
Q 1681 3072 1420 2755 
Q 1159 2438 1159 1844 
L 1159 0 
L 581 0 
L 581 3500 
L 1159 3500 
L 1159 2956 
Q 1341 3275 1631 3429 
Q 1922 3584 2338 3584 
Q 2397 3584 2469 3576 
Q 2541 3569 2628 3553 
L 2631 2963 
z
" transform="scale(0.015625)"/>
       <path id="DejaVuSans-20" transform="scale(0.015625)"/>
       <path id="DejaVuSans-6f" d="M 1959 3097 
Q 1497 3097 1228 2736 
Q 959 2375 959 1747 
Q 959 1119 1226 758 
Q 1494 397 1959 397 
Q 2419 397 2687 759 
Q 2956 1122 2956 1747 
Q 2956 2369 2687 2733 
Q 2419 3097 1959 3097 
z
M 1959 3584 
Q 2709 3584 3137 3096 
Q 3566 2609 3566 1747 
Q 3566 888 3137 398 
Q 2709 -91 1959 -91 
Q 1206 -91 779 398 
Q 353 888 353 1747 
Q 353 2609 779 3096 
Q 1206 3584 1959 3584 
z
" transform="scale(0.015625)"/>
       <path id="DejaVuSans-66" d="M 2375 4863 
L 2375 4384 
L 1825 4384 
Q 1516 4384 1395 4259 
Q 1275 4134 1275 3809 
L 1275 3500 
L 2222 3500 
L 2222 3053 
L 1275 3053 
L 1275 0 
L 697 0 
L 697 3053 
L 147 3053 
L 147 3500 
L 697 3500 
L 697 3744 
Q 697 4328 969 4595 
Q 1241 4863 1831 4863 
L 2375 4863 
z
" transform="scale(0.015625)"/>
       <path id="DejaVuSans-73" d="M 2834 3397 
L 2834 2853 
Q 2591 2978 2328 3040 
Q 2066 3103 1784 3103 
Q 1356 3103 1142 2972 
Q 928 2841 928 2578 
Q 928 2378 1081 2264 
Q 1234 2150 1697 2047 
L 1894 2003 
Q 2506 1872 2764 1633 
Q 3022 1394 3022 966 
Q 3022 478 2636 193 
Q 2250 -91 1575 -91 
Q 1294 -91 989 -36 
Q 684 19 347 128 
L 347 722 
Q 666 556 975 473 
Q 1284 391 1588 391 
Q 1994 391 2212 530 
Q 2431 669 2431 922 
Q 2431 1156 2273 1281 
Q 2116 1406 1581 1522 
L 1381 1569 
Q 847 1681 609 1914 
Q 372 2147 372 2553 
Q 372 3047 722 3315 
Q 1072 3584 1716 3584 
Q 2034 3584 2315 3537 
Q 2597 3491 2834 3397 
z
" transform="scale(0.015625)"/>
       <path id="DejaVuSans-79" d="M 2059 -325 
Q 1816 -950 1584 -1140 
Q 1353 -1331 966 -1331 
L 506 -1331 
L 506 -850 
L 844 -850 
Q 1081 -850 1212 -737 
Q 1344 -625 1503 -206 
L 1606 56 
L 191 3500 
L 800 3500 
L 1894 763 
L 2988 3500 
L 3597 3500 
L 2059 -325 
z
" transform="scale(0.015625)"/>
       <path id="DejaVuSans-74" d="M 1172 4494 
L 1172 3500 
L 2356 3500 
L 2356 3053 
L 1172 3053 
L 1172 1153 
Q 1172 725 1289 603 
Q 1406 481 1766 481 
L 2356 481 
L 2356 0 
L 1766 0 
Q 1100 0 847 248 
Q 594 497 594 1153 
L 594 3053 
L 172 3053 
L 172 3500 
L 594 3500 
L 594 4494 
L 1172 4494 
z
" transform="scale(0.015625)"/>
      </defs>
      <use xlink:href="#DejaVuSans-4e"/>
      <use xlink:href="#DejaVuSans-75" x="74.804688"/>
      <use xlink:href="#DejaVuSans-6d" x="138.183594"/>
      <use xlink:href="#DejaVuSans-62" x="235.595703"/>
      <use xlink:href="#DejaVuSans-65" x="299.072266"/>
      <use xlink:href="#DejaVuSans-72" x="360.595703"/>
      <use xlink:href="#DejaVuSans-20" x="401.708984"/>
      <use xlink:href="#DejaVuSans-6f" x="433.496094"/>
      <use xlink:href="#DejaVuSans-66" x="494.677734"/>
      <use xlink:href="#DejaVuSans-20" x="529.882812"/>
      <use xlink:href="#DejaVuSans-73" x="561.669922"/>
      <use xlink:href="#DejaVuSans-75" x="613.769531"/>
      <use xlink:href="#DejaVuSans-62" x="677.148438"/>
      <use xlink:href="#DejaVuSans-73" x="740.625"/>
      <use xlink:href="#DejaVuSans-79" x="792.724609"/>
      <use xlink:href="#DejaVuSans-73" x="851.904297"/>
      <use xlink:href="#DejaVuSans-74" x="904.003906"/>
      <use xlink:href="#DejaVuSans-65" x="943.212891"/>
      <use xlink:href="#DejaVuSans-6d" x="1004.736328"/>
      <use xlink:href="#DejaVuSans-73" x="1102.148438"/>
      <use xlink:href="#DejaVuSans-20" x="1154.248047"/>
      <use xlink:href="#DejaVuSans-4e" x="1186.035156"/>
     </g>
    </g>
   </g>
   <g id="matplotlib.axis_2">
    <g id="ytick_1">
     <g id="line2d_17">
      <path d="M 98.495 440.639068 
L 768.095 440.639068 
" clip-path="url(#p99b01e5eb4)" style="fill: none; stroke: #b0b0b0; stroke-width: 0.8; stroke-linecap: square"/>
     </g>
     <g id="line2d_18">
      <defs>
       <path id="m2b70354d0a" d="M 0 0 
L -3.5 0 
" style="stroke: #000000; stroke-width: 0.8"/>
      </defs>
      <g>
       <use xlink:href="#m2b70354d0a" x="98.495" y="440.639068" style="stroke: #000000; stroke-width: 0.8"/>
      </g>
     </g>
     <g id="text_10">
      <!-- $\mathdefault{10^{-5}}$ -->
      <g transform="translate(35.095 449.757193) scale(0.24 -0.24)">
       <defs>
        <path id="DejaVuSans-2212" d="M 678 2272 
L 4684 2272 
L 4684 1741 
L 678 1741 
L 678 2272 
z
" transform="scale(0.015625)"/>
       </defs>
       <use xlink:href="#DejaVuSans-31" transform="translate(0 0.684375)"/>
       <use xlink:href="#DejaVuSans-30" transform="translate(63.623047 0.684375)"/>
       <use xlink:href="#DejaVuSans-2212" transform="translate(128.203125 38.965625) scale(0.7)"/>
       <use xlink:href="#DejaVuSans-35" transform="translate(186.855469 38.965625) scale(0.7)"/>
      </g>
     </g>
    </g>
    <g id="ytick_2">
     <g id="line2d_19">
      <path d="M 98.495 365.254114 
L 768.095 365.254114 
" clip-path="url(#p99b01e5eb4)" style="fill: none; stroke: #b0b0b0; stroke-width: 0.8; stroke-linecap: square"/>
     </g>
     <g id="line2d_20">
      <g>
       <use xlink:href="#m2b70354d0a" x="98.495" y="365.254114" style="stroke: #000000; stroke-width: 0.8"/>
      </g>
     </g>
     <g id="text_11">
      <!-- $\mathdefault{10^{-4}}$ -->
      <g transform="translate(35.095 374.372239) scale(0.24 -0.24)">
       <use xlink:href="#DejaVuSans-31" transform="translate(0 0.684375)"/>
       <use xlink:href="#DejaVuSans-30" transform="translate(63.623047 0.684375)"/>
       <use xlink:href="#DejaVuSans-2212" transform="translate(128.203125 38.965625) scale(0.7)"/>
       <use xlink:href="#DejaVuSans-34" transform="translate(186.855469 38.965625) scale(0.7)"/>
      </g>
     </g>
    </g>
    <g id="ytick_3">
     <g id="line2d_21">
      <path d="M 98.495 289.869161 
L 768.095 289.869161 
" clip-path="url(#p99b01e5eb4)" style="fill: none; stroke: #b0b0b0; stroke-width: 0.8; stroke-linecap: square"/>
     </g>
     <g id="line2d_22">
      <g>
       <use xlink:href="#m2b70354d0a" x="98.495" y="289.869161" style="stroke: #000000; stroke-width: 0.8"/>
      </g>
     </g>
     <g id="text_12">
      <!-- $\mathdefault{10^{-3}}$ -->
      <g transform="translate(35.095 298.987286) scale(0.24 -0.24)">
       <use xlink:href="#DejaVuSans-31" transform="translate(0 0.765625)"/>
       <use xlink:href="#DejaVuSans-30" transform="translate(63.623047 0.765625)"/>
       <use xlink:href="#DejaVuSans-2212" transform="translate(128.203125 39.046875) scale(0.7)"/>
       <use xlink:href="#DejaVuSans-33" transform="translate(186.855469 39.046875) scale(0.7)"/>
      </g>
     </g>
    </g>
    <g id="ytick_4">
     <g id="line2d_23">
      <path d="M 98.495 214.484208 
L 768.095 214.484208 
" clip-path="url(#p99b01e5eb4)" style="fill: none; stroke: #b0b0b0; stroke-width: 0.8; stroke-linecap: square"/>
     </g>
     <g id="line2d_24">
      <g>
       <use xlink:href="#m2b70354d0a" x="98.495" y="214.484208" style="stroke: #000000; stroke-width: 0.8"/>
      </g>
     </g>
     <g id="text_13">
      <!-- $\mathdefault{10^{-2}}$ -->
      <g transform="translate(35.095 223.602333) scale(0.24 -0.24)">
       <use xlink:href="#DejaVuSans-31" transform="translate(0 0.765625)"/>
       <use xlink:href="#DejaVuSans-30" transform="translate(63.623047 0.765625)"/>
       <use xlink:href="#DejaVuSans-2212" transform="translate(128.203125 39.046875) scale(0.7)"/>
       <use xlink:href="#DejaVuSans-32" transform="translate(186.855469 39.046875) scale(0.7)"/>
      </g>
     </g>
    </g>
    <g id="ytick_5">
     <g id="line2d_25">
      <path d="M 98.495 139.099255 
L 768.095 139.099255 
" clip-path="url(#p99b01e5eb4)" style="fill: none; stroke: #b0b0b0; stroke-width: 0.8; stroke-linecap: square"/>
     </g>
     <g id="line2d_26">
      <g>
       <use xlink:href="#m2b70354d0a" x="98.495" y="139.099255" style="stroke: #000000; stroke-width: 0.8"/>
      </g>
     </g>
     <g id="text_14">
      <!-- $\mathdefault{10^{-1}}$ -->
      <g transform="translate(35.095 148.21738) scale(0.24 -0.24)">
       <use xlink:href="#DejaVuSans-31" transform="translate(0 0.684375)"/>
       <use xlink:href="#DejaVuSans-30" transform="translate(63.623047 0.684375)"/>
       <use xlink:href="#DejaVuSans-2212" transform="translate(128.203125 38.965625) scale(0.7)"/>
       <use xlink:href="#DejaVuSans-31" transform="translate(186.855469 38.965625) scale(0.7)"/>
      </g>
     </g>
    </g>
    <g id="ytick_6">
     <g id="line2d_27">
      <path d="M 98.495 63.714302 
L 768.095 63.714302 
" clip-path="url(#p99b01e5eb4)" style="fill: none; stroke: #b0b0b0; stroke-width: 0.8; stroke-linecap: square"/>
     </g>
     <g id="line2d_28">
      <g>
       <use xlink:href="#m2b70354d0a" x="98.495" y="63.714302" style="stroke: #000000; stroke-width: 0.8"/>
      </g>
     </g>
     <g id="text_15">
      <!-- $\mathdefault{10^{0}}$ -->
      <g transform="translate(49.255 72.832427) scale(0.24 -0.24)">
       <use xlink:href="#DejaVuSans-31" transform="translate(0 0.765625)"/>
       <use xlink:href="#DejaVuSans-30" transform="translate(63.623047 0.765625)"/>
       <use xlink:href="#DejaVuSans-30" transform="translate(128.203125 39.046875) scale(0.7)"/>
      </g>
     </g>
    </g>
    <g id="ytick_7">
     <g id="line2d_29">
      <defs>
       <path id="m633ea1f54b" d="M 0 0 
L -2 0 
" style="stroke: #000000; stroke-width: 0.6"/>
      </defs>
      <g>
       <use xlink:href="#m633ea1f54b" x="98.495" y="470.637757" style="stroke: #000000; stroke-width: 0.6"/>
      </g>
     </g>
    </g>
    <g id="ytick_8">
     <g id="line2d_30">
      <g>
       <use xlink:href="#m633ea1f54b" x="98.495" y="463.3322" style="stroke: #000000; stroke-width: 0.6"/>
      </g>
     </g>
    </g>
    <g id="ytick_9">
     <g id="line2d_31">
      <g>
       <use xlink:href="#m633ea1f54b" x="98.495" y="457.363125" style="stroke: #000000; stroke-width: 0.6"/>
      </g>
     </g>
    </g>
    <g id="ytick_10">
     <g id="line2d_32">
      <g>
       <use xlink:href="#m633ea1f54b" x="98.495" y="452.316345" style="stroke: #000000; stroke-width: 0.6"/>
      </g>
     </g>
    </g>
    <g id="ytick_11">
     <g id="line2d_33">
      <g>
       <use xlink:href="#m633ea1f54b" x="98.495" y="447.944624" style="stroke: #000000; stroke-width: 0.6"/>
      </g>
     </g>
    </g>
    <g id="ytick_12">
     <g id="line2d_34">
      <g>
       <use xlink:href="#m633ea1f54b" x="98.495" y="444.088494" style="stroke: #000000; stroke-width: 0.6"/>
      </g>
     </g>
    </g>
    <g id="ytick_13">
     <g id="line2d_35">
      <g>
       <use xlink:href="#m633ea1f54b" x="98.495" y="417.945935" style="stroke: #000000; stroke-width: 0.6"/>
      </g>
     </g>
    </g>
    <g id="ytick_14">
     <g id="line2d_36">
      <g>
       <use xlink:href="#m633ea1f54b" x="98.495" y="404.671304" style="stroke: #000000; stroke-width: 0.6"/>
      </g>
     </g>
    </g>
    <g id="ytick_15">
     <g id="line2d_37">
      <g>
       <use xlink:href="#m633ea1f54b" x="98.495" y="395.252803" style="stroke: #000000; stroke-width: 0.6"/>
      </g>
     </g>
    </g>
    <g id="ytick_16">
     <g id="line2d_38">
      <g>
       <use xlink:href="#m633ea1f54b" x="98.495" y="387.947247" style="stroke: #000000; stroke-width: 0.6"/>
      </g>
     </g>
    </g>
    <g id="ytick_17">
     <g id="line2d_39">
      <g>
       <use xlink:href="#m633ea1f54b" x="98.495" y="381.978172" style="stroke: #000000; stroke-width: 0.6"/>
      </g>
     </g>
    </g>
    <g id="ytick_18">
     <g id="line2d_40">
      <g>
       <use xlink:href="#m633ea1f54b" x="98.495" y="376.931391" style="stroke: #000000; stroke-width: 0.6"/>
      </g>
     </g>
    </g>
    <g id="ytick_19">
     <g id="line2d_41">
      <g>
       <use xlink:href="#m633ea1f54b" x="98.495" y="372.559671" style="stroke: #000000; stroke-width: 0.6"/>
      </g>
     </g>
    </g>
    <g id="ytick_20">
     <g id="line2d_42">
      <g>
       <use xlink:href="#m633ea1f54b" x="98.495" y="368.703541" style="stroke: #000000; stroke-width: 0.6"/>
      </g>
     </g>
    </g>
    <g id="ytick_21">
     <g id="line2d_43">
      <g>
       <use xlink:href="#m633ea1f54b" x="98.495" y="342.560982" style="stroke: #000000; stroke-width: 0.6"/>
      </g>
     </g>
    </g>
    <g id="ytick_22">
     <g id="line2d_44">
      <g>
       <use xlink:href="#m633ea1f54b" x="98.495" y="329.286351" style="stroke: #000000; stroke-width: 0.6"/>
      </g>
     </g>
    </g>
    <g id="ytick_23">
     <g id="line2d_45">
      <g>
       <use xlink:href="#m633ea1f54b" x="98.495" y="319.86785" style="stroke: #000000; stroke-width: 0.6"/>
      </g>
     </g>
    </g>
    <g id="ytick_24">
     <g id="line2d_46">
      <g>
       <use xlink:href="#m633ea1f54b" x="98.495" y="312.562293" style="stroke: #000000; stroke-width: 0.6"/>
      </g>
     </g>
    </g>
    <g id="ytick_25">
     <g id="line2d_47">
      <g>
       <use xlink:href="#m633ea1f54b" x="98.495" y="306.593219" style="stroke: #000000; stroke-width: 0.6"/>
      </g>
     </g>
    </g>
    <g id="ytick_26">
     <g id="line2d_48">
      <g>
       <use xlink:href="#m633ea1f54b" x="98.495" y="301.546438" style="stroke: #000000; stroke-width: 0.6"/>
      </g>
     </g>
    </g>
    <g id="ytick_27">
     <g id="line2d_49">
      <g>
       <use xlink:href="#m633ea1f54b" x="98.495" y="297.174718" style="stroke: #000000; stroke-width: 0.6"/>
      </g>
     </g>
    </g>
    <g id="ytick_28">
     <g id="line2d_50">
      <g>
       <use xlink:href="#m633ea1f54b" x="98.495" y="293.318588" style="stroke: #000000; stroke-width: 0.6"/>
      </g>
     </g>
    </g>
    <g id="ytick_29">
     <g id="line2d_51">
      <g>
       <use xlink:href="#m633ea1f54b" x="98.495" y="267.176029" style="stroke: #000000; stroke-width: 0.6"/>
      </g>
     </g>
    </g>
    <g id="ytick_30">
     <g id="line2d_52">
      <g>
       <use xlink:href="#m633ea1f54b" x="98.495" y="253.901398" style="stroke: #000000; stroke-width: 0.6"/>
      </g>
     </g>
    </g>
    <g id="ytick_31">
     <g id="line2d_53">
      <g>
       <use xlink:href="#m633ea1f54b" x="98.495" y="244.482897" style="stroke: #000000; stroke-width: 0.6"/>
      </g>
     </g>
    </g>
    <g id="ytick_32">
     <g id="line2d_54">
      <g>
       <use xlink:href="#m633ea1f54b" x="98.495" y="237.17734" style="stroke: #000000; stroke-width: 0.6"/>
      </g>
     </g>
    </g>
    <g id="ytick_33">
     <g id="line2d_55">
      <g>
       <use xlink:href="#m633ea1f54b" x="98.495" y="231.208266" style="stroke: #000000; stroke-width: 0.6"/>
      </g>
     </g>
    </g>
    <g id="ytick_34">
     <g id="line2d_56">
      <g>
       <use xlink:href="#m633ea1f54b" x="98.495" y="226.161485" style="stroke: #000000; stroke-width: 0.6"/>
      </g>
     </g>
    </g>
    <g id="ytick_35">
     <g id="line2d_57">
      <g>
       <use xlink:href="#m633ea1f54b" x="98.495" y="221.789765" style="stroke: #000000; stroke-width: 0.6"/>
      </g>
     </g>
    </g>
    <g id="ytick_36">
     <g id="line2d_58">
      <g>
       <use xlink:href="#m633ea1f54b" x="98.495" y="217.933634" style="stroke: #000000; stroke-width: 0.6"/>
      </g>
     </g>
    </g>
    <g id="ytick_37">
     <g id="line2d_59">
      <g>
       <use xlink:href="#m633ea1f54b" x="98.495" y="191.791076" style="stroke: #000000; stroke-width: 0.6"/>
      </g>
     </g>
    </g>
    <g id="ytick_38">
     <g id="line2d_60">
      <g>
       <use xlink:href="#m633ea1f54b" x="98.495" y="178.516445" style="stroke: #000000; stroke-width: 0.6"/>
      </g>
     </g>
    </g>
    <g id="ytick_39">
     <g id="line2d_61">
      <g>
       <use xlink:href="#m633ea1f54b" x="98.495" y="169.097944" style="stroke: #000000; stroke-width: 0.6"/>
      </g>
     </g>
    </g>
    <g id="ytick_40">
     <g id="line2d_62">
      <g>
       <use xlink:href="#m633ea1f54b" x="98.495" y="161.792387" style="stroke: #000000; stroke-width: 0.6"/>
      </g>
     </g>
    </g>
    <g id="ytick_41">
     <g id="line2d_63">
      <g>
       <use xlink:href="#m633ea1f54b" x="98.495" y="155.823313" style="stroke: #000000; stroke-width: 0.6"/>
      </g>
     </g>
    </g>
    <g id="ytick_42">
     <g id="line2d_64">
      <g>
       <use xlink:href="#m633ea1f54b" x="98.495" y="150.776532" style="stroke: #000000; stroke-width: 0.6"/>
      </g>
     </g>
    </g>
    <g id="ytick_43">
     <g id="line2d_65">
      <g>
       <use xlink:href="#m633ea1f54b" x="98.495" y="146.404812" style="stroke: #000000; stroke-width: 0.6"/>
      </g>
     </g>
    </g>
    <g id="ytick_44">
     <g id="line2d_66">
      <g>
       <use xlink:href="#m633ea1f54b" x="98.495" y="142.548681" style="stroke: #000000; stroke-width: 0.6"/>
      </g>
     </g>
    </g>
    <g id="ytick_45">
     <g id="line2d_67">
      <g>
       <use xlink:href="#m633ea1f54b" x="98.495" y="116.406123" style="stroke: #000000; stroke-width: 0.6"/>
      </g>
     </g>
    </g>
    <g id="ytick_46">
     <g id="line2d_68">
      <g>
       <use xlink:href="#m633ea1f54b" x="98.495" y="103.131492" style="stroke: #000000; stroke-width: 0.6"/>
      </g>
     </g>
    </g>
    <g id="ytick_47">
     <g id="line2d_69">
      <g>
       <use xlink:href="#m633ea1f54b" x="98.495" y="93.712991" style="stroke: #000000; stroke-width: 0.6"/>
      </g>
     </g>
    </g>
    <g id="ytick_48">
     <g id="line2d_70">
      <g>
       <use xlink:href="#m633ea1f54b" x="98.495" y="86.407434" style="stroke: #000000; stroke-width: 0.6"/>
      </g>
     </g>
    </g>
    <g id="ytick_49">
     <g id="line2d_71">
      <g>
       <use xlink:href="#m633ea1f54b" x="98.495" y="80.438359" style="stroke: #000000; stroke-width: 0.6"/>
      </g>
     </g>
    </g>
    <g id="ytick_50">
     <g id="line2d_72">
      <g>
       <use xlink:href="#m633ea1f54b" x="98.495" y="75.391579" style="stroke: #000000; stroke-width: 0.6"/>
      </g>
     </g>
    </g>
    <g id="ytick_51">
     <g id="line2d_73">
      <g>
       <use xlink:href="#m633ea1f54b" x="98.495" y="71.019859" style="stroke: #000000; stroke-width: 0.6"/>
      </g>
     </g>
    </g>
    <g id="ytick_52">
     <g id="line2d_74">
      <g>
       <use xlink:href="#m633ea1f54b" x="98.495" y="67.163728" style="stroke: #000000; stroke-width: 0.6"/>
      </g>
     </g>
    </g>
    <g id="ytick_53">
     <g id="line2d_75">
      <g>
       <use xlink:href="#m633ea1f54b" x="98.495" y="41.02117" style="stroke: #000000; stroke-width: 0.6"/>
      </g>
     </g>
    </g>
    <g id="text_16">
     <!-- CPU_time (s) -->
     <g transform="translate(25.43625 334.570875) rotate(-90) scale(0.24 -0.24)">
      <defs>
       <path id="DejaVuSans-43" d="M 4122 4306 
L 4122 3641 
Q 3803 3938 3442 4084 
Q 3081 4231 2675 4231 
Q 1875 4231 1450 3742 
Q 1025 3253 1025 2328 
Q 1025 1406 1450 917 
Q 1875 428 2675 428 
Q 3081 428 3442 575 
Q 3803 722 4122 1019 
L 4122 359 
Q 3791 134 3420 21 
Q 3050 -91 2638 -91 
Q 1578 -91 968 557 
Q 359 1206 359 2328 
Q 359 3453 968 4101 
Q 1578 4750 2638 4750 
Q 3056 4750 3426 4639 
Q 3797 4528 4122 4306 
z
" transform="scale(0.015625)"/>
       <path id="DejaVuSans-50" d="M 1259 4147 
L 1259 2394 
L 2053 2394 
Q 2494 2394 2734 2622 
Q 2975 2850 2975 3272 
Q 2975 3691 2734 3919 
Q 2494 4147 2053 4147 
L 1259 4147 
z
M 628 4666 
L 2053 4666 
Q 2838 4666 3239 4311 
Q 3641 3956 3641 3272 
Q 3641 2581 3239 2228 
Q 2838 1875 2053 1875 
L 1259 1875 
L 1259 0 
L 628 0 
L 628 4666 
z
" transform="scale(0.015625)"/>
       <path id="DejaVuSans-55" d="M 556 4666 
L 1191 4666 
L 1191 1831 
Q 1191 1081 1462 751 
Q 1734 422 2344 422 
Q 2950 422 3222 751 
Q 3494 1081 3494 1831 
L 3494 4666 
L 4128 4666 
L 4128 1753 
Q 4128 841 3676 375 
Q 3225 -91 2344 -91 
Q 1459 -91 1007 375 
Q 556 841 556 1753 
L 556 4666 
z
" transform="scale(0.015625)"/>
       <path id="DejaVuSans-5f" d="M 3263 -1063 
L 3263 -1509 
L -63 -1509 
L -63 -1063 
L 3263 -1063 
z
" transform="scale(0.015625)"/>
       <path id="DejaVuSans-69" d="M 603 3500 
L 1178 3500 
L 1178 0 
L 603 0 
L 603 3500 
z
M 603 4863 
L 1178 4863 
L 1178 4134 
L 603 4134 
L 603 4863 
z
" transform="scale(0.015625)"/>
       <path id="DejaVuSans-28" d="M 1984 4856 
Q 1566 4138 1362 3434 
Q 1159 2731 1159 2009 
Q 1159 1288 1364 580 
Q 1569 -128 1984 -844 
L 1484 -844 
Q 1016 -109 783 600 
Q 550 1309 550 2009 
Q 550 2706 781 3412 
Q 1013 4119 1484 4856 
L 1984 4856 
z
" transform="scale(0.015625)"/>
       <path id="DejaVuSans-29" d="M 513 4856 
L 1013 4856 
Q 1481 4119 1714 3412 
Q 1947 2706 1947 2009 
Q 1947 1309 1714 600 
Q 1481 -109 1013 -844 
L 513 -844 
Q 928 -128 1133 580 
Q 1338 1288 1338 2009 
Q 1338 2731 1133 3434 
Q 928 4138 513 4856 
z
" transform="scale(0.015625)"/>
      </defs>
      <use xlink:href="#DejaVuSans-43"/>
      <use xlink:href="#DejaVuSans-50" x="69.824219"/>
      <use xlink:href="#DejaVuSans-55" x="130.126953"/>
      <use xlink:href="#DejaVuSans-5f" x="203.320312"/>
      <use xlink:href="#DejaVuSans-74" x="253.320312"/>
      <use xlink:href="#DejaVuSans-69" x="292.529297"/>
      <use xlink:href="#DejaVuSans-6d" x="320.3125"/>
      <use xlink:href="#DejaVuSans-65" x="417.724609"/>
      <use xlink:href="#DejaVuSans-20" x="479.248047"/>
      <use xlink:href="#DejaVuSans-28" x="511.035156"/>
      <use xlink:href="#DejaVuSans-73" x="550.048828"/>
      <use xlink:href="#DejaVuSans-29" x="602.148438"/>
     </g>
    </g>
   </g>
   <g id="LineCollection_1">
    <path d="M 128.931364 545.049 
L 128.931364 366.092058 
" clip-path="url(#p99b01e5eb4)" style="fill: none; stroke: #8b0000; stroke-width: 1.5"/>
    <path d="M 145.383452 430.873678 
L 145.383452 374.400888 
" clip-path="url(#p99b01e5eb4)" style="fill: none; stroke: #8b0000; stroke-width: 1.5"/>
    <path d="M 161.835541 458.7468 
L 161.835541 381.106692 
" clip-path="url(#p99b01e5eb4)" style="fill: none; stroke: #8b0000; stroke-width: 1.5"/>
    <path d="M 178.287629 437.202052 
L 178.287629 381.165183 
" clip-path="url(#p99b01e5eb4)" style="fill: none; stroke: #8b0000; stroke-width: 1.5"/>
    <path d="M 194.739717 545.049 
L 194.739717 346.193094 
" clip-path="url(#p99b01e5eb4)" style="fill: none; stroke: #8b0000; stroke-width: 1.5"/>
    <path d="M 211.191806 433.982373 
L 211.191806 369.356908 
" clip-path="url(#p99b01e5eb4)" style="fill: none; stroke: #8b0000; stroke-width: 1.5"/>
    <path d="M 227.643894 440.496166 
L 227.643894 374.95476 
" clip-path="url(#p99b01e5eb4)" style="fill: none; stroke: #8b0000; stroke-width: 1.5"/>
    <path d="M 244.095983 468.943687 
L 244.095983 365.541844 
" clip-path="url(#p99b01e5eb4)" style="fill: none; stroke: #8b0000; stroke-width: 1.5"/>
    <path d="M 260.548071 398.415159 
L 260.548071 372.995825 
" clip-path="url(#p99b01e5eb4)" style="fill: none; stroke: #8b0000; stroke-width: 1.5"/>
    <path d="M 277.00016 382.002221 
L 277.00016 340.762157 
" clip-path="url(#p99b01e5eb4)" style="fill: none; stroke: #8b0000; stroke-width: 1.5"/>
    <path d="M 293.452248 399.208101 
L 293.452248 325.297675 
" clip-path="url(#p99b01e5eb4)" style="fill: none; stroke: #8b0000; stroke-width: 1.5"/>
    <path d="M 309.904337 371.068042 
L 309.904337 314.045835 
" clip-path="url(#p99b01e5eb4)" style="fill: none; stroke: #8b0000; stroke-width: 1.5"/>
    <path d="M 326.356425 345.473571 
L 326.356425 299.234613 
" clip-path="url(#p99b01e5eb4)" style="fill: none; stroke: #8b0000; stroke-width: 1.5"/>
    <path d="M 342.808514 306.81913 
L 342.808514 279.346948 
" clip-path="url(#p99b01e5eb4)" style="fill: none; stroke: #8b0000; stroke-width: 1.5"/>
    <path d="M 359.260602 280.358183 
L 359.260602 261.344715 
" clip-path="url(#p99b01e5eb4)" style="fill: none; stroke: #8b0000; stroke-width: 1.5"/>
    <path d="M 375.71269 252.626314 
L 375.71269 240.308429 
" clip-path="url(#p99b01e5eb4)" style="fill: none; stroke: #8b0000; stroke-width: 1.5"/>
    <path d="M 392.164779 233.565893 
L 392.164779 220.732903 
" clip-path="url(#p99b01e5eb4)" style="fill: none; stroke: #8b0000; stroke-width: 1.5"/>
    <path d="M 408.616867 210.963588 
L 408.616867 204.954014 
" clip-path="url(#p99b01e5eb4)" style="fill: none; stroke: #8b0000; stroke-width: 1.5"/>
    <path d="M 425.068956 185.511738 
L 425.068956 177.654637 
" clip-path="url(#p99b01e5eb4)" style="fill: none; stroke: #8b0000; stroke-width: 1.5"/>
    <path d="M 441.521044 155.586066 
L 441.521044 151.719337 
" clip-path="url(#p99b01e5eb4)" style="fill: none; stroke: #8b0000; stroke-width: 1.5"/>
    <path d="M 457.973133 134.175971 
L 457.973133 126.509453 
" clip-path="url(#p99b01e5eb4)" style="fill: none; stroke: #8b0000; stroke-width: 1.5"/>
    <path d="M 474.425221 117.601444 
L 474.425221 107.819528 
" clip-path="url(#p99b01e5eb4)" style="fill: none; stroke: #8b0000; stroke-width: 1.5"/>
    <path d="M 490.87731 92.522699 
L 490.87731 84.537605 
" clip-path="url(#p99b01e5eb4)" style="fill: none; stroke: #8b0000; stroke-width: 1.5"/>
    <path d="M 507.329398 69.151285 
L 507.329398 56.034 
" clip-path="url(#p99b01e5eb4)" style="fill: none; stroke: #8b0000; stroke-width: 1.5"/>
   </g>
   <g id="LineCollection_2">
    <path d="M 128.931364 411.960034 
L 128.931364 367.195249 
" clip-path="url(#p99b01e5eb4)" style="fill: none; stroke: #00008b; stroke-width: 1.5"/>
    <path d="M 145.383452 371.917639 
L 145.383452 363.278123 
" clip-path="url(#p99b01e5eb4)" style="fill: none; stroke: #00008b; stroke-width: 1.5"/>
    <path d="M 161.835541 384.950254 
L 161.835541 361.375658 
" clip-path="url(#p99b01e5eb4)" style="fill: none; stroke: #00008b; stroke-width: 1.5"/>
    <path d="M 178.287629 373.227489 
L 178.287629 347.390895 
" clip-path="url(#p99b01e5eb4)" style="fill: none; stroke: #00008b; stroke-width: 1.5"/>
    <path d="M 194.739717 355.574572 
L 194.739717 329.53282 
" clip-path="url(#p99b01e5eb4)" style="fill: none; stroke: #00008b; stroke-width: 1.5"/>
    <path d="M 211.191806 372.573264 
L 211.191806 337.392716 
" clip-path="url(#p99b01e5eb4)" style="fill: none; stroke: #00008b; stroke-width: 1.5"/>
    <path d="M 227.643894 376.050078 
L 227.643894 339.769231 
" clip-path="url(#p99b01e5eb4)" style="fill: none; stroke: #00008b; stroke-width: 1.5"/>
    <path d="M 244.095983 371.975638 
L 244.095983 356.783973 
" clip-path="url(#p99b01e5eb4)" style="fill: none; stroke: #00008b; stroke-width: 1.5"/>
    <path d="M 260.548071 369.325515 
L 260.548071 348.104901 
" clip-path="url(#p99b01e5eb4)" style="fill: none; stroke: #00008b; stroke-width: 1.5"/>
    <path d="M 277.00016 351.798353 
L 277.00016 338.391556 
" clip-path="url(#p99b01e5eb4)" style="fill: none; stroke: #00008b; stroke-width: 1.5"/>
    <path d="M 293.452248 358.40308 
L 293.452248 351.57635 
" clip-path="url(#p99b01e5eb4)" style="fill: none; stroke: #00008b; stroke-width: 1.5"/>
    <path d="M 309.904337 357.371529 
L 309.904337 351.195682 
" clip-path="url(#p99b01e5eb4)" style="fill: none; stroke: #00008b; stroke-width: 1.5"/>
    <path d="M 326.356425 360.61559 
L 326.356425 325.895885 
" clip-path="url(#p99b01e5eb4)" style="fill: none; stroke: #00008b; stroke-width: 1.5"/>
    <path d="M 342.808514 345.78199 
L 342.808514 335.130131 
" clip-path="url(#p99b01e5eb4)" style="fill: none; stroke: #00008b; stroke-width: 1.5"/>
    <path d="M 359.260602 344.740628 
L 359.260602 332.550677 
" clip-path="url(#p99b01e5eb4)" style="fill: none; stroke: #00008b; stroke-width: 1.5"/>
    <path d="M 375.71269 343.054442 
L 375.71269 324.55403 
" clip-path="url(#p99b01e5eb4)" style="fill: none; stroke: #00008b; stroke-width: 1.5"/>
    <path d="M 392.164779 337.612925 
L 392.164779 332.774227 
" clip-path="url(#p99b01e5eb4)" style="fill: none; stroke: #00008b; stroke-width: 1.5"/>
    <path d="M 408.616867 337.202053 
L 408.616867 318.912837 
" clip-path="url(#p99b01e5eb4)" style="fill: none; stroke: #00008b; stroke-width: 1.5"/>
    <path d="M 425.068956 327.95518 
L 425.068956 322.495078 
" clip-path="url(#p99b01e5eb4)" style="fill: none; stroke: #00008b; stroke-width: 1.5"/>
    <path d="M 441.521044 323.360223 
L 441.521044 314.780911 
" clip-path="url(#p99b01e5eb4)" style="fill: none; stroke: #00008b; stroke-width: 1.5"/>
    <path d="M 457.973133 321.565377 
L 457.973133 313.790934 
" clip-path="url(#p99b01e5eb4)" style="fill: none; stroke: #00008b; stroke-width: 1.5"/>
    <path d="M 474.425221 326.581468 
L 474.425221 320.820217 
" clip-path="url(#p99b01e5eb4)" style="fill: none; stroke: #00008b; stroke-width: 1.5"/>
    <path d="M 490.87731 332.307717 
L 490.87731 304.323916 
" clip-path="url(#p99b01e5eb4)" style="fill: none; stroke: #00008b; stroke-width: 1.5"/>
    <path d="M 507.329398 320.832786 
L 507.329398 307.907251 
" clip-path="url(#p99b01e5eb4)" style="fill: none; stroke: #00008b; stroke-width: 1.5"/>
    <path d="M 523.781486 331.323107 
L 523.781486 314.29525 
" clip-path="url(#p99b01e5eb4)" style="fill: none; stroke: #00008b; stroke-width: 1.5"/>
    <path d="M 540.233575 322.024058 
L 540.233575 311.890306 
" clip-path="url(#p99b01e5eb4)" style="fill: none; stroke: #00008b; stroke-width: 1.5"/>
    <path d="M 556.685663 329.608635 
L 556.685663 311.267568 
" clip-path="url(#p99b01e5eb4)" style="fill: none; stroke: #00008b; stroke-width: 1.5"/>
    <path d="M 573.137752 329.337626 
L 573.137752 320.911032 
" clip-path="url(#p99b01e5eb4)" style="fill: none; stroke: #00008b; stroke-width: 1.5"/>
    <path d="M 589.58984 326.822096 
L 589.58984 324.171604 
" clip-path="url(#p99b01e5eb4)" style="fill: none; stroke: #00008b; stroke-width: 1.5"/>
    <path d="M 606.041929 325.914524 
L 606.041929 324.104715 
" clip-path="url(#p99b01e5eb4)" style="fill: none; stroke: #00008b; stroke-width: 1.5"/>
    <path d="M 622.494017 318.887475 
L 622.494017 313.551934 
" clip-path="url(#p99b01e5eb4)" style="fill: none; stroke: #00008b; stroke-width: 1.5"/>
    <path d="M 638.946106 318.886219 
L 638.946106 316.404513 
" clip-path="url(#p99b01e5eb4)" style="fill: none; stroke: #00008b; stroke-width: 1.5"/>
    <path d="M 655.398194 318.374053 
L 655.398194 313.568641 
" clip-path="url(#p99b01e5eb4)" style="fill: none; stroke: #00008b; stroke-width: 1.5"/>
    <path d="M 671.850283 323.501413 
L 671.850283 298.591074 
" clip-path="url(#p99b01e5eb4)" style="fill: none; stroke: #00008b; stroke-width: 1.5"/>
    <path d="M 688.302371 320.30072 
L 688.302371 304.574983 
" clip-path="url(#p99b01e5eb4)" style="fill: none; stroke: #00008b; stroke-width: 1.5"/>
    <path d="M 704.754459 317.269204 
L 704.754459 299.649928 
" clip-path="url(#p99b01e5eb4)" style="fill: none; stroke: #00008b; stroke-width: 1.5"/>
    <path d="M 721.206548 323.79155 
L 721.206548 315.343803 
" clip-path="url(#p99b01e5eb4)" style="fill: none; stroke: #00008b; stroke-width: 1.5"/>
    <path d="M 737.658636 326.718335 
L 737.658636 308.323464 
" clip-path="url(#p99b01e5eb4)" style="fill: none; stroke: #00008b; stroke-width: 1.5"/>
   </g>
   <g id="line2d_76">
    <path d="M 128.931364 459.234 
L 132.753566 455.697437 
L 136.575768 452.160873 
L 140.397971 448.62431 
L 144.220173 445.087746 
L 148.042375 441.551183 
L 151.864578 438.014619 
L 155.68678 434.478056 
L 159.508983 430.941492 
L 163.331185 427.404929 
L 167.153387 423.868365 
L 170.97559 420.331802 
L 174.797792 416.795238 
L 178.619994 413.258675 
L 182.442197 409.722111 
L 186.264399 406.185548 
L 190.086602 402.648984 
L 193.908804 399.112421 
L 197.731006 395.575857 
L 201.553209 392.039294 
L 205.375411 388.50273 
L 209.197613 384.966167 
L 213.019816 381.429603 
L 216.842018 377.89304 
L 220.66422 374.356476 
L 224.486423 370.819913 
L 228.308625 367.283349 
L 232.130828 363.746786 
L 235.95303 360.210222 
L 239.775232 356.673659 
L 243.597435 353.137095 
L 247.419637 349.600532 
L 251.241839 346.063968 
L 255.064042 342.527405 
L 258.886244 338.990841 
L 262.708447 335.454278 
L 266.530649 331.917714 
L 270.352851 328.381151 
L 274.175054 324.844588 
L 277.997256 321.308024 
L 281.819458 317.771461 
L 285.641661 314.234897 
L 289.463863 310.698334 
L 293.286065 307.16177 
L 297.108268 303.625207 
L 300.93047 300.088643 
L 304.752673 296.55208 
L 308.574875 293.015516 
L 312.397077 289.478953 
L 316.21928 285.942389 
L 320.041482 282.405826 
L 323.863684 278.869262 
L 327.685887 275.332699 
L 331.508089 271.796135 
L 335.330291 268.259572 
L 339.152494 264.723008 
L 342.974696 261.186445 
L 346.796899 257.649881 
L 350.619101 254.113318 
L 354.441303 250.576754 
L 358.263506 247.040191 
L 362.085708 243.503627 
L 365.90791 239.967064 
L 369.730113 236.4305 
L 373.552315 232.893937 
L 377.374518 229.357373 
L 381.19672 225.82081 
L 385.018922 222.284246 
L 388.841125 218.747683 
L 392.663327 215.211119 
L 396.485529 211.674556 
L 400.307732 208.137992 
L 404.129934 204.601429 
L 407.952136 201.064866 
L 411.774339 197.528302 
L 415.596541 193.991739 
L 419.418744 190.455175 
L 423.240946 186.918612 
L 427.063148 183.382048 
L 430.885351 179.845485 
L 434.707553 176.308921 
L 438.529755 172.772358 
L 442.351958 169.235794 
L 446.17416 165.699231 
L 449.996363 162.162667 
L 453.818565 158.626104 
L 457.640767 155.08954 
L 461.46297 151.552977 
L 465.285172 148.016413 
L 469.107374 144.47985 
L 472.929577 140.943286 
L 476.751779 137.406723 
L 480.573981 133.870159 
L 484.396184 130.333596 
L 488.218386 126.797032 
L 492.040589 123.260469 
L 495.862791 119.723905 
L 499.684993 116.187342 
L 503.507196 112.650778 
L 507.329398 109.114215 
" clip-path="url(#p99b01e5eb4)" style="fill: none; stroke-dasharray: 3.7,1.6; stroke-dashoffset: 0; stroke: #8b0000"/>
   </g>
   <g id="line2d_77">
    <path d="M 128.931364 384.248712 
L 135.080124 380.121406 
L 141.228884 376.598841 
L 147.377645 373.52624 
L 153.526405 370.80156 
L 159.675165 368.353963 
L 165.823926 366.132258 
L 171.972686 364.098251 
L 178.121446 362.222682 
L 184.270207 360.482643 
L 190.418967 358.859859 
L 196.567727 357.339521 
L 202.716488 355.909457 
L 208.865248 354.559547 
L 215.014008 353.281279 
L 221.162769 352.067431 
L 227.311529 350.911821 
L 233.460289 349.809114 
L 239.60905 348.754679 
L 245.75781 347.744465 
L 251.90657 346.774913 
L 258.055331 345.842876 
L 264.204091 344.945557 
L 270.352851 344.080464 
L 276.501612 343.245362 
L 282.650372 342.43824 
L 288.799132 341.657284 
L 294.947893 340.900852 
L 301.096653 340.167449 
L 307.245413 339.455714 
L 313.394174 338.764404 
L 319.542934 338.09238 
L 325.691694 337.438594 
L 331.840455 336.802082 
L 337.989215 336.181955 
L 344.137975 335.577392 
L 350.286736 334.987628 
L 356.435496 334.411958 
L 362.584256 333.849723 
L 368.733017 333.300311 
L 374.881777 332.76315 
L 381.030537 332.237704 
L 387.179298 331.723475 
L 393.328058 331.219993 
L 399.476818 330.726818 
L 405.625579 330.243536 
L 411.774339 329.769759 
L 417.923099 329.30512 
L 424.07186 328.849273 
L 430.22062 328.401891 
L 436.36938 327.962666 
L 442.51814 327.531305 
L 448.666901 327.107533 
L 454.815661 326.691086 
L 460.964421 326.281715 
L 467.113182 325.879185 
L 473.261942 325.48327 
L 479.410702 325.093756 
L 485.559463 324.71044 
L 491.708223 324.333128 
L 497.856983 323.961633 
L 504.005744 323.595781 
L 510.154504 323.235401 
L 516.303264 322.880333 
L 522.452025 322.530422 
L 528.600785 322.18552 
L 534.749545 321.845487 
L 540.898306 321.510186 
L 547.047066 321.179488 
L 553.195826 320.853268 
L 559.344587 320.531406 
L 565.493347 320.213788 
L 571.642107 319.900303 
L 577.790868 319.590844 
L 583.939628 319.285311 
L 590.088388 318.983603 
L 596.237149 318.685628 
L 602.385909 318.391293 
L 608.534669 318.10051 
L 614.68343 317.813196 
L 620.83219 317.529267 
L 626.98095 317.248646 
L 633.129711 316.971256 
L 639.278471 316.697024 
L 645.427231 316.425878 
L 651.575992 316.15775 
L 657.724752 315.892573 
L 663.873512 315.630283 
L 670.022273 315.370819 
L 676.171033 315.114119 
L 682.319793 314.860125 
L 688.468554 314.608781 
L 694.617314 314.360032 
L 700.766074 314.113826 
L 706.914835 313.87011 
L 713.063595 313.628835 
L 719.212355 313.389953 
L 725.361116 313.153416 
L 731.509876 312.919179 
L 737.658636 312.687197 
" clip-path="url(#p99b01e5eb4)" style="fill: none; stroke-dasharray: 3.7,1.6; stroke-dashoffset: 0; stroke: #00008b"/>
   </g>
   <g id="line2d_78">
    <defs>
     <path id="m1b56e0fce1" d="M 0 3 
C 0.795609 3 1.55874 2.683901 2.12132 2.12132 
C 2.683901 1.55874 3 0.795609 3 0 
C 3 -0.795609 2.683901 -1.55874 2.12132 -2.12132 
C 1.55874 -2.683901 0.795609 -3 0 -3 
C -0.795609 -3 -1.55874 -2.683901 -2.12132 -2.12132 
C -2.683901 -1.55874 -3 -0.795609 -3 0 
C -3 0.795609 -2.683901 1.55874 -2.12132 2.12132 
C -1.55874 2.683901 -0.795609 3 0 3 
z
" style="stroke: #8b0000"/>
    </defs>
    <g clip-path="url(#p99b01e5eb4)">
     <use xlink:href="#m1b56e0fce1" x="128.931364" y="391.007615" style="fill: #8b0000; stroke: #8b0000"/>
     <use xlink:href="#m1b56e0fce1" x="145.383452" y="391.725556" style="fill: #8b0000; stroke: #8b0000"/>
     <use xlink:href="#m1b56e0fce1" x="161.835541" y="400.878153" style="fill: #8b0000; stroke: #8b0000"/>
     <use xlink:href="#m1b56e0fce1" x="178.287629" y="398.42355" style="fill: #8b0000; stroke: #8b0000"/>
     <use xlink:href="#m1b56e0fce1" x="194.739717" y="372.78079" style="fill: #8b0000; stroke: #8b0000"/>
     <use xlink:href="#m1b56e0fce1" x="211.191806" y="387.791647" style="fill: #8b0000; stroke: #8b0000"/>
     <use xlink:href="#m1b56e0fce1" x="227.643894" y="393.499849" style="fill: #8b0000; stroke: #8b0000"/>
     <use xlink:href="#m1b56e0fce1" x="244.095983" y="386.872436" style="fill: #8b0000; stroke: #8b0000"/>
     <use xlink:href="#m1b56e0fce1" x="260.548071" y="383.298075" style="fill: #8b0000; stroke: #8b0000"/>
     <use xlink:href="#m1b56e0fce1" x="277.00016" y="355.27742" style="fill: #8b0000; stroke: #8b0000"/>
     <use xlink:href="#m1b56e0fce1" x="293.452248" y="344.733595" style="fill: #8b0000; stroke: #8b0000"/>
     <use xlink:href="#m1b56e0fce1" x="309.904337" y="331.453006" style="fill: #8b0000; stroke: #8b0000"/>
     <use xlink:href="#m1b56e0fce1" x="326.356425" y="314.790959" style="fill: #8b0000; stroke: #8b0000"/>
     <use xlink:href="#m1b56e0fce1" x="342.808514" y="290.282253" style="fill: #8b0000; stroke: #8b0000"/>
     <use xlink:href="#m1b56e0fce1" x="359.260602" y="269.490152" style="fill: #8b0000; stroke: #8b0000"/>
     <use xlink:href="#m1b56e0fce1" x="375.71269" y="245.891444" style="fill: #8b0000; stroke: #8b0000"/>
     <use xlink:href="#m1b56e0fce1" x="392.164779" y="226.524606" style="fill: #8b0000; stroke: #8b0000"/>
     <use xlink:href="#m1b56e0fce1" x="408.616867" y="207.821106" style="fill: #8b0000; stroke: #8b0000"/>
     <use xlink:href="#m1b56e0fce1" x="425.068956" y="181.348048" style="fill: #8b0000; stroke: #8b0000"/>
     <use xlink:href="#m1b56e0fce1" x="441.521044" y="153.595649" style="fill: #8b0000; stroke: #8b0000"/>
     <use xlink:href="#m1b56e0fce1" x="457.973133" y="130.118815" style="fill: #8b0000; stroke: #8b0000"/>
     <use xlink:href="#m1b56e0fce1" x="474.425221" y="112.346504" style="fill: #8b0000; stroke: #8b0000"/>
     <use xlink:href="#m1b56e0fce1" x="490.87731" y="88.287308" style="fill: #8b0000; stroke: #8b0000"/>
     <use xlink:href="#m1b56e0fce1" x="507.329398" y="61.940045" style="fill: #8b0000; stroke: #8b0000"/>
    </g>
   </g>
   <g id="line2d_79">
    <defs>
     <path id="mbf1354b6d4" d="M 0 3 
C 0.795609 3 1.55874 2.683901 2.12132 2.12132 
C 2.683901 1.55874 3 0.795609 3 0 
C 3 -0.795609 2.683901 -1.55874 2.12132 -2.12132 
C 1.55874 -2.683901 0.795609 -3 0 -3 
C -0.795609 -3 -1.55874 -2.683901 -2.12132 -2.12132 
C -2.683901 -1.55874 -3 -0.795609 -3 0 
C -3 0.795609 -2.683901 1.55874 -2.12132 2.12132 
C -1.55874 2.683901 -0.795609 3 0 3 
z
" style="stroke: #00008b"/>
    </defs>
    <g clip-path="url(#p99b01e5eb4)">
     <use xlink:href="#mbf1354b6d4" x="128.931364" y="382.457581" style="fill: #00008b; stroke: #00008b"/>
     <use xlink:href="#mbf1354b6d4" x="145.383452" y="367.31372" style="fill: #00008b; stroke: #00008b"/>
     <use xlink:href="#mbf1354b6d4" x="161.835541" y="371.085351" style="fill: #00008b; stroke: #00008b"/>
     <use xlink:href="#mbf1354b6d4" x="178.287629" y="357.824047" style="fill: #00008b; stroke: #00008b"/>
     <use xlink:href="#mbf1354b6d4" x="194.739717" y="340.029915" style="fill: #00008b; stroke: #00008b"/>
     <use xlink:href="#mbf1354b6d4" x="211.191806" y="350.468762" style="fill: #00008b; stroke: #00008b"/>
     <use xlink:href="#mbf1354b6d4" x="227.643894" y="353.121853" style="fill: #00008b; stroke: #00008b"/>
     <use xlink:href="#mbf1354b6d4" x="244.095983" y="363.506445" style="fill: #00008b; stroke: #00008b"/>
     <use xlink:href="#mbf1354b6d4" x="260.548071" y="357.025167" style="fill: #00008b; stroke: #00008b"/>
     <use xlink:href="#mbf1354b6d4" x="277.00016" y="344.413433" style="fill: #00008b; stroke: #00008b"/>
     <use xlink:href="#mbf1354b6d4" x="293.452248" y="354.812099" style="fill: #00008b; stroke: #00008b"/>
     <use xlink:href="#mbf1354b6d4" x="309.904337" y="354.138197" style="fill: #00008b; stroke: #00008b"/>
     <use xlink:href="#mbf1354b6d4" x="326.356425" y="338.854013" style="fill: #00008b; stroke: #00008b"/>
     <use xlink:href="#mbf1354b6d4" x="342.808514" y="340.024755" style="fill: #00008b; stroke: #00008b"/>
     <use xlink:href="#mbf1354b6d4" x="359.260602" y="338.081558" style="fill: #00008b; stroke: #00008b"/>
     <use xlink:href="#mbf1354b6d4" x="375.71269" y="332.514477" style="fill: #00008b; stroke: #00008b"/>
     <use xlink:href="#mbf1354b6d4" x="392.164779" y="335.104265" style="fill: #00008b; stroke: #00008b"/>
     <use xlink:href="#mbf1354b6d4" x="408.616867" y="326.796595" style="fill: #00008b; stroke: #00008b"/>
     <use xlink:href="#mbf1354b6d4" x="425.068956" y="325.111434" style="fill: #00008b; stroke: #00008b"/>
     <use xlink:href="#mbf1354b6d4" x="441.521044" y="318.790342" style="fill: #00008b; stroke: #00008b"/>
     <use xlink:href="#mbf1354b6d4" x="457.973133" y="317.447926" style="fill: #00008b; stroke: #00008b"/>
     <use xlink:href="#mbf1354b6d4" x="474.425221" y="323.574277" style="fill: #00008b; stroke: #00008b"/>
     <use xlink:href="#mbf1354b6d4" x="490.87731" y="315.412747" style="fill: #00008b; stroke: #00008b"/>
     <use xlink:href="#mbf1354b6d4" x="507.329398" y="313.73624" style="fill: #00008b; stroke: #00008b"/>
     <use xlink:href="#mbf1354b6d4" x="523.781486" y="321.714401" style="fill: #00008b; stroke: #00008b"/>
     <use xlink:href="#mbf1354b6d4" x="540.233575" y="316.566652" style="fill: #00008b; stroke: #00008b"/>
     <use xlink:href="#mbf1354b6d4" x="556.685663" y="319.170183" style="fill: #00008b; stroke: #00008b"/>
     <use xlink:href="#mbf1354b6d4" x="573.137752" y="324.853964" style="fill: #00008b; stroke: #00008b"/>
     <use xlink:href="#mbf1354b6d4" x="589.58984" y="325.470035" style="fill: #00008b; stroke: #00008b"/>
     <use xlink:href="#mbf1354b6d4" x="606.041929" y="324.997115" style="fill: #00008b; stroke: #00008b"/>
     <use xlink:href="#mbf1354b6d4" x="622.494017" y="316.111133" style="fill: #00008b; stroke: #00008b"/>
     <use xlink:href="#mbf1354b6d4" x="638.946106" y="317.621857" style="fill: #00008b; stroke: #00008b"/>
     <use xlink:href="#mbf1354b6d4" x="655.398194" y="315.88326" style="fill: #00008b; stroke: #00008b"/>
     <use xlink:href="#mbf1354b6d4" x="671.850283" y="308.732087" style="fill: #00008b; stroke: #00008b"/>
     <use xlink:href="#mbf1354b6d4" x="688.302371" y="311.502593" style="fill: #00008b; stroke: #00008b"/>
     <use xlink:href="#mbf1354b6d4" x="704.754459" y="307.288329" style="fill: #00008b; stroke: #00008b"/>
     <use xlink:href="#mbf1354b6d4" x="721.206548" y="319.295957" style="fill: #00008b; stroke: #00008b"/>
     <use xlink:href="#mbf1354b6d4" x="737.658636" y="316.245627" style="fill: #00008b; stroke: #00008b"/>
    </g>
   </g>
   <g id="patch_3">
    <path d="M 98.495 479.394 
L 98.495 35.874 
" style="fill: none; stroke: #000000; stroke-width: 0.8; stroke-linejoin: miter; stroke-linecap: square"/>
   </g>
   <g id="patch_4">
    <path d="M 768.095 479.394 
L 768.095 35.874 
" style="fill: none; stroke: #000000; stroke-width: 0.8; stroke-linejoin: miter; stroke-linecap: square"/>
   </g>
   <g id="patch_5">
    <path d="M 98.495 479.394 
L 768.095 479.394 
" style="fill: none; stroke: #000000; stroke-width: 0.8; stroke-linejoin: miter; stroke-linecap: square"/>
   </g>
   <g id="patch_6">
    <path d="M 98.495 35.874 
L 768.095 35.874 
" style="fill: none; stroke: #000000; stroke-width: 0.8; stroke-linejoin: miter; stroke-linecap: square"/>
   </g>
   <g id="text_17">
    <!-- CPU_time vs. number of subsystems (D=2) -->
    <g transform="translate(121.83875 29.0835) scale(0.288 -0.288)">
     <defs>
      <path id="DejaVuSans-76" d="M 191 3500 
L 800 3500 
L 1894 563 
L 2988 3500 
L 3597 3500 
L 2284 0 
L 1503 0 
L 191 3500 
z
" transform="scale(0.015625)"/>
      <path id="DejaVuSans-2e" d="M 684 794 
L 1344 794 
L 1344 0 
L 684 0 
L 684 794 
z
" transform="scale(0.015625)"/>
      <path id="DejaVuSans-6e" d="M 3513 2113 
L 3513 0 
L 2938 0 
L 2938 2094 
Q 2938 2591 2744 2837 
Q 2550 3084 2163 3084 
Q 1697 3084 1428 2787 
Q 1159 2491 1159 1978 
L 1159 0 
L 581 0 
L 581 3500 
L 1159 3500 
L 1159 2956 
Q 1366 3272 1645 3428 
Q 1925 3584 2291 3584 
Q 2894 3584 3203 3211 
Q 3513 2838 3513 2113 
z
" transform="scale(0.015625)"/>
      <path id="DejaVuSans-44" d="M 1259 4147 
L 1259 519 
L 2022 519 
Q 2988 519 3436 956 
Q 3884 1394 3884 2338 
Q 3884 3275 3436 3711 
Q 2988 4147 2022 4147 
L 1259 4147 
z
M 628 4666 
L 1925 4666 
Q 3281 4666 3915 4102 
Q 4550 3538 4550 2338 
Q 4550 1131 3912 565 
Q 3275 0 1925 0 
L 628 0 
L 628 4666 
z
" transform="scale(0.015625)"/>
      <path id="DejaVuSans-3d" d="M 678 2906 
L 4684 2906 
L 4684 2381 
L 678 2381 
L 678 2906 
z
M 678 1631 
L 4684 1631 
L 4684 1100 
L 678 1100 
L 678 1631 
z
" transform="scale(0.015625)"/>
     </defs>
     <use xlink:href="#DejaVuSans-43"/>
     <use xlink:href="#DejaVuSans-50" x="69.824219"/>
     <use xlink:href="#DejaVuSans-55" x="130.126953"/>
     <use xlink:href="#DejaVuSans-5f" x="203.320312"/>
     <use xlink:href="#DejaVuSans-74" x="253.320312"/>
     <use xlink:href="#DejaVuSans-69" x="292.529297"/>
     <use xlink:href="#DejaVuSans-6d" x="320.3125"/>
     <use xlink:href="#DejaVuSans-65" x="417.724609"/>
     <use xlink:href="#DejaVuSans-20" x="479.248047"/>
     <use xlink:href="#DejaVuSans-76" x="511.035156"/>
     <use xlink:href="#DejaVuSans-73" x="570.214844"/>
     <use xlink:href="#DejaVuSans-2e" x="622.314453"/>
     <use xlink:href="#DejaVuSans-20" x="654.101562"/>
     <use xlink:href="#DejaVuSans-6e" x="685.888672"/>
     <use xlink:href="#DejaVuSans-75" x="749.267578"/>
     <use xlink:href="#DejaVuSans-6d" x="812.646484"/>
     <use xlink:href="#DejaVuSans-62" x="910.058594"/>
     <use xlink:href="#DejaVuSans-65" x="973.535156"/>
     <use xlink:href="#DejaVuSans-72" x="1035.058594"/>
     <use xlink:href="#DejaVuSans-20" x="1076.171875"/>
     <use xlink:href="#DejaVuSans-6f" x="1107.958984"/>
     <use xlink:href="#DejaVuSans-66" x="1169.140625"/>
     <use xlink:href="#DejaVuSans-20" x="1204.345703"/>
     <use xlink:href="#DejaVuSans-73" x="1236.132812"/>
     <use xlink:href="#DejaVuSans-75" x="1288.232422"/>
     <use xlink:href="#DejaVuSans-62" x="1351.611328"/>
     <use xlink:href="#DejaVuSans-73" x="1415.087891"/>
     <use xlink:href="#DejaVuSans-79" x="1467.1875"/>
     <use xlink:href="#DejaVuSans-73" x="1526.367188"/>
     <use xlink:href="#DejaVuSans-74" x="1578.466797"/>
     <use xlink:href="#DejaVuSans-65" x="1617.675781"/>
     <use xlink:href="#DejaVuSans-6d" x="1679.199219"/>
     <use xlink:href="#DejaVuSans-73" x="1776.611328"/>
     <use xlink:href="#DejaVuSans-20" x="1828.710938"/>
     <use xlink:href="#DejaVuSans-28" x="1860.498047"/>
     <use xlink:href="#DejaVuSans-44" x="1899.511719"/>
     <use xlink:href="#DejaVuSans-3d" x="1976.513672"/>
     <use xlink:href="#DejaVuSans-32" x="2060.302734"/>
     <use xlink:href="#DejaVuSans-29" x="2123.925781"/>
    </g>
   </g>
   <g id="legend_1">
    <g id="patch_7">
     <path d="M 115.295 197.319 
L 434.84375 197.319 
Q 439.64375 197.319 439.64375 192.519 
L 439.64375 52.674 
Q 439.64375 47.874 434.84375 47.874 
L 115.295 47.874 
Q 110.495 47.874 110.495 52.674 
L 110.495 192.519 
Q 110.495 197.319 115.295 197.319 
z
" style="fill: #ffffff; opacity: 0.8; stroke: #cccccc; stroke-linejoin: miter"/>
    </g>
    <g id="line2d_80">
     <path d="M 120.095 67.31025 
L 144.095 67.31025 
L 168.095 67.31025 
" style="fill: none; stroke-dasharray: 3.7,1.6; stroke-dashoffset: 0; stroke: #8b0000"/>
    </g>
    <g id="text_18">
     <!-- y=0.46*N -13.01 -->
     <g transform="translate(187.295 75.71025) scale(0.24 -0.24)">
      <defs>
       <path id="DejaVuSans-36" d="M 2113 2584 
Q 1688 2584 1439 2293 
Q 1191 2003 1191 1497 
Q 1191 994 1439 701 
Q 1688 409 2113 409 
Q 2538 409 2786 701 
Q 3034 994 3034 1497 
Q 3034 2003 2786 2293 
Q 2538 2584 2113 2584 
z
M 3366 4563 
L 3366 3988 
Q 3128 4100 2886 4159 
Q 2644 4219 2406 4219 
Q 1781 4219 1451 3797 
Q 1122 3375 1075 2522 
Q 1259 2794 1537 2939 
Q 1816 3084 2150 3084 
Q 2853 3084 3261 2657 
Q 3669 2231 3669 1497 
Q 3669 778 3244 343 
Q 2819 -91 2113 -91 
Q 1303 -91 875 529 
Q 447 1150 447 2328 
Q 447 3434 972 4092 
Q 1497 4750 2381 4750 
Q 2619 4750 2861 4703 
Q 3103 4656 3366 4563 
z
" transform="scale(0.015625)"/>
       <path id="DejaVuSans-2a" d="M 3009 3897 
L 1888 3291 
L 3009 2681 
L 2828 2375 
L 1778 3009 
L 1778 1831 
L 1422 1831 
L 1422 3009 
L 372 2375 
L 191 2681 
L 1313 3291 
L 191 3897 
L 372 4206 
L 1422 3572 
L 1422 4750 
L 1778 4750 
L 1778 3572 
L 2828 4206 
L 3009 3897 
z
" transform="scale(0.015625)"/>
       <path id="DejaVuSans-2d" d="M 313 2009 
L 1997 2009 
L 1997 1497 
L 313 1497 
L 313 2009 
z
" transform="scale(0.015625)"/>
      </defs>
      <use xlink:href="#DejaVuSans-79"/>
      <use xlink:href="#DejaVuSans-3d" x="59.179688"/>
      <use xlink:href="#DejaVuSans-30" x="142.96875"/>
      <use xlink:href="#DejaVuSans-2e" x="206.591797"/>
      <use xlink:href="#DejaVuSans-34" x="238.378906"/>
      <use xlink:href="#DejaVuSans-36" x="302.001953"/>
      <use xlink:href="#DejaVuSans-2a" x="365.625"/>
      <use xlink:href="#DejaVuSans-4e" x="415.625"/>
      <use xlink:href="#DejaVuSans-20" x="490.429688"/>
      <use xlink:href="#DejaVuSans-2d" x="522.216797"/>
      <use xlink:href="#DejaVuSans-31" x="558.300781"/>
      <use xlink:href="#DejaVuSans-33" x="621.923828"/>
      <use xlink:href="#DejaVuSans-2e" x="685.546875"/>
      <use xlink:href="#DejaVuSans-30" x="717.333984"/>
      <use xlink:href="#DejaVuSans-31" x="780.957031"/>
     </g>
    </g>
    <g id="line2d_81">
     <path d="M 120.095 102.53775 
L 144.095 102.53775 
L 168.095 102.53775 
" style="fill: none; stroke-dasharray: 3.7,1.6; stroke-dashoffset: 0; stroke: #00008b"/>
    </g>
    <g id="text_19">
     <!-- y=0.74*log(N) -10.3 -->
     <g transform="translate(187.295 110.93775) scale(0.24 -0.24)">
      <defs>
       <path id="DejaVuSans-37" d="M 525 4666 
L 3525 4666 
L 3525 4397 
L 1831 0 
L 1172 0 
L 2766 4134 
L 525 4134 
L 525 4666 
z
" transform="scale(0.015625)"/>
       <path id="DejaVuSans-6c" d="M 603 4863 
L 1178 4863 
L 1178 0 
L 603 0 
L 603 4863 
z
" transform="scale(0.015625)"/>
       <path id="DejaVuSans-67" d="M 2906 1791 
Q 2906 2416 2648 2759 
Q 2391 3103 1925 3103 
Q 1463 3103 1205 2759 
Q 947 2416 947 1791 
Q 947 1169 1205 825 
Q 1463 481 1925 481 
Q 2391 481 2648 825 
Q 2906 1169 2906 1791 
z
M 3481 434 
Q 3481 -459 3084 -895 
Q 2688 -1331 1869 -1331 
Q 1566 -1331 1297 -1286 
Q 1028 -1241 775 -1147 
L 775 -588 
Q 1028 -725 1275 -790 
Q 1522 -856 1778 -856 
Q 2344 -856 2625 -561 
Q 2906 -266 2906 331 
L 2906 616 
Q 2728 306 2450 153 
Q 2172 0 1784 0 
Q 1141 0 747 490 
Q 353 981 353 1791 
Q 353 2603 747 3093 
Q 1141 3584 1784 3584 
Q 2172 3584 2450 3431 
Q 2728 3278 2906 2969 
L 2906 3500 
L 3481 3500 
L 3481 434 
z
" transform="scale(0.015625)"/>
      </defs>
      <use xlink:href="#DejaVuSans-79"/>
      <use xlink:href="#DejaVuSans-3d" x="59.179688"/>
      <use xlink:href="#DejaVuSans-30" x="142.96875"/>
      <use xlink:href="#DejaVuSans-2e" x="206.591797"/>
      <use xlink:href="#DejaVuSans-37" x="238.378906"/>
      <use xlink:href="#DejaVuSans-34" x="302.001953"/>
      <use xlink:href="#DejaVuSans-2a" x="365.625"/>
      <use xlink:href="#DejaVuSans-6c" x="415.625"/>
      <use xlink:href="#DejaVuSans-6f" x="443.408203"/>
      <use xlink:href="#DejaVuSans-67" x="504.589844"/>
      <use xlink:href="#DejaVuSans-28" x="568.066406"/>
      <use xlink:href="#DejaVuSans-4e" x="607.080078"/>
      <use xlink:href="#DejaVuSans-29" x="681.884766"/>
      <use xlink:href="#DejaVuSans-20" x="720.898438"/>
      <use xlink:href="#DejaVuSans-2d" x="752.685547"/>
      <use xlink:href="#DejaVuSans-31" x="788.769531"/>
      <use xlink:href="#DejaVuSans-30" x="852.392578"/>
      <use xlink:href="#DejaVuSans-2e" x="916.015625"/>
      <use xlink:href="#DejaVuSans-33" x="947.802734"/>
     </g>
    </g>
    <g id="LineCollection_3">
     <path d="M 144.095 149.76525 
L 144.095 125.76525 
" style="fill: none; stroke: #8b0000; stroke-width: 1.5"/>
    </g>
    <g id="line2d_82"/>
    <g id="line2d_83">
     <g>
      <use xlink:href="#m1b56e0fce1" x="144.095" y="137.76525" style="fill: #8b0000; stroke: #8b0000"/>
     </g>
    </g>
    <g id="text_20">
     <!-- general_wfc -->
     <g transform="translate(187.295 146.16525) scale(0.24 -0.24)">
      <defs>
       <path id="DejaVuSans-61" d="M 2194 1759 
Q 1497 1759 1228 1600 
Q 959 1441 959 1056 
Q 959 750 1161 570 
Q 1363 391 1709 391 
Q 2188 391 2477 730 
Q 2766 1069 2766 1631 
L 2766 1759 
L 2194 1759 
z
M 3341 1997 
L 3341 0 
L 2766 0 
L 2766 531 
Q 2569 213 2275 61 
Q 1981 -91 1556 -91 
Q 1019 -91 701 211 
Q 384 513 384 1019 
Q 384 1609 779 1909 
Q 1175 2209 1959 2209 
L 2766 2209 
L 2766 2266 
Q 2766 2663 2505 2880 
Q 2244 3097 1772 3097 
Q 1472 3097 1187 3025 
Q 903 2953 641 2809 
L 641 3341 
Q 956 3463 1253 3523 
Q 1550 3584 1831 3584 
Q 2591 3584 2966 3190 
Q 3341 2797 3341 1997 
z
" transform="scale(0.015625)"/>
       <path id="DejaVuSans-77" d="M 269 3500 
L 844 3500 
L 1563 769 
L 2278 3500 
L 2956 3500 
L 3675 769 
L 4391 3500 
L 4966 3500 
L 4050 0 
L 3372 0 
L 2619 2869 
L 1863 0 
L 1184 0 
L 269 3500 
z
" transform="scale(0.015625)"/>
       <path id="DejaVuSans-63" d="M 3122 3366 
L 3122 2828 
Q 2878 2963 2633 3030 
Q 2388 3097 2138 3097 
Q 1578 3097 1268 2742 
Q 959 2388 959 1747 
Q 959 1106 1268 751 
Q 1578 397 2138 397 
Q 2388 397 2633 464 
Q 2878 531 3122 666 
L 3122 134 
Q 2881 22 2623 -34 
Q 2366 -91 2075 -91 
Q 1284 -91 818 406 
Q 353 903 353 1747 
Q 353 2603 823 3093 
Q 1294 3584 2113 3584 
Q 2378 3584 2631 3529 
Q 2884 3475 3122 3366 
z
" transform="scale(0.015625)"/>
      </defs>
      <use xlink:href="#DejaVuSans-67"/>
      <use xlink:href="#DejaVuSans-65" x="63.476562"/>
      <use xlink:href="#DejaVuSans-6e" x="125"/>
      <use xlink:href="#DejaVuSans-65" x="188.378906"/>
      <use xlink:href="#DejaVuSans-72" x="249.902344"/>
      <use xlink:href="#DejaVuSans-61" x="291.015625"/>
      <use xlink:href="#DejaVuSans-6c" x="352.294922"/>
      <use xlink:href="#DejaVuSans-5f" x="380.078125"/>
      <use xlink:href="#DejaVuSans-77" x="430.078125"/>
      <use xlink:href="#DejaVuSans-66" x="511.865234"/>
      <use xlink:href="#DejaVuSans-63" x="547.070312"/>
     </g>
    </g>
    <g id="LineCollection_4">
     <path d="M 144.095 185.66025 
L 144.095 161.66025 
" style="fill: none; stroke: #00008b; stroke-width: 1.5"/>
    </g>
    <g id="line2d_84"/>
    <g id="line2d_85">
     <g>
      <use xlink:href="#mbf1354b6d4" x="144.095" y="173.66025" style="fill: #00008b; stroke: #00008b"/>
     </g>
    </g>
    <g id="text_21">
     <!-- separable_wfc -->
     <g transform="translate(187.295 182.06025) scale(0.24 -0.24)">
      <defs>
       <path id="DejaVuSans-70" d="M 1159 525 
L 1159 -1331 
L 581 -1331 
L 581 3500 
L 1159 3500 
L 1159 2969 
Q 1341 3281 1617 3432 
Q 1894 3584 2278 3584 
Q 2916 3584 3314 3078 
Q 3713 2572 3713 1747 
Q 3713 922 3314 415 
Q 2916 -91 2278 -91 
Q 1894 -91 1617 61 
Q 1341 213 1159 525 
z
M 3116 1747 
Q 3116 2381 2855 2742 
Q 2594 3103 2138 3103 
Q 1681 3103 1420 2742 
Q 1159 2381 1159 1747 
Q 1159 1113 1420 752 
Q 1681 391 2138 391 
Q 2594 391 2855 752 
Q 3116 1113 3116 1747 
z
" transform="scale(0.015625)"/>
      </defs>
      <use xlink:href="#DejaVuSans-73"/>
      <use xlink:href="#DejaVuSans-65" x="52.099609"/>
      <use xlink:href="#DejaVuSans-70" x="113.623047"/>
      <use xlink:href="#DejaVuSans-61" x="177.099609"/>
      <use xlink:href="#DejaVuSans-72" x="238.378906"/>
      <use xlink:href="#DejaVuSans-61" x="279.492188"/>
      <use xlink:href="#DejaVuSans-62" x="340.771484"/>
      <use xlink:href="#DejaVuSans-6c" x="404.248047"/>
      <use xlink:href="#DejaVuSans-65" x="432.03125"/>
      <use xlink:href="#DejaVuSans-5f" x="493.554688"/>
      <use xlink:href="#DejaVuSans-77" x="543.554688"/>
      <use xlink:href="#DejaVuSans-66" x="625.341797"/>
      <use xlink:href="#DejaVuSans-63" x="660.546875"/>
     </g>
    </g>
   </g>
  </g>
 </g>
 <defs>
  <clipPath id="p99b01e5eb4">
   <rect x="98.495" y="35.874" width="669.6" height="443.52"/>
  </clipPath>
 </defs>
</svg>
