<?xml version="1.0" encoding="utf-8" standalone="no"?>
<!DOCTYPE svg PUBLIC "-//W3C//DTD SVG 1.1//EN"
  "http://www.w3.org/Graphics/SVG/1.1/DTD/svg11.dtd">
<svg xmlns:xlink="http://www.w3.org/1999/xlink" width="522.91pt" height="520.479pt" viewBox="0 0 522.91 520.479" xmlns="http://www.w3.org/2000/svg" version="1.1">
 <metadata>
  <rdf:RDF xmlns:dc="http://purl.org/dc/elements/1.1/" xmlns:cc="http://creativecommons.org/ns#" xmlns:rdf="http://www.w3.org/1999/02/22-rdf-syntax-ns#">
   <cc:Work>
    <dc:type rdf:resource="http://purl.org/dc/dcmitype/StillImage"/>
    <dc:date>2024-11-11T17:43:15.627044</dc:date>
    <dc:format>image/svg+xml</dc:format>
    <dc:creator>
     <cc:Agent>
      <dc:title>Matplotlib v3.9.0, https://matplotlib.org/</dc:title>
     </cc:Agent>
    </dc:creator>
   </cc:Work>
  </rdf:RDF>
 </metadata>
 <defs>
  <style type="text/css">*{stroke-linejoin: round; stroke-linecap: butt}</style>
 </defs>
 <g id="figure_1">
  <g id="patch_1">
   <path d="M 0 520.479 
L 522.91 520.479 
L 522.91 0 
L 0 0 
z
" style="fill: #ffffff"/>
  </g>
  <g id="axes_1">
   <g id="patch_2">
    <path d="M 69.31 471.309 
L 515.71 471.309 
L 515.71 27.789 
L 69.31 27.789 
z
" style="fill: #ffffff"/>
   </g>
   <g id="patch_3">
    <path d="M 89.600938 471.309 
L 118.587949 471.309 
L 118.587949 130.017186 
L 89.600938 130.017186 
z
" clip-path="url(#p03ba76cedf)" style="fill: #ffff00; stroke: #808080; stroke-linejoin: miter"/>
   </g>
   <g id="patch_4">
    <path d="M 118.587949 471.309 
L 147.57496 471.309 
L 147.57496 454.773236 
L 118.587949 454.773236 
z
" clip-path="url(#p03ba76cedf)" style="fill: #ffff00; stroke: #808080; stroke-linejoin: miter"/>
   </g>
   <g id="patch_5">
    <path d="M 147.57496 471.309 
L 176.56197 471.309 
L 176.56197 466.987447 
L 147.57496 466.987447 
z
" clip-path="url(#p03ba76cedf)" style="fill: #ffff00; stroke: #808080; stroke-linejoin: miter"/>
   </g>
   <g id="patch_6">
    <path d="M 176.56197 471.309 
L 205.548981 471.309 
L 205.548981 469.438422 
L 176.56197 469.438422 
z
" clip-path="url(#p03ba76cedf)" style="fill: #ffff00; stroke: #808080; stroke-linejoin: miter"/>
   </g>
   <g id="patch_7">
    <path d="M 205.548981 471.309 
L 234.535992 471.309 
L 234.535992 470.358924 
L 205.548981 470.358924 
z
" clip-path="url(#p03ba76cedf)" style="fill: #ffff00; stroke: #808080; stroke-linejoin: miter"/>
   </g>
   <g id="patch_8">
    <path d="M 234.535992 471.309 
L 263.523003 471.309 
L 263.523003 470.780358 
L 234.535992 470.780358 
z
" clip-path="url(#p03ba76cedf)" style="fill: #ffff00; stroke: #808080; stroke-linejoin: miter"/>
   </g>
   <g id="patch_9">
    <path d="M 263.523003 471.309 
L 292.510014 471.309 
L 292.510014 471.076102 
L 263.523003 471.076102 
z
" clip-path="url(#p03ba76cedf)" style="fill: #ffff00; stroke: #808080; stroke-linejoin: miter"/>
   </g>
   <g id="patch_10">
    <path d="M 292.510014 471.309 
L 321.497025 471.309 
L 321.497025 471.150038 
L 292.510014 471.150038 
z
" clip-path="url(#p03ba76cedf)" style="fill: #ffff00; stroke: #808080; stroke-linejoin: miter"/>
   </g>
   <g id="patch_11">
    <path d="M 321.497025 471.309 
L 350.484036 471.309 
L 350.484036 471.264638 
L 321.497025 471.264638 
z
" clip-path="url(#p03ba76cedf)" style="fill: #ffff00; stroke: #808080; stroke-linejoin: miter"/>
   </g>
   <g id="patch_12">
    <path d="M 350.484036 471.309 
L 379.471047 471.309 
L 379.471047 471.286819 
L 350.484036 471.286819 
z
" clip-path="url(#p03ba76cedf)" style="fill: #ffff00; stroke: #808080; stroke-linejoin: miter"/>
   </g>
   <g id="patch_13">
    <path d="M 379.471047 471.309 
L 408.458058 471.309 
L 408.458058 471.301606 
L 379.471047 471.301606 
z
" clip-path="url(#p03ba76cedf)" style="fill: #ffff00; stroke: #808080; stroke-linejoin: miter"/>
   </g>
   <g id="patch_14">
    <path d="M 408.458058 471.309 
L 437.445069 471.309 
L 437.445069 471.301606 
L 408.458058 471.301606 
z
" clip-path="url(#p03ba76cedf)" style="fill: #ffff00; stroke: #808080; stroke-linejoin: miter"/>
   </g>
   <g id="patch_15">
    <path d="M 437.445069 471.309 
L 466.43208 471.309 
L 466.43208 471.305303 
L 437.445069 471.305303 
z
" clip-path="url(#p03ba76cedf)" style="fill: #ffff00; stroke: #808080; stroke-linejoin: miter"/>
   </g>
   <g id="patch_16">
    <path d="M 466.43208 471.309 
L 495.419091 471.309 
L 495.419091 471.301606 
L 466.43208 471.301606 
z
" clip-path="url(#p03ba76cedf)" style="fill: #ffff00; stroke: #808080; stroke-linejoin: miter"/>
   </g>
   <g id="matplotlib.axis_1">
    <g id="xtick_1">
     <g id="line2d_1">
      <defs>
       <path id="m9c63c17336" d="M 0 0 
L 0 3.5 
" style="stroke: #000000; stroke-width: 0.8"/>
      </defs>
      <g>
       <use xlink:href="#m9c63c17336" x="89.600909" y="471.309" style="stroke: #000000; stroke-width: 0.8"/>
      </g>
     </g>
     <g id="text_1">
      <!-- 0 -->
      <g transform="translate(84.510909 490.4665) scale(0.16 -0.16)">
       <defs>
        <path id="DejaVuSans-30" d="M 2034 4250 
Q 1547 4250 1301 3770 
Q 1056 3291 1056 2328 
Q 1056 1369 1301 889 
Q 1547 409 2034 409 
Q 2525 409 2770 889 
Q 3016 1369 3016 2328 
Q 3016 3291 2770 3770 
Q 2525 4250 2034 4250 
z
M 2034 4750 
Q 2819 4750 3233 4129 
Q 3647 3509 3647 2328 
Q 3647 1150 3233 529 
Q 2819 -91 2034 -91 
Q 1250 -91 836 529 
Q 422 1150 422 2328 
Q 422 3509 836 4129 
Q 1250 4750 2034 4750 
z
" transform="scale(0.015625)"/>
       </defs>
       <use xlink:href="#DejaVuSans-30"/>
      </g>
     </g>
    </g>
    <g id="xtick_2">
     <g id="line2d_2">
      <g>
       <use xlink:href="#m9c63c17336" x="141.088095" y="471.309" style="stroke: #000000; stroke-width: 0.8"/>
      </g>
     </g>
     <g id="text_2">
      <!-- 5 -->
      <g transform="translate(135.998095 490.4665) scale(0.16 -0.16)">
       <defs>
        <path id="DejaVuSans-35" d="M 691 4666 
L 3169 4666 
L 3169 4134 
L 1269 4134 
L 1269 2991 
Q 1406 3038 1543 3061 
Q 1681 3084 1819 3084 
Q 2600 3084 3056 2656 
Q 3513 2228 3513 1497 
Q 3513 744 3044 326 
Q 2575 -91 1722 -91 
Q 1428 -91 1123 -41 
Q 819 9 494 109 
L 494 744 
Q 775 591 1075 516 
Q 1375 441 1709 441 
Q 2250 441 2565 725 
Q 2881 1009 2881 1497 
Q 2881 1984 2565 2268 
Q 2250 2553 1709 2553 
Q 1456 2553 1204 2497 
Q 953 2441 691 2322 
L 691 4666 
z
" transform="scale(0.015625)"/>
       </defs>
       <use xlink:href="#DejaVuSans-35"/>
      </g>
     </g>
    </g>
    <g id="xtick_3">
     <g id="line2d_3">
      <g>
       <use xlink:href="#m9c63c17336" x="192.57528" y="471.309" style="stroke: #000000; stroke-width: 0.8"/>
      </g>
     </g>
     <g id="text_3">
      <!-- 10 -->
      <g transform="translate(182.39528 490.4665) scale(0.16 -0.16)">
       <defs>
        <path id="DejaVuSans-31" d="M 794 531 
L 1825 531 
L 1825 4091 
L 703 3866 
L 703 4441 
L 1819 4666 
L 2450 4666 
L 2450 531 
L 3481 531 
L 3481 0 
L 794 0 
L 794 531 
z
" transform="scale(0.015625)"/>
       </defs>
       <use xlink:href="#DejaVuSans-31"/>
       <use xlink:href="#DejaVuSans-30" x="63.623047"/>
      </g>
     </g>
    </g>
    <g id="xtick_4">
     <g id="line2d_4">
      <g>
       <use xlink:href="#m9c63c17336" x="244.062465" y="471.309" style="stroke: #000000; stroke-width: 0.8"/>
      </g>
     </g>
     <g id="text_4">
      <!-- 15 -->
      <g transform="translate(233.882465 490.4665) scale(0.16 -0.16)">
       <use xlink:href="#DejaVuSans-31"/>
       <use xlink:href="#DejaVuSans-35" x="63.623047"/>
      </g>
     </g>
    </g>
    <g id="xtick_5">
     <g id="line2d_5">
      <g>
       <use xlink:href="#m9c63c17336" x="295.549651" y="471.309" style="stroke: #000000; stroke-width: 0.8"/>
      </g>
     </g>
     <g id="text_5">
      <!-- 20 -->
      <g transform="translate(285.369651 490.4665) scale(0.16 -0.16)">
       <defs>
        <path id="DejaVuSans-32" d="M 1228 531 
L 3431 531 
L 3431 0 
L 469 0 
L 469 531 
Q 828 903 1448 1529 
Q 2069 2156 2228 2338 
Q 2531 2678 2651 2914 
Q 2772 3150 2772 3378 
Q 2772 3750 2511 3984 
Q 2250 4219 1831 4219 
Q 1534 4219 1204 4116 
Q 875 4013 500 3803 
L 500 4441 
Q 881 4594 1212 4672 
Q 1544 4750 1819 4750 
Q 2544 4750 2975 4387 
Q 3406 4025 3406 3419 
Q 3406 3131 3298 2873 
Q 3191 2616 2906 2266 
Q 2828 2175 2409 1742 
Q 1991 1309 1228 531 
z
" transform="scale(0.015625)"/>
       </defs>
       <use xlink:href="#DejaVuSans-32"/>
       <use xlink:href="#DejaVuSans-30" x="63.623047"/>
      </g>
     </g>
    </g>
    <g id="xtick_6">
     <g id="line2d_6">
      <g>
       <use xlink:href="#m9c63c17336" x="347.036836" y="471.309" style="stroke: #000000; stroke-width: 0.8"/>
      </g>
     </g>
     <g id="text_6">
      <!-- 25 -->
      <g transform="translate(336.856836 490.4665) scale(0.16 -0.16)">
       <use xlink:href="#DejaVuSans-32"/>
       <use xlink:href="#DejaVuSans-35" x="63.623047"/>
      </g>
     </g>
    </g>
    <g id="xtick_7">
     <g id="line2d_7">
      <g>
       <use xlink:href="#m9c63c17336" x="398.524022" y="471.309" style="stroke: #000000; stroke-width: 0.8"/>
      </g>
     </g>
     <g id="text_7">
      <!-- 30 -->
      <g transform="translate(388.344022 490.4665) scale(0.16 -0.16)">
       <defs>
        <path id="DejaVuSans-33" d="M 2597 2516 
Q 3050 2419 3304 2112 
Q 3559 1806 3559 1356 
Q 3559 666 3084 287 
Q 2609 -91 1734 -91 
Q 1441 -91 1130 -33 
Q 819 25 488 141 
L 488 750 
Q 750 597 1062 519 
Q 1375 441 1716 441 
Q 2309 441 2620 675 
Q 2931 909 2931 1356 
Q 2931 1769 2642 2001 
Q 2353 2234 1838 2234 
L 1294 2234 
L 1294 2753 
L 1863 2753 
Q 2328 2753 2575 2939 
Q 2822 3125 2822 3475 
Q 2822 3834 2567 4026 
Q 2313 4219 1838 4219 
Q 1578 4219 1281 4162 
Q 984 4106 628 3988 
L 628 4550 
Q 988 4650 1302 4700 
Q 1616 4750 1894 4750 
Q 2613 4750 3031 4423 
Q 3450 4097 3450 3541 
Q 3450 3153 3228 2886 
Q 3006 2619 2597 2516 
z
" transform="scale(0.015625)"/>
       </defs>
       <use xlink:href="#DejaVuSans-33"/>
       <use xlink:href="#DejaVuSans-30" x="63.623047"/>
      </g>
     </g>
    </g>
    <g id="xtick_8">
     <g id="line2d_8">
      <g>
       <use xlink:href="#m9c63c17336" x="450.011207" y="471.309" style="stroke: #000000; stroke-width: 0.8"/>
      </g>
     </g>
     <g id="text_8">
      <!-- 35 -->
      <g transform="translate(439.831207 490.4665) scale(0.16 -0.16)">
       <use xlink:href="#DejaVuSans-33"/>
       <use xlink:href="#DejaVuSans-35" x="63.623047"/>
      </g>
     </g>
    </g>
    <g id="xtick_9">
     <g id="line2d_9">
      <g>
       <use xlink:href="#m9c63c17336" x="501.498393" y="471.309" style="stroke: #000000; stroke-width: 0.8"/>
      </g>
     </g>
     <g id="text_9">
      <!-- 40 -->
      <g transform="translate(491.318393 490.4665) scale(0.16 -0.16)">
       <defs>
        <path id="DejaVuSans-34" d="M 2419 4116 
L 825 1625 
L 2419 1625 
L 2419 4116 
z
M 2253 4666 
L 3047 4666 
L 3047 1625 
L 3713 1625 
L 3713 1100 
L 3047 1100 
L 3047 0 
L 2419 0 
L 2419 1100 
L 313 1100 
L 313 1709 
L 2253 4666 
z
" transform="scale(0.015625)"/>
       </defs>
       <use xlink:href="#DejaVuSans-34"/>
       <use xlink:href="#DejaVuSans-30" x="63.623047"/>
      </g>
     </g>
    </g>
    <g id="text_10">
     <!-- Normalized eigen-spacing -->
     <g transform="translate(188.5775 509.9515) scale(0.16 -0.16)">
      <defs>
       <path id="DejaVuSans-4e" d="M 628 4666 
L 1478 4666 
L 3547 763 
L 3547 4666 
L 4159 4666 
L 4159 0 
L 3309 0 
L 1241 3903 
L 1241 0 
L 628 0 
L 628 4666 
z
" transform="scale(0.015625)"/>
       <path id="DejaVuSans-6f" d="M 1959 3097 
Q 1497 3097 1228 2736 
Q 959 2375 959 1747 
Q 959 1119 1226 758 
Q 1494 397 1959 397 
Q 2419 397 2687 759 
Q 2956 1122 2956 1747 
Q 2956 2369 2687 2733 
Q 2419 3097 1959 3097 
z
M 1959 3584 
Q 2709 3584 3137 3096 
Q 3566 2609 3566 1747 
Q 3566 888 3137 398 
Q 2709 -91 1959 -91 
Q 1206 -91 779 398 
Q 353 888 353 1747 
Q 353 2609 779 3096 
Q 1206 3584 1959 3584 
z
" transform="scale(0.015625)"/>
       <path id="DejaVuSans-72" d="M 2631 2963 
Q 2534 3019 2420 3045 
Q 2306 3072 2169 3072 
Q 1681 3072 1420 2755 
Q 1159 2438 1159 1844 
L 1159 0 
L 581 0 
L 581 3500 
L 1159 3500 
L 1159 2956 
Q 1341 3275 1631 3429 
Q 1922 3584 2338 3584 
Q 2397 3584 2469 3576 
Q 2541 3569 2628 3553 
L 2631 2963 
z
" transform="scale(0.015625)"/>
       <path id="DejaVuSans-6d" d="M 3328 2828 
Q 3544 3216 3844 3400 
Q 4144 3584 4550 3584 
Q 5097 3584 5394 3201 
Q 5691 2819 5691 2113 
L 5691 0 
L 5113 0 
L 5113 2094 
Q 5113 2597 4934 2840 
Q 4756 3084 4391 3084 
Q 3944 3084 3684 2787 
Q 3425 2491 3425 1978 
L 3425 0 
L 2847 0 
L 2847 2094 
Q 2847 2600 2669 2842 
Q 2491 3084 2119 3084 
Q 1678 3084 1418 2786 
Q 1159 2488 1159 1978 
L 1159 0 
L 581 0 
L 581 3500 
L 1159 3500 
L 1159 2956 
Q 1356 3278 1631 3431 
Q 1906 3584 2284 3584 
Q 2666 3584 2933 3390 
Q 3200 3197 3328 2828 
z
" transform="scale(0.015625)"/>
       <path id="DejaVuSans-61" d="M 2194 1759 
Q 1497 1759 1228 1600 
Q 959 1441 959 1056 
Q 959 750 1161 570 
Q 1363 391 1709 391 
Q 2188 391 2477 730 
Q 2766 1069 2766 1631 
L 2766 1759 
L 2194 1759 
z
M 3341 1997 
L 3341 0 
L 2766 0 
L 2766 531 
Q 2569 213 2275 61 
Q 1981 -91 1556 -91 
Q 1019 -91 701 211 
Q 384 513 384 1019 
Q 384 1609 779 1909 
Q 1175 2209 1959 2209 
L 2766 2209 
L 2766 2266 
Q 2766 2663 2505 2880 
Q 2244 3097 1772 3097 
Q 1472 3097 1187 3025 
Q 903 2953 641 2809 
L 641 3341 
Q 956 3463 1253 3523 
Q 1550 3584 1831 3584 
Q 2591 3584 2966 3190 
Q 3341 2797 3341 1997 
z
" transform="scale(0.015625)"/>
       <path id="DejaVuSans-6c" d="M 603 4863 
L 1178 4863 
L 1178 0 
L 603 0 
L 603 4863 
z
" transform="scale(0.015625)"/>
       <path id="DejaVuSans-69" d="M 603 3500 
L 1178 3500 
L 1178 0 
L 603 0 
L 603 3500 
z
M 603 4863 
L 1178 4863 
L 1178 4134 
L 603 4134 
L 603 4863 
z
" transform="scale(0.015625)"/>
       <path id="DejaVuSans-7a" d="M 353 3500 
L 3084 3500 
L 3084 2975 
L 922 459 
L 3084 459 
L 3084 0 
L 275 0 
L 275 525 
L 2438 3041 
L 353 3041 
L 353 3500 
z
" transform="scale(0.015625)"/>
       <path id="DejaVuSans-65" d="M 3597 1894 
L 3597 1613 
L 953 1613 
Q 991 1019 1311 708 
Q 1631 397 2203 397 
Q 2534 397 2845 478 
Q 3156 559 3463 722 
L 3463 178 
Q 3153 47 2828 -22 
Q 2503 -91 2169 -91 
Q 1331 -91 842 396 
Q 353 884 353 1716 
Q 353 2575 817 3079 
Q 1281 3584 2069 3584 
Q 2775 3584 3186 3129 
Q 3597 2675 3597 1894 
z
M 3022 2063 
Q 3016 2534 2758 2815 
Q 2500 3097 2075 3097 
Q 1594 3097 1305 2825 
Q 1016 2553 972 2059 
L 3022 2063 
z
" transform="scale(0.015625)"/>
       <path id="DejaVuSans-64" d="M 2906 2969 
L 2906 4863 
L 3481 4863 
L 3481 0 
L 2906 0 
L 2906 525 
Q 2725 213 2448 61 
Q 2172 -91 1784 -91 
Q 1150 -91 751 415 
Q 353 922 353 1747 
Q 353 2572 751 3078 
Q 1150 3584 1784 3584 
Q 2172 3584 2448 3432 
Q 2725 3281 2906 2969 
z
M 947 1747 
Q 947 1113 1208 752 
Q 1469 391 1925 391 
Q 2381 391 2643 752 
Q 2906 1113 2906 1747 
Q 2906 2381 2643 2742 
Q 2381 3103 1925 3103 
Q 1469 3103 1208 2742 
Q 947 2381 947 1747 
z
" transform="scale(0.015625)"/>
       <path id="DejaVuSans-20" transform="scale(0.015625)"/>
       <path id="DejaVuSans-67" d="M 2906 1791 
Q 2906 2416 2648 2759 
Q 2391 3103 1925 3103 
Q 1463 3103 1205 2759 
Q 947 2416 947 1791 
Q 947 1169 1205 825 
Q 1463 481 1925 481 
Q 2391 481 2648 825 
Q 2906 1169 2906 1791 
z
M 3481 434 
Q 3481 -459 3084 -895 
Q 2688 -1331 1869 -1331 
Q 1566 -1331 1297 -1286 
Q 1028 -1241 775 -1147 
L 775 -588 
Q 1028 -725 1275 -790 
Q 1522 -856 1778 -856 
Q 2344 -856 2625 -561 
Q 2906 -266 2906 331 
L 2906 616 
Q 2728 306 2450 153 
Q 2172 0 1784 0 
Q 1141 0 747 490 
Q 353 981 353 1791 
Q 353 2603 747 3093 
Q 1141 3584 1784 3584 
Q 2172 3584 2450 3431 
Q 2728 3278 2906 2969 
L 2906 3500 
L 3481 3500 
L 3481 434 
z
" transform="scale(0.015625)"/>
       <path id="DejaVuSans-6e" d="M 3513 2113 
L 3513 0 
L 2938 0 
L 2938 2094 
Q 2938 2591 2744 2837 
Q 2550 3084 2163 3084 
Q 1697 3084 1428 2787 
Q 1159 2491 1159 1978 
L 1159 0 
L 581 0 
L 581 3500 
L 1159 3500 
L 1159 2956 
Q 1366 3272 1645 3428 
Q 1925 3584 2291 3584 
Q 2894 3584 3203 3211 
Q 3513 2838 3513 2113 
z
" transform="scale(0.015625)"/>
       <path id="DejaVuSans-2d" d="M 313 2009 
L 1997 2009 
L 1997 1497 
L 313 1497 
L 313 2009 
z
" transform="scale(0.015625)"/>
       <path id="DejaVuSans-73" d="M 2834 3397 
L 2834 2853 
Q 2591 2978 2328 3040 
Q 2066 3103 1784 3103 
Q 1356 3103 1142 2972 
Q 928 2841 928 2578 
Q 928 2378 1081 2264 
Q 1234 2150 1697 2047 
L 1894 2003 
Q 2506 1872 2764 1633 
Q 3022 1394 3022 966 
Q 3022 478 2636 193 
Q 2250 -91 1575 -91 
Q 1294 -91 989 -36 
Q 684 19 347 128 
L 347 722 
Q 666 556 975 473 
Q 1284 391 1588 391 
Q 1994 391 2212 530 
Q 2431 669 2431 922 
Q 2431 1156 2273 1281 
Q 2116 1406 1581 1522 
L 1381 1569 
Q 847 1681 609 1914 
Q 372 2147 372 2553 
Q 372 3047 722 3315 
Q 1072 3584 1716 3584 
Q 2034 3584 2315 3537 
Q 2597 3491 2834 3397 
z
" transform="scale(0.015625)"/>
       <path id="DejaVuSans-70" d="M 1159 525 
L 1159 -1331 
L 581 -1331 
L 581 3500 
L 1159 3500 
L 1159 2969 
Q 1341 3281 1617 3432 
Q 1894 3584 2278 3584 
Q 2916 3584 3314 3078 
Q 3713 2572 3713 1747 
Q 3713 922 3314 415 
Q 2916 -91 2278 -91 
Q 1894 -91 1617 61 
Q 1341 213 1159 525 
z
M 3116 1747 
Q 3116 2381 2855 2742 
Q 2594 3103 2138 3103 
Q 1681 3103 1420 2742 
Q 1159 2381 1159 1747 
Q 1159 1113 1420 752 
Q 1681 391 2138 391 
Q 2594 391 2855 752 
Q 3116 1113 3116 1747 
z
" transform="scale(0.015625)"/>
       <path id="DejaVuSans-63" d="M 3122 3366 
L 3122 2828 
Q 2878 2963 2633 3030 
Q 2388 3097 2138 3097 
Q 1578 3097 1268 2742 
Q 959 2388 959 1747 
Q 959 1106 1268 751 
Q 1578 397 2138 397 
Q 2388 397 2633 464 
Q 2878 531 3122 666 
L 3122 134 
Q 2881 22 2623 -34 
Q 2366 -91 2075 -91 
Q 1284 -91 818 406 
Q 353 903 353 1747 
Q 353 2603 823 3093 
Q 1294 3584 2113 3584 
Q 2378 3584 2631 3529 
Q 2884 3475 3122 3366 
z
" transform="scale(0.015625)"/>
      </defs>
      <use xlink:href="#DejaVuSans-4e"/>
      <use xlink:href="#DejaVuSans-6f" x="74.804688"/>
      <use xlink:href="#DejaVuSans-72" x="135.986328"/>
      <use xlink:href="#DejaVuSans-6d" x="175.349609"/>
      <use xlink:href="#DejaVuSans-61" x="272.761719"/>
      <use xlink:href="#DejaVuSans-6c" x="334.041016"/>
      <use xlink:href="#DejaVuSans-69" x="361.824219"/>
      <use xlink:href="#DejaVuSans-7a" x="389.607422"/>
      <use xlink:href="#DejaVuSans-65" x="442.097656"/>
      <use xlink:href="#DejaVuSans-64" x="503.621094"/>
      <use xlink:href="#DejaVuSans-20" x="567.097656"/>
      <use xlink:href="#DejaVuSans-65" x="598.884766"/>
      <use xlink:href="#DejaVuSans-69" x="660.408203"/>
      <use xlink:href="#DejaVuSans-67" x="688.191406"/>
      <use xlink:href="#DejaVuSans-65" x="751.667969"/>
      <use xlink:href="#DejaVuSans-6e" x="813.191406"/>
      <use xlink:href="#DejaVuSans-2d" x="876.570312"/>
      <use xlink:href="#DejaVuSans-73" x="912.654297"/>
      <use xlink:href="#DejaVuSans-70" x="964.753906"/>
      <use xlink:href="#DejaVuSans-61" x="1028.230469"/>
      <use xlink:href="#DejaVuSans-63" x="1089.509766"/>
      <use xlink:href="#DejaVuSans-69" x="1144.490234"/>
      <use xlink:href="#DejaVuSans-6e" x="1172.273438"/>
      <use xlink:href="#DejaVuSans-67" x="1235.652344"/>
     </g>
    </g>
   </g>
   <g id="matplotlib.axis_2">
    <g id="ytick_1">
     <g id="line2d_10">
      <defs>
       <path id="ma23bff9344" d="M 0 0 
L -3.5 0 
" style="stroke: #000000; stroke-width: 0.8"/>
      </defs>
      <g>
       <use xlink:href="#ma23bff9344" x="69.31" y="471.309" style="stroke: #000000; stroke-width: 0.8"/>
      </g>
     </g>
     <g id="text_11">
      <!-- 0.00 -->
      <g transform="translate(26.685 477.38775) scale(0.16 -0.16)">
       <defs>
        <path id="DejaVuSans-2e" d="M 684 794 
L 1344 794 
L 1344 0 
L 684 0 
L 684 794 
z
" transform="scale(0.015625)"/>
       </defs>
       <use xlink:href="#DejaVuSans-30"/>
       <use xlink:href="#DejaVuSans-2e" x="63.623047"/>
       <use xlink:href="#DejaVuSans-30" x="95.410156"/>
       <use xlink:href="#DejaVuSans-30" x="159.033203"/>
      </g>
     </g>
    </g>
    <g id="ytick_2">
     <g id="line2d_11">
      <g>
       <use xlink:href="#ma23bff9344" x="69.31" y="419.797422" style="stroke: #000000; stroke-width: 0.8"/>
      </g>
     </g>
     <g id="text_12">
      <!-- 0.05 -->
      <g transform="translate(26.685 425.876172) scale(0.16 -0.16)">
       <use xlink:href="#DejaVuSans-30"/>
       <use xlink:href="#DejaVuSans-2e" x="63.623047"/>
       <use xlink:href="#DejaVuSans-30" x="95.410156"/>
       <use xlink:href="#DejaVuSans-35" x="159.033203"/>
      </g>
     </g>
    </g>
    <g id="ytick_3">
     <g id="line2d_12">
      <g>
       <use xlink:href="#ma23bff9344" x="69.31" y="368.285843" style="stroke: #000000; stroke-width: 0.8"/>
      </g>
     </g>
     <g id="text_13">
      <!-- 0.10 -->
      <g transform="translate(26.685 374.364593) scale(0.16 -0.16)">
       <use xlink:href="#DejaVuSans-30"/>
       <use xlink:href="#DejaVuSans-2e" x="63.623047"/>
       <use xlink:href="#DejaVuSans-31" x="95.410156"/>
       <use xlink:href="#DejaVuSans-30" x="159.033203"/>
      </g>
     </g>
    </g>
    <g id="ytick_4">
     <g id="line2d_13">
      <g>
       <use xlink:href="#ma23bff9344" x="69.31" y="316.774265" style="stroke: #000000; stroke-width: 0.8"/>
      </g>
     </g>
     <g id="text_14">
      <!-- 0.15 -->
      <g transform="translate(26.685 322.853015) scale(0.16 -0.16)">
       <use xlink:href="#DejaVuSans-30"/>
       <use xlink:href="#DejaVuSans-2e" x="63.623047"/>
       <use xlink:href="#DejaVuSans-31" x="95.410156"/>
       <use xlink:href="#DejaVuSans-35" x="159.033203"/>
      </g>
     </g>
    </g>
    <g id="ytick_5">
     <g id="line2d_14">
      <g>
       <use xlink:href="#ma23bff9344" x="69.31" y="265.262686" style="stroke: #000000; stroke-width: 0.8"/>
      </g>
     </g>
     <g id="text_15">
      <!-- 0.20 -->
      <g transform="translate(26.685 271.341436) scale(0.16 -0.16)">
       <use xlink:href="#DejaVuSans-30"/>
       <use xlink:href="#DejaVuSans-2e" x="63.623047"/>
       <use xlink:href="#DejaVuSans-32" x="95.410156"/>
       <use xlink:href="#DejaVuSans-30" x="159.033203"/>
      </g>
     </g>
    </g>
    <g id="ytick_6">
     <g id="line2d_15">
      <g>
       <use xlink:href="#ma23bff9344" x="69.31" y="213.751108" style="stroke: #000000; stroke-width: 0.8"/>
      </g>
     </g>
     <g id="text_16">
      <!-- 0.25 -->
      <g transform="translate(26.685 219.829858) scale(0.16 -0.16)">
       <use xlink:href="#DejaVuSans-30"/>
       <use xlink:href="#DejaVuSans-2e" x="63.623047"/>
       <use xlink:href="#DejaVuSans-32" x="95.410156"/>
       <use xlink:href="#DejaVuSans-35" x="159.033203"/>
      </g>
     </g>
    </g>
    <g id="ytick_7">
     <g id="line2d_16">
      <g>
       <use xlink:href="#ma23bff9344" x="69.31" y="162.239529" style="stroke: #000000; stroke-width: 0.8"/>
      </g>
     </g>
     <g id="text_17">
      <!-- 0.30 -->
      <g transform="translate(26.685 168.318279) scale(0.16 -0.16)">
       <use xlink:href="#DejaVuSans-30"/>
       <use xlink:href="#DejaVuSans-2e" x="63.623047"/>
       <use xlink:href="#DejaVuSans-33" x="95.410156"/>
       <use xlink:href="#DejaVuSans-30" x="159.033203"/>
      </g>
     </g>
    </g>
    <g id="ytick_8">
     <g id="line2d_17">
      <g>
       <use xlink:href="#ma23bff9344" x="69.31" y="110.727951" style="stroke: #000000; stroke-width: 0.8"/>
      </g>
     </g>
     <g id="text_18">
      <!-- 0.35 -->
      <g transform="translate(26.685 116.806701) scale(0.16 -0.16)">
       <use xlink:href="#DejaVuSans-30"/>
       <use xlink:href="#DejaVuSans-2e" x="63.623047"/>
       <use xlink:href="#DejaVuSans-33" x="95.410156"/>
       <use xlink:href="#DejaVuSans-35" x="159.033203"/>
      </g>
     </g>
    </g>
    <g id="ytick_9">
     <g id="line2d_18">
      <g>
       <use xlink:href="#ma23bff9344" x="69.31" y="59.216372" style="stroke: #000000; stroke-width: 0.8"/>
      </g>
     </g>
     <g id="text_19">
      <!-- 0.40 -->
      <g transform="translate(26.685 65.295122) scale(0.16 -0.16)">
       <use xlink:href="#DejaVuSans-30"/>
       <use xlink:href="#DejaVuSans-2e" x="63.623047"/>
       <use xlink:href="#DejaVuSans-34" x="95.410156"/>
       <use xlink:href="#DejaVuSans-30" x="159.033203"/>
      </g>
     </g>
    </g>
    <g id="text_20">
     <!-- Probability Density -->
     <g transform="translate(19.3575 324.7915) rotate(-90) scale(0.16 -0.16)">
      <defs>
       <path id="DejaVuSans-50" d="M 1259 4147 
L 1259 2394 
L 2053 2394 
Q 2494 2394 2734 2622 
Q 2975 2850 2975 3272 
Q 2975 3691 2734 3919 
Q 2494 4147 2053 4147 
L 1259 4147 
z
M 628 4666 
L 2053 4666 
Q 2838 4666 3239 4311 
Q 3641 3956 3641 3272 
Q 3641 2581 3239 2228 
Q 2838 1875 2053 1875 
L 1259 1875 
L 1259 0 
L 628 0 
L 628 4666 
z
" transform="scale(0.015625)"/>
       <path id="DejaVuSans-62" d="M 3116 1747 
Q 3116 2381 2855 2742 
Q 2594 3103 2138 3103 
Q 1681 3103 1420 2742 
Q 1159 2381 1159 1747 
Q 1159 1113 1420 752 
Q 1681 391 2138 391 
Q 2594 391 2855 752 
Q 3116 1113 3116 1747 
z
M 1159 2969 
Q 1341 3281 1617 3432 
Q 1894 3584 2278 3584 
Q 2916 3584 3314 3078 
Q 3713 2572 3713 1747 
Q 3713 922 3314 415 
Q 2916 -91 2278 -91 
Q 1894 -91 1617 61 
Q 1341 213 1159 525 
L 1159 0 
L 581 0 
L 581 4863 
L 1159 4863 
L 1159 2969 
z
" transform="scale(0.015625)"/>
       <path id="DejaVuSans-74" d="M 1172 4494 
L 1172 3500 
L 2356 3500 
L 2356 3053 
L 1172 3053 
L 1172 1153 
Q 1172 725 1289 603 
Q 1406 481 1766 481 
L 2356 481 
L 2356 0 
L 1766 0 
Q 1100 0 847 248 
Q 594 497 594 1153 
L 594 3053 
L 172 3053 
L 172 3500 
L 594 3500 
L 594 4494 
L 1172 4494 
z
" transform="scale(0.015625)"/>
       <path id="DejaVuSans-79" d="M 2059 -325 
Q 1816 -950 1584 -1140 
Q 1353 -1331 966 -1331 
L 506 -1331 
L 506 -850 
L 844 -850 
Q 1081 -850 1212 -737 
Q 1344 -625 1503 -206 
L 1606 56 
L 191 3500 
L 800 3500 
L 1894 763 
L 2988 3500 
L 3597 3500 
L 2059 -325 
z
" transform="scale(0.015625)"/>
       <path id="DejaVuSans-44" d="M 1259 4147 
L 1259 519 
L 2022 519 
Q 2988 519 3436 956 
Q 3884 1394 3884 2338 
Q 3884 3275 3436 3711 
Q 2988 4147 2022 4147 
L 1259 4147 
z
M 628 4666 
L 1925 4666 
Q 3281 4666 3915 4102 
Q 4550 3538 4550 2338 
Q 4550 1131 3912 565 
Q 3275 0 1925 0 
L 628 0 
L 628 4666 
z
" transform="scale(0.015625)"/>
      </defs>
      <use xlink:href="#DejaVuSans-50"/>
      <use xlink:href="#DejaVuSans-72" x="58.552734"/>
      <use xlink:href="#DejaVuSans-6f" x="97.416016"/>
      <use xlink:href="#DejaVuSans-62" x="158.597656"/>
      <use xlink:href="#DejaVuSans-61" x="222.074219"/>
      <use xlink:href="#DejaVuSans-62" x="283.353516"/>
      <use xlink:href="#DejaVuSans-69" x="346.830078"/>
      <use xlink:href="#DejaVuSans-6c" x="374.613281"/>
      <use xlink:href="#DejaVuSans-69" x="402.396484"/>
      <use xlink:href="#DejaVuSans-74" x="430.179688"/>
      <use xlink:href="#DejaVuSans-79" x="469.388672"/>
      <use xlink:href="#DejaVuSans-20" x="528.568359"/>
      <use xlink:href="#DejaVuSans-44" x="560.355469"/>
      <use xlink:href="#DejaVuSans-65" x="637.357422"/>
      <use xlink:href="#DejaVuSans-6e" x="698.880859"/>
      <use xlink:href="#DejaVuSans-73" x="762.259766"/>
      <use xlink:href="#DejaVuSans-69" x="814.359375"/>
      <use xlink:href="#DejaVuSans-74" x="842.142578"/>
      <use xlink:href="#DejaVuSans-79" x="881.351562"/>
     </g>
    </g>
   </g>
   <g id="LineCollection_1">
    <path d="M 104.094443 131.140434 
L 104.094443 128.893938 
" clip-path="url(#p03ba76cedf)" style="fill: none; stroke: #000000; stroke-width: 1.5"/>
    <path d="M 133.081454 455.020479 
L 133.081454 454.525992 
" clip-path="url(#p03ba76cedf)" style="fill: none; stroke: #000000; stroke-width: 1.5"/>
    <path d="M 162.068465 467.113842 
L 162.068465 466.861051 
" clip-path="url(#p03ba76cedf)" style="fill: none; stroke: #000000; stroke-width: 1.5"/>
    <path d="M 191.055476 469.521579 
L 191.055476 469.355264 
" clip-path="url(#p03ba76cedf)" style="fill: none; stroke: #000000; stroke-width: 1.5"/>
    <path d="M 220.042487 470.418188 
L 220.042487 470.29966 
" clip-path="url(#p03ba76cedf)" style="fill: none; stroke: #000000; stroke-width: 1.5"/>
    <path d="M 249.029498 470.824566 
L 249.029498 470.736151 
" clip-path="url(#p03ba76cedf)" style="fill: none; stroke: #000000; stroke-width: 1.5"/>
    <path d="M 278.016509 471.105444 
L 278.016509 471.04676 
" clip-path="url(#p03ba76cedf)" style="fill: none; stroke: #000000; stroke-width: 1.5"/>
    <path d="M 307.00352 471.174279 
L 307.00352 471.125796 
" clip-path="url(#p03ba76cedf)" style="fill: none; stroke: #000000; stroke-width: 1.5"/>
    <path d="M 335.990531 471.277445 
L 335.990531 471.251832 
" clip-path="url(#p03ba76cedf)" style="fill: none; stroke: #000000; stroke-width: 1.5"/>
    <path d="M 364.977542 471.295874 
L 364.977542 471.277764 
" clip-path="url(#p03ba76cedf)" style="fill: none; stroke: #000000; stroke-width: 1.5"/>
    <path d="M 393.964553 471.306834 
L 393.964553 471.296378 
" clip-path="url(#p03ba76cedf)" style="fill: none; stroke: #000000; stroke-width: 1.5"/>
    <path d="M 422.951564 471.306834 
L 422.951564 471.296378 
" clip-path="url(#p03ba76cedf)" style="fill: none; stroke: #000000; stroke-width: 1.5"/>
    <path d="M 451.938574 471.309 
L 451.938574 471.301606 
" clip-path="url(#p03ba76cedf)" style="fill: none; stroke: #000000; stroke-width: 1.5"/>
    <path d="M 480.925585 471.306834 
L 480.925585 471.296378 
" clip-path="url(#p03ba76cedf)" style="fill: none; stroke: #000000; stroke-width: 1.5"/>
   </g>
   <g id="line2d_19">
    <defs>
     <path id="m9faaf6e5b6" d="M 3 0 
L -3 -0 
" style="stroke: #000000"/>
    </defs>
    <g clip-path="url(#p03ba76cedf)">
     <use xlink:href="#m9faaf6e5b6" x="104.094443" y="131.140434" style="stroke: #000000"/>
     <use xlink:href="#m9faaf6e5b6" x="133.081454" y="455.020479" style="stroke: #000000"/>
     <use xlink:href="#m9faaf6e5b6" x="162.068465" y="467.113842" style="stroke: #000000"/>
     <use xlink:href="#m9faaf6e5b6" x="191.055476" y="469.521579" style="stroke: #000000"/>
     <use xlink:href="#m9faaf6e5b6" x="220.042487" y="470.418188" style="stroke: #000000"/>
     <use xlink:href="#m9faaf6e5b6" x="249.029498" y="470.824566" style="stroke: #000000"/>
     <use xlink:href="#m9faaf6e5b6" x="278.016509" y="471.105444" style="stroke: #000000"/>
     <use xlink:href="#m9faaf6e5b6" x="307.00352" y="471.174279" style="stroke: #000000"/>
     <use xlink:href="#m9faaf6e5b6" x="335.990531" y="471.277445" style="stroke: #000000"/>
     <use xlink:href="#m9faaf6e5b6" x="364.977542" y="471.295874" style="stroke: #000000"/>
     <use xlink:href="#m9faaf6e5b6" x="393.964553" y="471.306834" style="stroke: #000000"/>
     <use xlink:href="#m9faaf6e5b6" x="422.951564" y="471.306834" style="stroke: #000000"/>
     <use xlink:href="#m9faaf6e5b6" x="451.938574" y="471.309" style="stroke: #000000"/>
     <use xlink:href="#m9faaf6e5b6" x="480.925585" y="471.306834" style="stroke: #000000"/>
    </g>
   </g>
   <g id="line2d_20">
    <g clip-path="url(#p03ba76cedf)">
     <use xlink:href="#m9faaf6e5b6" x="104.094443" y="128.893938" style="stroke: #000000"/>
     <use xlink:href="#m9faaf6e5b6" x="133.081454" y="454.525992" style="stroke: #000000"/>
     <use xlink:href="#m9faaf6e5b6" x="162.068465" y="466.861051" style="stroke: #000000"/>
     <use xlink:href="#m9faaf6e5b6" x="191.055476" y="469.355264" style="stroke: #000000"/>
     <use xlink:href="#m9faaf6e5b6" x="220.042487" y="470.29966" style="stroke: #000000"/>
     <use xlink:href="#m9faaf6e5b6" x="249.029498" y="470.736151" style="stroke: #000000"/>
     <use xlink:href="#m9faaf6e5b6" x="278.016509" y="471.04676" style="stroke: #000000"/>
     <use xlink:href="#m9faaf6e5b6" x="307.00352" y="471.125796" style="stroke: #000000"/>
     <use xlink:href="#m9faaf6e5b6" x="335.990531" y="471.251832" style="stroke: #000000"/>
     <use xlink:href="#m9faaf6e5b6" x="364.977542" y="471.277764" style="stroke: #000000"/>
     <use xlink:href="#m9faaf6e5b6" x="393.964553" y="471.296378" style="stroke: #000000"/>
     <use xlink:href="#m9faaf6e5b6" x="422.951564" y="471.296378" style="stroke: #000000"/>
     <use xlink:href="#m9faaf6e5b6" x="451.938574" y="471.301606" style="stroke: #000000"/>
     <use xlink:href="#m9faaf6e5b6" x="480.925585" y="471.296378" style="stroke: #000000"/>
    </g>
   </g>
   <g id="line2d_21">
    <path d="M 89.600909 92.307986 
L 90.632716 74.871675 
L 91.458162 64.333939 
L 92.283608 56.65464 
L 92.902693 52.674486 
L 93.521777 50.144244 
L 93.9345 49.229492 
L 94.347223 48.909 
L 94.553584 48.965333 
L 94.966307 49.498622 
L 95.37903 50.576024 
L 95.998114 53.168464 
L 96.617199 56.872332 
L 97.442645 63.422705 
L 98.474452 73.975541 
L 99.506259 86.863491 
L 100.744428 104.970101 
L 102.39532 132.70481 
L 104.665296 175.360584 
L 110.237056 282.530583 
L 112.094309 313.039165 
L 113.951562 339.82789 
L 115.602454 360.714878 
L 117.253345 379.027577 
L 118.904237 394.937686 
L 120.555129 408.616902 
L 121.999659 418.89557 
L 123.444189 427.737009 
L 124.88872 435.279561 
L 126.33325 441.661569 
L 127.77778 447.021376 
L 129.22231 451.497323 
L 130.666841 455.227754 
L 132.111371 458.341538 
L 133.555901 460.918492 
L 135.000431 463.022597 
L 136.444962 464.717832 
L 137.889492 466.068171 
L 139.334022 467.13759 
L 140.984914 468.097869 
L 143.048528 469.025053 
L 145.112143 469.711053 
L 147.382119 470.241133 
L 150.27118 470.668053 
L 154.192048 470.997079 
L 159.351084 471.194293 
L 169.256434 471.292526 
L 192.57528 471.308896 
L 192.57528 471.308896 
" clip-path="url(#p03ba76cedf)" style="fill: none; stroke: #0000ff; stroke-width: 1.5; stroke-linecap: square"/>
   </g>
   <g id="line2d_22">
    <defs>
     <path id="m3641b3bb8a" d="M 0 1.5 
C 0.397805 1.5 0.77937 1.341951 1.06066 1.06066 
C 1.341951 0.77937 1.5 0.397805 1.5 0 
C 1.5 -0.397805 1.341951 -0.77937 1.06066 -1.06066 
C 0.77937 -1.341951 0.397805 -1.5 0 -1.5 
C -0.397805 -1.5 -0.77937 -1.341951 -1.06066 -1.06066 
C -1.341951 -0.77937 -1.5 -0.397805 -1.5 0 
C -1.5 0.397805 -1.341951 0.77937 -1.06066 1.06066 
C -0.77937 1.341951 -0.397805 1.5 0 1.5 
z
" style="stroke: #000000"/>
    </defs>
    <g clip-path="url(#p03ba76cedf)">
     <use xlink:href="#m3641b3bb8a" x="104.094443" y="130.017186" style="stroke: #000000"/>
     <use xlink:href="#m3641b3bb8a" x="133.081454" y="454.773236" style="stroke: #000000"/>
     <use xlink:href="#m3641b3bb8a" x="162.068465" y="466.987447" style="stroke: #000000"/>
     <use xlink:href="#m3641b3bb8a" x="191.055476" y="469.438422" style="stroke: #000000"/>
     <use xlink:href="#m3641b3bb8a" x="220.042487" y="470.358924" style="stroke: #000000"/>
     <use xlink:href="#m3641b3bb8a" x="249.029498" y="470.780358" style="stroke: #000000"/>
     <use xlink:href="#m3641b3bb8a" x="278.016509" y="471.076102" style="stroke: #000000"/>
     <use xlink:href="#m3641b3bb8a" x="307.00352" y="471.150038" style="stroke: #000000"/>
     <use xlink:href="#m3641b3bb8a" x="335.990531" y="471.264638" style="stroke: #000000"/>
     <use xlink:href="#m3641b3bb8a" x="364.977542" y="471.286819" style="stroke: #000000"/>
     <use xlink:href="#m3641b3bb8a" x="393.964553" y="471.301606" style="stroke: #000000"/>
     <use xlink:href="#m3641b3bb8a" x="422.951564" y="471.301606" style="stroke: #000000"/>
     <use xlink:href="#m3641b3bb8a" x="451.938574" y="471.305303" style="stroke: #000000"/>
     <use xlink:href="#m3641b3bb8a" x="480.925585" y="471.301606" style="stroke: #000000"/>
    </g>
   </g>
   <g id="patch_17">
    <path d="M 69.31 471.309 
L 69.31 27.789 
" style="fill: none; stroke: #000000; stroke-width: 0.8; stroke-linejoin: miter; stroke-linecap: square"/>
   </g>
   <g id="patch_18">
    <path d="M 515.71 471.309 
L 515.71 27.789 
" style="fill: none; stroke: #000000; stroke-width: 0.8; stroke-linejoin: miter; stroke-linecap: square"/>
   </g>
   <g id="patch_19">
    <path d="M 69.31 471.309 
L 515.71 471.309 
" style="fill: none; stroke: #000000; stroke-width: 0.8; stroke-linejoin: miter; stroke-linecap: square"/>
   </g>
   <g id="patch_20">
    <path d="M 69.31 27.789 
L 515.71 27.789 
" style="fill: none; stroke: #000000; stroke-width: 0.8; stroke-linejoin: miter; stroke-linecap: square"/>
   </g>
   <g id="text_21">
    <!-- Spacing distribution - Random diagonal -->
    <g transform="translate(102.952 21.789) scale(0.192 -0.192)">
     <defs>
      <path id="DejaVuSans-53" d="M 3425 4513 
L 3425 3897 
Q 3066 4069 2747 4153 
Q 2428 4238 2131 4238 
Q 1616 4238 1336 4038 
Q 1056 3838 1056 3469 
Q 1056 3159 1242 3001 
Q 1428 2844 1947 2747 
L 2328 2669 
Q 3034 2534 3370 2195 
Q 3706 1856 3706 1288 
Q 3706 609 3251 259 
Q 2797 -91 1919 -91 
Q 1588 -91 1214 -16 
Q 841 59 441 206 
L 441 856 
Q 825 641 1194 531 
Q 1563 422 1919 422 
Q 2459 422 2753 634 
Q 3047 847 3047 1241 
Q 3047 1584 2836 1778 
Q 2625 1972 2144 2069 
L 1759 2144 
Q 1053 2284 737 2584 
Q 422 2884 422 3419 
Q 422 4038 858 4394 
Q 1294 4750 2059 4750 
Q 2388 4750 2728 4690 
Q 3069 4631 3425 4513 
z
" transform="scale(0.015625)"/>
      <path id="DejaVuSans-75" d="M 544 1381 
L 544 3500 
L 1119 3500 
L 1119 1403 
Q 1119 906 1312 657 
Q 1506 409 1894 409 
Q 2359 409 2629 706 
Q 2900 1003 2900 1516 
L 2900 3500 
L 3475 3500 
L 3475 0 
L 2900 0 
L 2900 538 
Q 2691 219 2414 64 
Q 2138 -91 1772 -91 
Q 1169 -91 856 284 
Q 544 659 544 1381 
z
M 1991 3584 
L 1991 3584 
z
" transform="scale(0.015625)"/>
      <path id="DejaVuSans-52" d="M 2841 2188 
Q 3044 2119 3236 1894 
Q 3428 1669 3622 1275 
L 4263 0 
L 3584 0 
L 2988 1197 
Q 2756 1666 2539 1819 
Q 2322 1972 1947 1972 
L 1259 1972 
L 1259 0 
L 628 0 
L 628 4666 
L 2053 4666 
Q 2853 4666 3247 4331 
Q 3641 3997 3641 3322 
Q 3641 2881 3436 2590 
Q 3231 2300 2841 2188 
z
M 1259 4147 
L 1259 2491 
L 2053 2491 
Q 2509 2491 2742 2702 
Q 2975 2913 2975 3322 
Q 2975 3731 2742 3939 
Q 2509 4147 2053 4147 
L 1259 4147 
z
" transform="scale(0.015625)"/>
     </defs>
     <use xlink:href="#DejaVuSans-53"/>
     <use xlink:href="#DejaVuSans-70" x="63.476562"/>
     <use xlink:href="#DejaVuSans-61" x="126.953125"/>
     <use xlink:href="#DejaVuSans-63" x="188.232422"/>
     <use xlink:href="#DejaVuSans-69" x="243.212891"/>
     <use xlink:href="#DejaVuSans-6e" x="270.996094"/>
     <use xlink:href="#DejaVuSans-67" x="334.375"/>
     <use xlink:href="#DejaVuSans-20" x="397.851562"/>
     <use xlink:href="#DejaVuSans-64" x="429.638672"/>
     <use xlink:href="#DejaVuSans-69" x="493.115234"/>
     <use xlink:href="#DejaVuSans-73" x="520.898438"/>
     <use xlink:href="#DejaVuSans-74" x="572.998047"/>
     <use xlink:href="#DejaVuSans-72" x="612.207031"/>
     <use xlink:href="#DejaVuSans-69" x="653.320312"/>
     <use xlink:href="#DejaVuSans-62" x="681.103516"/>
     <use xlink:href="#DejaVuSans-75" x="744.580078"/>
     <use xlink:href="#DejaVuSans-74" x="807.958984"/>
     <use xlink:href="#DejaVuSans-69" x="847.167969"/>
     <use xlink:href="#DejaVuSans-6f" x="874.951172"/>
     <use xlink:href="#DejaVuSans-6e" x="936.132812"/>
     <use xlink:href="#DejaVuSans-20" x="999.511719"/>
     <use xlink:href="#DejaVuSans-2d" x="1031.298828"/>
     <use xlink:href="#DejaVuSans-20" x="1067.382812"/>
     <use xlink:href="#DejaVuSans-52" x="1099.169922"/>
     <use xlink:href="#DejaVuSans-61" x="1166.402344"/>
     <use xlink:href="#DejaVuSans-6e" x="1227.681641"/>
     <use xlink:href="#DejaVuSans-64" x="1291.060547"/>
     <use xlink:href="#DejaVuSans-6f" x="1354.537109"/>
     <use xlink:href="#DejaVuSans-6d" x="1415.71875"/>
     <use xlink:href="#DejaVuSans-20" x="1513.130859"/>
     <use xlink:href="#DejaVuSans-64" x="1544.917969"/>
     <use xlink:href="#DejaVuSans-69" x="1608.394531"/>
     <use xlink:href="#DejaVuSans-61" x="1636.177734"/>
     <use xlink:href="#DejaVuSans-67" x="1697.457031"/>
     <use xlink:href="#DejaVuSans-6f" x="1760.933594"/>
     <use xlink:href="#DejaVuSans-6e" x="1822.115234"/>
     <use xlink:href="#DejaVuSans-61" x="1885.494141"/>
     <use xlink:href="#DejaVuSans-6c" x="1946.773438"/>
    </g>
   </g>
   <g id="legend_1">
    <g id="patch_21">
     <path d="M 243.07 64.074 
L 504.51 64.074 
Q 507.71 64.074 507.71 60.874 
L 507.71 38.989 
Q 507.71 35.789 504.51 35.789 
L 243.07 35.789 
Q 239.87 35.789 239.87 38.989 
L 239.87 60.874 
Q 239.87 64.074 243.07 64.074 
z
" style="fill: #ffffff; opacity: 0.8; stroke: #cccccc; stroke-linejoin: miter"/>
    </g>
    <g id="line2d_23">
     <path d="M 246.27 48.7465 
L 262.27 48.7465 
L 278.27 48.7465 
" style="fill: none; stroke: #0000ff; stroke-width: 1.5; stroke-linecap: square"/>
    </g>
    <g id="text_22">
     <!-- Poisson distribution $\lambda$=1.0 -->
     <g transform="translate(291.07 54.3465) scale(0.16 -0.16)">
      <defs>
       <path id="DejaVuSans-Oblique-3bb" d="M 2350 4316 
L 3125 0 
L 2516 0 
L 2038 2588 
L 328 0 
L -281 0 
L 1903 3356 
L 1794 3975 
Q 1725 4369 1391 4369 
L 1091 4369 
L 1184 4863 
L 1550 4856 
Q 2253 4847 2350 4316 
z
" transform="scale(0.015625)"/>
       <path id="DejaVuSans-3d" d="M 678 2906 
L 4684 2906 
L 4684 2381 
L 678 2381 
L 678 2906 
z
M 678 1631 
L 4684 1631 
L 4684 1100 
L 678 1100 
L 678 1631 
z
" transform="scale(0.015625)"/>
      </defs>
      <use xlink:href="#DejaVuSans-50" transform="translate(0 0.015625)"/>
      <use xlink:href="#DejaVuSans-6f" transform="translate(60.302734 0.015625)"/>
      <use xlink:href="#DejaVuSans-69" transform="translate(121.484375 0.015625)"/>
      <use xlink:href="#DejaVuSans-73" transform="translate(149.267578 0.015625)"/>
      <use xlink:href="#DejaVuSans-73" transform="translate(201.367188 0.015625)"/>
      <use xlink:href="#DejaVuSans-6f" transform="translate(253.466797 0.015625)"/>
      <use xlink:href="#DejaVuSans-6e" transform="translate(314.648438 0.015625)"/>
      <use xlink:href="#DejaVuSans-20" transform="translate(378.027344 0.015625)"/>
      <use xlink:href="#DejaVuSans-64" transform="translate(409.814453 0.015625)"/>
      <use xlink:href="#DejaVuSans-69" transform="translate(473.291016 0.015625)"/>
      <use xlink:href="#DejaVuSans-73" transform="translate(501.074219 0.015625)"/>
      <use xlink:href="#DejaVuSans-74" transform="translate(553.173828 0.015625)"/>
      <use xlink:href="#DejaVuSans-72" transform="translate(592.382812 0.015625)"/>
      <use xlink:href="#DejaVuSans-69" transform="translate(633.496094 0.015625)"/>
      <use xlink:href="#DejaVuSans-62" transform="translate(661.279297 0.015625)"/>
      <use xlink:href="#DejaVuSans-75" transform="translate(724.755859 0.015625)"/>
      <use xlink:href="#DejaVuSans-74" transform="translate(788.134766 0.015625)"/>
      <use xlink:href="#DejaVuSans-69" transform="translate(827.34375 0.015625)"/>
      <use xlink:href="#DejaVuSans-6f" transform="translate(855.126953 0.015625)"/>
      <use xlink:href="#DejaVuSans-6e" transform="translate(916.308594 0.015625)"/>
      <use xlink:href="#DejaVuSans-20" transform="translate(979.6875 0.015625)"/>
      <use xlink:href="#DejaVuSans-Oblique-3bb" transform="translate(1011.474609 0.015625)"/>
      <use xlink:href="#DejaVuSans-3d" transform="translate(1070.654297 0.015625)"/>
      <use xlink:href="#DejaVuSans-31" transform="translate(1154.443359 0.015625)"/>
      <use xlink:href="#DejaVuSans-2e" transform="translate(1218.066406 0.015625)"/>
      <use xlink:href="#DejaVuSans-30" transform="translate(1249.853516 0.015625)"/>
     </g>
    </g>
   </g>
  </g>
 </g>
 <defs>
  <clipPath id="p03ba76cedf">
   <rect x="69.31" y="27.789" width="446.4" height="443.52"/>
  </clipPath>
 </defs>
</svg>
