<?xml version="1.0" encoding="utf-8" standalone="no"?>
<!DOCTYPE svg PUBLIC "-//W3C//DTD SVG 1.1//EN"
  "http://www.w3.org/Graphics/SVG/1.1/DTD/svg11.dtd">
<svg xmlns:xlink="http://www.w3.org/1999/xlink" width="669.370625pt" height="660.378875pt" viewBox="0 0 669.370625 660.378875" xmlns="http://www.w3.org/2000/svg" version="1.1">
 <metadata>
  <rdf:RDF xmlns:dc="http://purl.org/dc/elements/1.1/" xmlns:cc="http://creativecommons.org/ns#" xmlns:rdf="http://www.w3.org/1999/02/22-rdf-syntax-ns#">
   <cc:Work>
    <dc:type rdf:resource="http://purl.org/dc/dcmitype/StillImage"/>
    <dc:date>2024-11-25T18:41:27.166355</dc:date>
    <dc:format>image/svg+xml</dc:format>
    <dc:creator>
     <cc:Agent>
      <dc:title>Matplotlib v3.9.0, https://matplotlib.org/</dc:title>
     </cc:Agent>
    </dc:creator>
   </cc:Work>
  </rdf:RDF>
 </metadata>
 <defs>
  <style type="text/css">*{stroke-linejoin: round; stroke-linecap: butt}</style>
 </defs>
 <g id="figure_1">
  <g id="patch_1">
   <path d="M 0 660.378875 
L 669.370625 660.378875 
L 669.370625 0 
L 0 0 
z
" style="fill: #ffffff"/>
  </g>
  <g id="axes_1">
   <g id="patch_2">
    <path d="M 104.170625 591.79575 
L 662.170625 591.79575 
L 662.170625 37.39575 
L 104.170625 37.39575 
z
" style="fill: #ffffff"/>
   </g>
   <g id="PathCollection_1">
    <defs>
     <path id="m364930ed44" d="M 0 2.236068 
C 0.593012 2.236068 1.161816 2.000462 1.581139 1.581139 
C 2.000462 1.161816 2.236068 0.593012 2.236068 0 
C 2.236068 -0.593012 2.000462 -1.161816 1.581139 -1.581139 
C 1.161816 -2.000462 0.593012 -2.236068 0 -2.236068 
C -0.593012 -2.236068 -1.161816 -2.000462 -1.581139 -1.581139 
C -2.000462 -1.161816 -2.236068 -0.593012 -2.236068 0 
C -2.236068 0.593012 -2.000462 1.161816 -1.581139 1.581139 
C -1.161816 2.000462 -0.593012 2.236068 0 2.236068 
z
" style="stroke: #e41a1c"/>
    </defs>
    <g clip-path="url(#pd345315b53)">
     <use xlink:href="#m364930ed44" x="129.534261" y="565.179306" style="fill: #e41a1c; stroke: #e41a1c"/>
     <use xlink:href="#m364930ed44" x="156.232826" y="562.257188" style="fill: #e41a1c; stroke: #e41a1c"/>
     <use xlink:href="#m364930ed44" x="182.931391" y="559.660626" style="fill: #e41a1c; stroke: #e41a1c"/>
     <use xlink:href="#m364930ed44" x="209.629955" y="557.38972" style="fill: #e41a1c; stroke: #e41a1c"/>
     <use xlink:href="#m364930ed44" x="236.32852" y="555.444567" style="fill: #e41a1c; stroke: #e41a1c"/>
     <use xlink:href="#m364930ed44" x="263.027084" y="553.825266" style="fill: #e41a1c; stroke: #e41a1c"/>
     <use xlink:href="#m364930ed44" x="289.725649" y="552.531914" style="fill: #e41a1c; stroke: #e41a1c"/>
     <use xlink:href="#m364930ed44" x="316.424214" y="551.56461" style="fill: #e41a1c; stroke: #e41a1c"/>
     <use xlink:href="#m364930ed44" x="343.122778" y="550.923453" style="fill: #e41a1c; stroke: #e41a1c"/>
     <use xlink:href="#m364930ed44" x="369.821343" y="550.608541" style="fill: #e41a1c; stroke: #e41a1c"/>
     <use xlink:href="#m364930ed44" x="396.519907" y="550.619973" style="fill: #e41a1c; stroke: #e41a1c"/>
     <use xlink:href="#m364930ed44" x="423.218472" y="550.957848" style="fill: #e41a1c; stroke: #e41a1c"/>
     <use xlink:href="#m364930ed44" x="449.917036" y="551.622264" style="fill: #e41a1c; stroke: #e41a1c"/>
     <use xlink:href="#m364930ed44" x="476.615601" y="552.613321" style="fill: #e41a1c; stroke: #e41a1c"/>
     <use xlink:href="#m364930ed44" x="503.314166" y="553.931118" style="fill: #e41a1c; stroke: #e41a1c"/>
     <use xlink:href="#m364930ed44" x="530.01273" y="555.575754" style="fill: #e41a1c; stroke: #e41a1c"/>
     <use xlink:href="#m364930ed44" x="556.711295" y="557.547328" style="fill: #e41a1c; stroke: #e41a1c"/>
     <use xlink:href="#m364930ed44" x="583.409859" y="559.84594" style="fill: #e41a1c; stroke: #e41a1c"/>
     <use xlink:href="#m364930ed44" x="610.108424" y="562.471689" style="fill: #e41a1c; stroke: #e41a1c"/>
     <use xlink:href="#m364930ed44" x="636.806989" y="565.424675" style="fill: #e41a1c; stroke: #e41a1c"/>
    </g>
   </g>
   <g id="PathCollection_2">
    <defs>
     <path id="m06aef644d3" d="M 0 2.236068 
C 0.593012 2.236068 1.161816 2.000462 1.581139 1.581139 
C 2.000462 1.161816 2.236068 0.593012 2.236068 0 
C 2.236068 -0.593012 2.000462 -1.161816 1.581139 -1.581139 
C 1.161816 -2.000462 0.593012 -2.236068 0 -2.236068 
C -0.593012 -2.236068 -1.161816 -2.000462 -1.581139 -1.581139 
C -2.000462 -1.161816 -2.236068 -0.593012 -2.236068 0 
C -2.236068 0.593012 -2.000462 1.161816 -1.581139 1.581139 
C -1.161816 2.000462 -0.593012 2.236068 0 2.236068 
z
" style="stroke: #377eb8"/>
    </defs>
    <g clip-path="url(#pd345315b53)">
     <use xlink:href="#m06aef644d3" x="129.534261" y="565.930954" style="fill: #377eb8; stroke: #377eb8"/>
     <use xlink:href="#m06aef644d3" x="156.232826" y="564.389977" style="fill: #377eb8; stroke: #377eb8"/>
     <use xlink:href="#m06aef644d3" x="182.931391" y="562.930198" style="fill: #377eb8; stroke: #377eb8"/>
     <use xlink:href="#m06aef644d3" x="209.629955" y="561.551624" style="fill: #377eb8; stroke: #377eb8"/>
     <use xlink:href="#m06aef644d3" x="236.32852" y="560.254262" style="fill: #377eb8; stroke: #377eb8"/>
     <use xlink:href="#m06aef644d3" x="263.027084" y="559.038116" style="fill: #377eb8; stroke: #377eb8"/>
     <use xlink:href="#m06aef644d3" x="289.725649" y="557.903194" style="fill: #377eb8; stroke: #377eb8"/>
     <use xlink:href="#m06aef644d3" x="316.424214" y="556.849502" style="fill: #377eb8; stroke: #377eb8"/>
     <use xlink:href="#m06aef644d3" x="343.122778" y="555.877044" style="fill: #377eb8; stroke: #377eb8"/>
     <use xlink:href="#m06aef644d3" x="369.821343" y="554.985829" style="fill: #377eb8; stroke: #377eb8"/>
     <use xlink:href="#m06aef644d3" x="396.519907" y="554.175861" style="fill: #377eb8; stroke: #377eb8"/>
     <use xlink:href="#m06aef644d3" x="423.218472" y="553.447147" style="fill: #377eb8; stroke: #377eb8"/>
     <use xlink:href="#m06aef644d3" x="449.917036" y="552.799693" style="fill: #377eb8; stroke: #377eb8"/>
     <use xlink:href="#m06aef644d3" x="476.615601" y="552.233505" style="fill: #377eb8; stroke: #377eb8"/>
     <use xlink:href="#m06aef644d3" x="503.314166" y="551.748589" style="fill: #377eb8; stroke: #377eb8"/>
     <use xlink:href="#m06aef644d3" x="530.01273" y="551.344952" style="fill: #377eb8; stroke: #377eb8"/>
     <use xlink:href="#m06aef644d3" x="556.711295" y="551.022599" style="fill: #377eb8; stroke: #377eb8"/>
     <use xlink:href="#m06aef644d3" x="583.409859" y="550.781537" style="fill: #377eb8; stroke: #377eb8"/>
     <use xlink:href="#m06aef644d3" x="610.108424" y="550.621771" style="fill: #377eb8; stroke: #377eb8"/>
     <use xlink:href="#m06aef644d3" x="636.806989" y="550.543308" style="fill: #377eb8; stroke: #377eb8"/>
    </g>
   </g>
   <g id="PathCollection_3">
    <defs>
     <path id="me0276e8934" d="M 0 2.236068 
C 0.593012 2.236068 1.161816 2.000462 1.581139 1.581139 
C 2.000462 1.161816 2.236068 0.593012 2.236068 0 
C 2.236068 -0.593012 2.000462 -1.161816 1.581139 -1.581139 
C 1.161816 -2.000462 0.593012 -2.236068 0 -2.236068 
C -0.593012 -2.236068 -1.161816 -2.000462 -1.581139 -1.581139 
C -2.000462 -1.161816 -2.236068 -0.593012 -2.236068 0 
C -2.236068 0.593012 -2.000462 1.161816 -1.581139 1.581139 
C -1.161816 2.000462 -0.593012 2.236068 0 2.236068 
z
" style="stroke: #4daf4a"/>
    </defs>
    <g clip-path="url(#pd345315b53)">
     <use xlink:href="#me0276e8934" x="129.534261" y="566.190214" style="fill: #4daf4a; stroke: #4daf4a"/>
     <use xlink:href="#me0276e8934" x="156.232826" y="565.145188" style="fill: #4daf4a; stroke: #4daf4a"/>
     <use xlink:href="#me0276e8934" x="182.931391" y="564.136224" style="fill: #4daf4a; stroke: #4daf4a"/>
     <use xlink:href="#me0276e8934" x="209.629955" y="563.163324" style="fill: #4daf4a; stroke: #4daf4a"/>
     <use xlink:href="#me0276e8934" x="236.32852" y="562.226488" style="fill: #4daf4a; stroke: #4daf4a"/>
     <use xlink:href="#me0276e8934" x="263.027084" y="561.325717" style="fill: #4daf4a; stroke: #4daf4a"/>
     <use xlink:href="#me0276e8934" x="289.725649" y="560.461014" style="fill: #4daf4a; stroke: #4daf4a"/>
     <use xlink:href="#me0276e8934" x="316.424214" y="559.632379" style="fill: #4daf4a; stroke: #4daf4a"/>
     <use xlink:href="#me0276e8934" x="343.122778" y="558.839813" style="fill: #4daf4a; stroke: #4daf4a"/>
     <use xlink:href="#me0276e8934" x="369.821343" y="558.083317" style="fill: #4daf4a; stroke: #4daf4a"/>
     <use xlink:href="#me0276e8934" x="396.519907" y="557.362893" style="fill: #4daf4a; stroke: #4daf4a"/>
     <use xlink:href="#me0276e8934" x="423.218472" y="556.678542" style="fill: #4daf4a; stroke: #4daf4a"/>
     <use xlink:href="#me0276e8934" x="449.917036" y="556.030265" style="fill: #4daf4a; stroke: #4daf4a"/>
     <use xlink:href="#me0276e8934" x="476.615601" y="555.418064" style="fill: #4daf4a; stroke: #4daf4a"/>
     <use xlink:href="#me0276e8934" x="503.314166" y="554.841939" style="fill: #4daf4a; stroke: #4daf4a"/>
     <use xlink:href="#me0276e8934" x="530.01273" y="554.301892" style="fill: #4daf4a; stroke: #4daf4a"/>
     <use xlink:href="#me0276e8934" x="556.711295" y="553.797923" style="fill: #4daf4a; stroke: #4daf4a"/>
     <use xlink:href="#me0276e8934" x="583.409859" y="553.330035" style="fill: #4daf4a; stroke: #4daf4a"/>
     <use xlink:href="#me0276e8934" x="610.108424" y="552.898228" style="fill: #4daf4a; stroke: #4daf4a"/>
     <use xlink:href="#me0276e8934" x="636.806989" y="552.502504" style="fill: #4daf4a; stroke: #4daf4a"/>
    </g>
   </g>
   <g id="PathCollection_4">
    <defs>
     <path id="m648ffa0e26" d="M 0 2.236068 
C 0.593012 2.236068 1.161816 2.000462 1.581139 1.581139 
C 2.000462 1.161816 2.236068 0.593012 2.236068 0 
C 2.236068 -0.593012 2.000462 -1.161816 1.581139 -1.581139 
C 1.161816 -2.000462 0.593012 -2.236068 0 -2.236068 
C -0.593012 -2.236068 -1.161816 -2.000462 -1.581139 -1.581139 
C -2.000462 -1.161816 -2.236068 -0.593012 -2.236068 0 
C -2.236068 0.593012 -2.000462 1.161816 -1.581139 1.581139 
C -1.161816 2.000462 -0.593012 2.236068 0 2.236068 
z
" style="stroke: #984ea3"/>
    </defs>
    <g clip-path="url(#pd345315b53)">
     <use xlink:href="#m648ffa0e26" x="129.534261" y="565.423486" style="fill: #984ea3; stroke: #984ea3"/>
     <use xlink:href="#m648ffa0e26" x="156.232826" y="563.478579" style="fill: #984ea3; stroke: #984ea3"/>
     <use xlink:href="#m648ffa0e26" x="182.931391" y="562.837668" style="fill: #984ea3; stroke: #984ea3"/>
     <use xlink:href="#m648ffa0e26" x="209.629955" y="563.502332" style="fill: #984ea3; stroke: #984ea3"/>
     <use xlink:href="#m648ffa0e26" x="236.32852" y="565.474156" style="fill: #984ea3; stroke: #984ea3"/>
     <use xlink:href="#m648ffa0e26" x="263.027084" y="564.688756" style="fill: #984ea3; stroke: #984ea3"/>
     <use xlink:href="#m648ffa0e26" x="289.725649" y="560.097838" style="fill: #984ea3; stroke: #984ea3"/>
     <use xlink:href="#m648ffa0e26" x="316.424214" y="554.194969" style="fill: #984ea3; stroke: #984ea3"/>
     <use xlink:href="#m648ffa0e26" x="343.122778" y="546.978541" style="fill: #984ea3; stroke: #984ea3"/>
     <use xlink:href="#m648ffa0e26" x="369.821343" y="538.446936" style="fill: #984ea3; stroke: #984ea3"/>
     <use xlink:href="#m648ffa0e26" x="396.519907" y="528.598531" style="fill: #984ea3; stroke: #984ea3"/>
     <use xlink:href="#m648ffa0e26" x="423.218472" y="517.431696" style="fill: #984ea3; stroke: #984ea3"/>
     <use xlink:href="#m648ffa0e26" x="449.917036" y="504.944795" style="fill: #984ea3; stroke: #984ea3"/>
     <use xlink:href="#m648ffa0e26" x="476.615601" y="491.136183" style="fill: #984ea3; stroke: #984ea3"/>
     <use xlink:href="#m648ffa0e26" x="503.314166" y="476.004212" style="fill: #984ea3; stroke: #984ea3"/>
     <use xlink:href="#m648ffa0e26" x="530.01273" y="459.547222" style="fill: #984ea3; stroke: #984ea3"/>
     <use xlink:href="#m648ffa0e26" x="556.711295" y="441.763552" style="fill: #984ea3; stroke: #984ea3"/>
     <use xlink:href="#m648ffa0e26" x="583.409859" y="422.651528" style="fill: #984ea3; stroke: #984ea3"/>
     <use xlink:href="#m648ffa0e26" x="610.108424" y="402.209474" style="fill: #984ea3; stroke: #984ea3"/>
     <use xlink:href="#m648ffa0e26" x="636.806989" y="380.435703" style="fill: #984ea3; stroke: #984ea3"/>
    </g>
   </g>
   <g id="PathCollection_5">
    <defs>
     <path id="m7a14fc3afd" d="M 0 2.236068 
C 0.593012 2.236068 1.161816 2.000462 1.581139 1.581139 
C 2.000462 1.161816 2.236068 0.593012 2.236068 0 
C 2.236068 -0.593012 2.000462 -1.161816 1.581139 -1.581139 
C 1.161816 -2.000462 0.593012 -2.236068 0 -2.236068 
C -0.593012 -2.236068 -1.161816 -2.000462 -1.581139 -1.581139 
C -2.000462 -1.161816 -2.236068 -0.593012 -2.236068 0 
C -2.236068 0.593012 -2.000462 1.161816 -1.581139 1.581139 
C -1.161816 2.000462 -0.593012 2.236068 0 2.236068 
z
" style="stroke: #ff7f00"/>
    </defs>
    <g clip-path="url(#pd345315b53)">
     <use xlink:href="#m7a14fc3afd" x="129.534261" y="565.991854" style="fill: #ff7f00; stroke: #ff7f00"/>
     <use xlink:href="#m7a14fc3afd" x="156.232826" y="564.694507" style="fill: #ff7f00; stroke: #ff7f00"/>
     <use xlink:href="#m7a14fc3afd" x="182.931391" y="563.722065" style="fill: #ff7f00; stroke: #ff7f00"/>
     <use xlink:href="#m7a14fc3afd" x="209.629955" y="563.074626" style="fill: #ff7f00; stroke: #ff7f00"/>
     <use xlink:href="#m7a14fc3afd" x="236.32852" y="562.752289" style="fill: #ff7f00; stroke: #ff7f00"/>
     <use xlink:href="#m7a14fc3afd" x="263.027084" y="562.75515" style="fill: #ff7f00; stroke: #ff7f00"/>
     <use xlink:href="#m7a14fc3afd" x="289.725649" y="563.083308" style="fill: #ff7f00; stroke: #ff7f00"/>
     <use xlink:href="#m7a14fc3afd" x="316.424214" y="563.736861" style="fill: #ff7f00; stroke: #ff7f00"/>
     <use xlink:href="#m7a14fc3afd" x="343.122778" y="564.715908" style="fill: #ff7f00; stroke: #ff7f00"/>
     <use xlink:href="#m7a14fc3afd" x="369.821343" y="566.020546" style="fill: #ff7f00; stroke: #ff7f00"/>
     <use xlink:href="#m7a14fc3afd" x="396.519907" y="565.79261" style="fill: #ff7f00; stroke: #ff7f00"/>
     <use xlink:href="#m7a14fc3afd" x="423.218472" y="563.836494" style="fill: #ff7f00; stroke: #ff7f00"/>
     <use xlink:href="#m7a14fc3afd" x="449.917036" y="561.55449" style="fill: #ff7f00; stroke: #ff7f00"/>
     <use xlink:href="#m7a14fc3afd" x="476.615601" y="558.9465" style="fill: #ff7f00; stroke: #ff7f00"/>
     <use xlink:href="#m7a14fc3afd" x="503.314166" y="556.012426" style="fill: #ff7f00; stroke: #ff7f00"/>
     <use xlink:href="#m7a14fc3afd" x="530.01273" y="552.752169" style="fill: #ff7f00; stroke: #ff7f00"/>
     <use xlink:href="#m7a14fc3afd" x="556.711295" y="549.165628" style="fill: #ff7f00; stroke: #ff7f00"/>
     <use xlink:href="#m7a14fc3afd" x="583.409859" y="545.252707" style="fill: #ff7f00; stroke: #ff7f00"/>
     <use xlink:href="#m7a14fc3afd" x="610.108424" y="541.013304" style="fill: #ff7f00; stroke: #ff7f00"/>
     <use xlink:href="#m7a14fc3afd" x="636.806989" y="536.447321" style="fill: #ff7f00; stroke: #ff7f00"/>
    </g>
   </g>
   <g id="PathCollection_6">
    <defs>
     <path id="m2b8e501d53" d="M 0 2.236068 
C 0.593012 2.236068 1.161816 2.000462 1.581139 1.581139 
C 2.000462 1.161816 2.236068 0.593012 2.236068 0 
C 2.236068 -0.593012 2.000462 -1.161816 1.581139 -1.581139 
C 1.161816 -2.000462 0.593012 -2.236068 0 -2.236068 
C -0.593012 -2.236068 -1.161816 -2.000462 -1.581139 -1.581139 
C -2.000462 -1.161816 -2.236068 -0.593012 -2.236068 0 
C -2.236068 0.593012 -2.000462 1.161816 -1.581139 1.581139 
C -1.161816 2.000462 -0.593012 2.236068 0 2.236068 
z
" style="stroke: #ffff33"/>
    </defs>
    <g clip-path="url(#pd345315b53)">
     <use xlink:href="#m2b8e501d53" x="129.534261" y="566.217261" style="fill: #ffff33; stroke: #ffff33"/>
     <use xlink:href="#m2b8e501d53" x="156.232826" y="565.280428" style="fill: #ffff33; stroke: #ffff33"/>
     <use xlink:href="#m2b8e501d53" x="182.931391" y="564.487864" style="fill: #ffff33; stroke: #ffff33"/>
     <use xlink:href="#m2b8e501d53" x="209.629955" y="563.839591" style="fill: #ffff33; stroke: #ffff33"/>
     <use xlink:href="#m2b8e501d53" x="236.32852" y="563.335625" style="fill: #ffff33; stroke: #ffff33"/>
     <use xlink:href="#m2b8e501d53" x="263.027084" y="562.975988" style="fill: #ffff33; stroke: #ffff33"/>
     <use xlink:href="#m2b8e501d53" x="289.725649" y="562.760697" style="fill: #ffff33; stroke: #ffff33"/>
     <use xlink:href="#m2b8e501d53" x="316.424214" y="562.689773" style="fill: #ffff33; stroke: #ffff33"/>
     <use xlink:href="#m2b8e501d53" x="343.122778" y="562.763235" style="fill: #ffff33; stroke: #ffff33"/>
     <use xlink:href="#m2b8e501d53" x="369.821343" y="562.981101" style="fill: #ffff33; stroke: #ffff33"/>
     <use xlink:href="#m2b8e501d53" x="396.519907" y="563.343392" style="fill: #ffff33; stroke: #ffff33"/>
     <use xlink:href="#m2b8e501d53" x="423.218472" y="563.850127" style="fill: #ffff33; stroke: #ffff33"/>
     <use xlink:href="#m2b8e501d53" x="449.917036" y="564.501324" style="fill: #ffff33; stroke: #ffff33"/>
     <use xlink:href="#m2b8e501d53" x="476.615601" y="565.297004" style="fill: #ffff33; stroke: #ffff33"/>
     <use xlink:href="#m2b8e501d53" x="503.314166" y="566.237185" style="fill: #ffff33; stroke: #ffff33"/>
     <use xlink:href="#m2b8e501d53" x="530.01273" y="566.121597" style="fill: #ffff33; stroke: #ffff33"/>
     <use xlink:href="#m2b8e501d53" x="556.711295" y="564.892354" style="fill: #ffff33; stroke: #ffff33"/>
     <use xlink:href="#m2b8e501d53" x="583.409859" y="563.518551" style="fill: #ffff33; stroke: #ffff33"/>
     <use xlink:href="#m2b8e501d53" x="610.108424" y="562.000169" style="fill: #ffff33; stroke: #ffff33"/>
     <use xlink:href="#m2b8e501d53" x="636.806989" y="560.337189" style="fill: #ffff33; stroke: #ffff33"/>
    </g>
   </g>
   <g id="PathCollection_7">
    <defs>
     <path id="m3a82985ab9" d="M 0 2.236068 
C 0.593012 2.236068 1.161816 2.000462 1.581139 1.581139 
C 2.000462 1.161816 2.236068 0.593012 2.236068 0 
C 2.236068 -0.593012 2.000462 -1.161816 1.581139 -1.581139 
C 1.161816 -2.000462 0.593012 -2.236068 0 -2.236068 
C -0.593012 -2.236068 -1.161816 -2.000462 -1.581139 -1.581139 
C -2.000462 -1.161816 -2.236068 -0.593012 -2.236068 0 
C -2.236068 0.593012 -2.000462 1.161816 -1.581139 1.581139 
C -1.161816 2.000462 -0.593012 2.236068 0 2.236068 
z
" style="stroke: #a65628"/>
    </defs>
    <g clip-path="url(#pd345315b53)">
     <use xlink:href="#m3a82985ab9" x="129.534261" y="565.83078" style="fill: #a65628; stroke: #a65628"/>
     <use xlink:href="#m3a82985ab9" x="156.232826" y="565.517186" style="fill: #a65628; stroke: #a65628"/>
     <use xlink:href="#m3a82985ab9" x="182.931391" y="565.299219" style="fill: #a65628; stroke: #a65628"/>
     <use xlink:href="#m3a82985ab9" x="209.629955" y="559.723397" style="fill: #a65628; stroke: #a65628"/>
     <use xlink:href="#m3a82985ab9" x="236.32852" y="551.190688" style="fill: #a65628; stroke: #a65628"/>
     <use xlink:href="#m3a82985ab9" x="263.027084" y="539.692876" style="fill: #a65628; stroke: #a65628"/>
     <use xlink:href="#m3a82985ab9" x="289.725649" y="525.221666" style="fill: #a65628; stroke: #a65628"/>
     <use xlink:href="#m3a82985ab9" x="316.424214" y="507.768684" style="fill: #a65628; stroke: #a65628"/>
     <use xlink:href="#m3a82985ab9" x="343.122778" y="487.32548" style="fill: #a65628; stroke: #a65628"/>
     <use xlink:href="#m3a82985ab9" x="369.821343" y="463.883523" style="fill: #a65628; stroke: #a65628"/>
     <use xlink:href="#m3a82985ab9" x="396.519907" y="437.434199" style="fill: #a65628; stroke: #a65628"/>
     <use xlink:href="#m3a82985ab9" x="423.218472" y="407.968815" style="fill: #a65628; stroke: #a65628"/>
     <use xlink:href="#m3a82985ab9" x="449.917036" y="375.478589" style="fill: #a65628; stroke: #a65628"/>
     <use xlink:href="#m3a82985ab9" x="476.615601" y="339.954659" style="fill: #a65628; stroke: #a65628"/>
     <use xlink:href="#m3a82985ab9" x="503.314166" y="301.388072" style="fill: #a65628; stroke: #a65628"/>
     <use xlink:href="#m3a82985ab9" x="530.01273" y="259.769789" style="fill: #a65628; stroke: #a65628"/>
     <use xlink:href="#m3a82985ab9" x="556.711295" y="215.090682" style="fill: #a65628; stroke: #a65628"/>
     <use xlink:href="#m3a82985ab9" x="583.409859" y="167.34153" style="fill: #a65628; stroke: #a65628"/>
     <use xlink:href="#m3a82985ab9" x="610.108424" y="116.513022" style="fill: #a65628; stroke: #a65628"/>
     <use xlink:href="#m3a82985ab9" x="636.806989" y="62.59575" style="fill: #a65628; stroke: #a65628"/>
    </g>
   </g>
   <g id="PathCollection_8">
    <defs>
     <path id="m92ca5bb380" d="M 0 2.236068 
C 0.593012 2.236068 1.161816 2.000462 1.581139 1.581139 
C 2.000462 1.161816 2.236068 0.593012 2.236068 0 
C 2.236068 -0.593012 2.000462 -1.161816 1.581139 -1.581139 
C 1.161816 -2.000462 0.593012 -2.236068 0 -2.236068 
C -0.593012 -2.236068 -1.161816 -2.000462 -1.581139 -1.581139 
C -2.000462 -1.161816 -2.236068 -0.593012 -2.236068 0 
C -2.236068 0.593012 -2.000462 1.161816 -1.581139 1.581139 
C -1.161816 2.000462 -0.593012 2.236068 0 2.236068 
z
" style="stroke: #f781bf"/>
    </defs>
    <g clip-path="url(#pd345315b53)">
     <use xlink:href="#m92ca5bb380" x="129.534261" y="566.093375" style="fill: #f781bf; stroke: #f781bf"/>
     <use xlink:href="#m92ca5bb380" x="156.232826" y="565.20224" style="fill: #f781bf; stroke: #f781bf"/>
     <use xlink:href="#m92ca5bb380" x="182.931391" y="565.042556" style="fill: #f781bf; stroke: #f781bf"/>
     <use xlink:href="#m92ca5bb380" x="209.629955" y="565.614818" style="fill: #f781bf; stroke: #f781bf"/>
     <use xlink:href="#m92ca5bb380" x="236.32852" y="566.523961" style="fill: #f781bf; stroke: #f781bf"/>
     <use xlink:href="#m92ca5bb380" x="263.027084" y="564.486315" style="fill: #f781bf; stroke: #f781bf"/>
     <use xlink:href="#m92ca5bb380" x="289.725649" y="561.715229" style="fill: #f781bf; stroke: #f781bf"/>
     <use xlink:href="#m92ca5bb380" x="316.424214" y="558.210201" style="fill: #f781bf; stroke: #f781bf"/>
     <use xlink:href="#m92ca5bb380" x="343.122778" y="553.970731" style="fill: #f781bf; stroke: #f781bf"/>
     <use xlink:href="#m92ca5bb380" x="369.821343" y="548.996316" style="fill: #f781bf; stroke: #f781bf"/>
     <use xlink:href="#m92ca5bb380" x="396.519907" y="543.286451" style="fill: #f781bf; stroke: #f781bf"/>
     <use xlink:href="#m92ca5bb380" x="423.218472" y="536.840632" style="fill: #f781bf; stroke: #f781bf"/>
     <use xlink:href="#m92ca5bb380" x="449.917036" y="529.658353" style="fill: #f781bf; stroke: #f781bf"/>
     <use xlink:href="#m92ca5bb380" x="476.615601" y="521.739105" style="fill: #f781bf; stroke: #f781bf"/>
     <use xlink:href="#m92ca5bb380" x="503.314166" y="513.082382" style="fill: #f781bf; stroke: #f781bf"/>
     <use xlink:href="#m92ca5bb380" x="530.01273" y="503.687672" style="fill: #f781bf; stroke: #f781bf"/>
     <use xlink:href="#m92ca5bb380" x="556.711295" y="493.554465" style="fill: #f781bf; stroke: #f781bf"/>
     <use xlink:href="#m92ca5bb380" x="583.409859" y="482.682249" style="fill: #f781bf; stroke: #f781bf"/>
     <use xlink:href="#m92ca5bb380" x="610.108424" y="471.07051" style="fill: #f781bf; stroke: #f781bf"/>
     <use xlink:href="#m92ca5bb380" x="636.806989" y="458.718735" style="fill: #f781bf; stroke: #f781bf"/>
    </g>
   </g>
   <g id="PathCollection_9">
    <defs>
     <path id="m5e0d1200fd" d="M 0 2.236068 
C 0.593012 2.236068 1.161816 2.000462 1.581139 1.581139 
C 2.000462 1.161816 2.236068 0.593012 2.236068 0 
C 2.236068 -0.593012 2.000462 -1.161816 1.581139 -1.581139 
C 1.161816 -2.000462 0.593012 -2.236068 0 -2.236068 
C -0.593012 -2.236068 -1.161816 -2.000462 -1.581139 -1.581139 
C -2.000462 -1.161816 -2.236068 -0.593012 -2.236068 0 
C -2.236068 0.593012 -2.000462 1.161816 -1.581139 1.581139 
C -1.161816 2.000462 -0.593012 2.236068 0 2.236068 
z
" style="stroke: #999999"/>
    </defs>
    <g clip-path="url(#pd345315b53)">
     <use xlink:href="#m5e0d1200fd" x="129.534261" y="566.262342" style="fill: #999999; stroke: #999999"/>
     <use xlink:href="#m5e0d1200fd" x="156.232826" y="565.505863" style="fill: #999999; stroke: #999999"/>
     <use xlink:href="#m5e0d1200fd" x="182.931391" y="565.074072" style="fill: #999999; stroke: #999999"/>
     <use xlink:href="#m5e0d1200fd" x="209.629955" y="564.967068" style="fill: #999999; stroke: #999999"/>
     <use xlink:href="#m5e0d1200fd" x="236.32852" y="565.184947" style="fill: #999999; stroke: #999999"/>
     <use xlink:href="#m5e0d1200fd" x="263.027084" y="565.727809" style="fill: #999999; stroke: #999999"/>
     <use xlink:href="#m5e0d1200fd" x="289.725649" y="566.59575" style="fill: #999999; stroke: #999999"/>
     <use xlink:href="#m5e0d1200fd" x="316.424214" y="565.654615" style="fill: #999999; stroke: #999999"/>
     <use xlink:href="#m5e0d1200fd" x="343.122778" y="564.13622" style="fill: #999999; stroke: #999999"/>
     <use xlink:href="#m5e0d1200fd" x="369.821343" y="562.292451" style="fill: #999999; stroke: #999999"/>
     <use xlink:href="#m5e0d1200fd" x="396.519907" y="560.123209" style="fill: #999999; stroke: #999999"/>
     <use xlink:href="#m5e0d1200fd" x="423.218472" y="557.628397" style="fill: #999999; stroke: #999999"/>
     <use xlink:href="#m5e0d1200fd" x="449.917036" y="554.807915" style="fill: #999999; stroke: #999999"/>
     <use xlink:href="#m5e0d1200fd" x="476.615601" y="551.661666" style="fill: #999999; stroke: #999999"/>
     <use xlink:href="#m5e0d1200fd" x="503.314166" y="548.189549" style="fill: #999999; stroke: #999999"/>
     <use xlink:href="#m5e0d1200fd" x="530.01273" y="544.391467" style="fill: #999999; stroke: #999999"/>
     <use xlink:href="#m5e0d1200fd" x="556.711295" y="540.267321" style="fill: #999999; stroke: #999999"/>
     <use xlink:href="#m5e0d1200fd" x="583.409859" y="535.817011" style="fill: #999999; stroke: #999999"/>
     <use xlink:href="#m5e0d1200fd" x="610.108424" y="531.040439" style="fill: #999999; stroke: #999999"/>
     <use xlink:href="#m5e0d1200fd" x="636.806989" y="525.937505" style="fill: #999999; stroke: #999999"/>
    </g>
   </g>
   <g id="matplotlib.axis_1">
    <g id="xtick_1">
     <g id="line2d_1">
      <path d="M 129.534261 591.79575 
L 129.534261 37.39575 
" clip-path="url(#pd345315b53)" style="fill: none; stroke: #b0b0b0; stroke-width: 0.8; stroke-linecap: square"/>
     </g>
     <g id="line2d_2">
      <defs>
       <path id="m22ebaad861" d="M 0 0 
L 0 3.5 
" style="stroke: #000000; stroke-width: 0.8"/>
      </defs>
      <g>
       <use xlink:href="#m22ebaad861" x="129.534261" y="591.79575" style="stroke: #000000; stroke-width: 0.8"/>
      </g>
     </g>
     <g id="text_1">
      <!-- 0 -->
      <g transform="translate(121.263011 618.551687) scale(0.26 -0.26)">
       <defs>
        <path id="DejaVuSans-30" d="M 2034 4250 
Q 1547 4250 1301 3770 
Q 1056 3291 1056 2328 
Q 1056 1369 1301 889 
Q 1547 409 2034 409 
Q 2525 409 2770 889 
Q 3016 1369 3016 2328 
Q 3016 3291 2770 3770 
Q 2525 4250 2034 4250 
z
M 2034 4750 
Q 2819 4750 3233 4129 
Q 3647 3509 3647 2328 
Q 3647 1150 3233 529 
Q 2819 -91 2034 -91 
Q 1250 -91 836 529 
Q 422 1150 422 2328 
Q 422 3509 836 4129 
Q 1250 4750 2034 4750 
z
" transform="scale(0.015625)"/>
       </defs>
       <use xlink:href="#DejaVuSans-30"/>
      </g>
     </g>
    </g>
    <g id="xtick_2">
     <g id="line2d_3">
      <path d="M 182.931391 591.79575 
L 182.931391 37.39575 
" clip-path="url(#pd345315b53)" style="fill: none; stroke: #b0b0b0; stroke-width: 0.8; stroke-linecap: square"/>
     </g>
     <g id="line2d_4">
      <g>
       <use xlink:href="#m22ebaad861" x="182.931391" y="591.79575" style="stroke: #000000; stroke-width: 0.8"/>
      </g>
     </g>
     <g id="text_2">
      <!-- 2 -->
      <g transform="translate(174.660141 618.551687) scale(0.26 -0.26)">
       <defs>
        <path id="DejaVuSans-32" d="M 1228 531 
L 3431 531 
L 3431 0 
L 469 0 
L 469 531 
Q 828 903 1448 1529 
Q 2069 2156 2228 2338 
Q 2531 2678 2651 2914 
Q 2772 3150 2772 3378 
Q 2772 3750 2511 3984 
Q 2250 4219 1831 4219 
Q 1534 4219 1204 4116 
Q 875 4013 500 3803 
L 500 4441 
Q 881 4594 1212 4672 
Q 1544 4750 1819 4750 
Q 2544 4750 2975 4387 
Q 3406 4025 3406 3419 
Q 3406 3131 3298 2873 
Q 3191 2616 2906 2266 
Q 2828 2175 2409 1742 
Q 1991 1309 1228 531 
z
" transform="scale(0.015625)"/>
       </defs>
       <use xlink:href="#DejaVuSans-32"/>
      </g>
     </g>
    </g>
    <g id="xtick_3">
     <g id="line2d_5">
      <path d="M 236.32852 591.79575 
L 236.32852 37.39575 
" clip-path="url(#pd345315b53)" style="fill: none; stroke: #b0b0b0; stroke-width: 0.8; stroke-linecap: square"/>
     </g>
     <g id="line2d_6">
      <g>
       <use xlink:href="#m22ebaad861" x="236.32852" y="591.79575" style="stroke: #000000; stroke-width: 0.8"/>
      </g>
     </g>
     <g id="text_3">
      <!-- 4 -->
      <g transform="translate(228.05727 618.551687) scale(0.26 -0.26)">
       <defs>
        <path id="DejaVuSans-34" d="M 2419 4116 
L 825 1625 
L 2419 1625 
L 2419 4116 
z
M 2253 4666 
L 3047 4666 
L 3047 1625 
L 3713 1625 
L 3713 1100 
L 3047 1100 
L 3047 0 
L 2419 0 
L 2419 1100 
L 313 1100 
L 313 1709 
L 2253 4666 
z
" transform="scale(0.015625)"/>
       </defs>
       <use xlink:href="#DejaVuSans-34"/>
      </g>
     </g>
    </g>
    <g id="xtick_4">
     <g id="line2d_7">
      <path d="M 289.725649 591.79575 
L 289.725649 37.39575 
" clip-path="url(#pd345315b53)" style="fill: none; stroke: #b0b0b0; stroke-width: 0.8; stroke-linecap: square"/>
     </g>
     <g id="line2d_8">
      <g>
       <use xlink:href="#m22ebaad861" x="289.725649" y="591.79575" style="stroke: #000000; stroke-width: 0.8"/>
      </g>
     </g>
     <g id="text_4">
      <!-- 6 -->
      <g transform="translate(281.454399 618.551687) scale(0.26 -0.26)">
       <defs>
        <path id="DejaVuSans-36" d="M 2113 2584 
Q 1688 2584 1439 2293 
Q 1191 2003 1191 1497 
Q 1191 994 1439 701 
Q 1688 409 2113 409 
Q 2538 409 2786 701 
Q 3034 994 3034 1497 
Q 3034 2003 2786 2293 
Q 2538 2584 2113 2584 
z
M 3366 4563 
L 3366 3988 
Q 3128 4100 2886 4159 
Q 2644 4219 2406 4219 
Q 1781 4219 1451 3797 
Q 1122 3375 1075 2522 
Q 1259 2794 1537 2939 
Q 1816 3084 2150 3084 
Q 2853 3084 3261 2657 
Q 3669 2231 3669 1497 
Q 3669 778 3244 343 
Q 2819 -91 2113 -91 
Q 1303 -91 875 529 
Q 447 1150 447 2328 
Q 447 3434 972 4092 
Q 1497 4750 2381 4750 
Q 2619 4750 2861 4703 
Q 3103 4656 3366 4563 
z
" transform="scale(0.015625)"/>
       </defs>
       <use xlink:href="#DejaVuSans-36"/>
      </g>
     </g>
    </g>
    <g id="xtick_5">
     <g id="line2d_9">
      <path d="M 343.122778 591.79575 
L 343.122778 37.39575 
" clip-path="url(#pd345315b53)" style="fill: none; stroke: #b0b0b0; stroke-width: 0.8; stroke-linecap: square"/>
     </g>
     <g id="line2d_10">
      <g>
       <use xlink:href="#m22ebaad861" x="343.122778" y="591.79575" style="stroke: #000000; stroke-width: 0.8"/>
      </g>
     </g>
     <g id="text_5">
      <!-- 8 -->
      <g transform="translate(334.851528 618.551687) scale(0.26 -0.26)">
       <defs>
        <path id="DejaVuSans-38" d="M 2034 2216 
Q 1584 2216 1326 1975 
Q 1069 1734 1069 1313 
Q 1069 891 1326 650 
Q 1584 409 2034 409 
Q 2484 409 2743 651 
Q 3003 894 3003 1313 
Q 3003 1734 2745 1975 
Q 2488 2216 2034 2216 
z
M 1403 2484 
Q 997 2584 770 2862 
Q 544 3141 544 3541 
Q 544 4100 942 4425 
Q 1341 4750 2034 4750 
Q 2731 4750 3128 4425 
Q 3525 4100 3525 3541 
Q 3525 3141 3298 2862 
Q 3072 2584 2669 2484 
Q 3125 2378 3379 2068 
Q 3634 1759 3634 1313 
Q 3634 634 3220 271 
Q 2806 -91 2034 -91 
Q 1263 -91 848 271 
Q 434 634 434 1313 
Q 434 1759 690 2068 
Q 947 2378 1403 2484 
z
M 1172 3481 
Q 1172 3119 1398 2916 
Q 1625 2713 2034 2713 
Q 2441 2713 2670 2916 
Q 2900 3119 2900 3481 
Q 2900 3844 2670 4047 
Q 2441 4250 2034 4250 
Q 1625 4250 1398 4047 
Q 1172 3844 1172 3481 
z
" transform="scale(0.015625)"/>
       </defs>
       <use xlink:href="#DejaVuSans-38"/>
      </g>
     </g>
    </g>
    <g id="xtick_6">
     <g id="line2d_11">
      <path d="M 396.519907 591.79575 
L 396.519907 37.39575 
" clip-path="url(#pd345315b53)" style="fill: none; stroke: #b0b0b0; stroke-width: 0.8; stroke-linecap: square"/>
     </g>
     <g id="line2d_12">
      <g>
       <use xlink:href="#m22ebaad861" x="396.519907" y="591.79575" style="stroke: #000000; stroke-width: 0.8"/>
      </g>
     </g>
     <g id="text_6">
      <!-- 10 -->
      <g transform="translate(379.977407 618.551687) scale(0.26 -0.26)">
       <defs>
        <path id="DejaVuSans-31" d="M 794 531 
L 1825 531 
L 1825 4091 
L 703 3866 
L 703 4441 
L 1819 4666 
L 2450 4666 
L 2450 531 
L 3481 531 
L 3481 0 
L 794 0 
L 794 531 
z
" transform="scale(0.015625)"/>
       </defs>
       <use xlink:href="#DejaVuSans-31"/>
       <use xlink:href="#DejaVuSans-30" x="63.623047"/>
      </g>
     </g>
    </g>
    <g id="xtick_7">
     <g id="line2d_13">
      <path d="M 449.917036 591.79575 
L 449.917036 37.39575 
" clip-path="url(#pd345315b53)" style="fill: none; stroke: #b0b0b0; stroke-width: 0.8; stroke-linecap: square"/>
     </g>
     <g id="line2d_14">
      <g>
       <use xlink:href="#m22ebaad861" x="449.917036" y="591.79575" style="stroke: #000000; stroke-width: 0.8"/>
      </g>
     </g>
     <g id="text_7">
      <!-- 12 -->
      <g transform="translate(433.374536 618.551687) scale(0.26 -0.26)">
       <use xlink:href="#DejaVuSans-31"/>
       <use xlink:href="#DejaVuSans-32" x="63.623047"/>
      </g>
     </g>
    </g>
    <g id="xtick_8">
     <g id="line2d_15">
      <path d="M 503.314166 591.79575 
L 503.314166 37.39575 
" clip-path="url(#pd345315b53)" style="fill: none; stroke: #b0b0b0; stroke-width: 0.8; stroke-linecap: square"/>
     </g>
     <g id="line2d_16">
      <g>
       <use xlink:href="#m22ebaad861" x="503.314166" y="591.79575" style="stroke: #000000; stroke-width: 0.8"/>
      </g>
     </g>
     <g id="text_8">
      <!-- 14 -->
      <g transform="translate(486.771666 618.551687) scale(0.26 -0.26)">
       <use xlink:href="#DejaVuSans-31"/>
       <use xlink:href="#DejaVuSans-34" x="63.623047"/>
      </g>
     </g>
    </g>
    <g id="xtick_9">
     <g id="line2d_17">
      <path d="M 556.711295 591.79575 
L 556.711295 37.39575 
" clip-path="url(#pd345315b53)" style="fill: none; stroke: #b0b0b0; stroke-width: 0.8; stroke-linecap: square"/>
     </g>
     <g id="line2d_18">
      <g>
       <use xlink:href="#m22ebaad861" x="556.711295" y="591.79575" style="stroke: #000000; stroke-width: 0.8"/>
      </g>
     </g>
     <g id="text_9">
      <!-- 16 -->
      <g transform="translate(540.168795 618.551687) scale(0.26 -0.26)">
       <use xlink:href="#DejaVuSans-31"/>
       <use xlink:href="#DejaVuSans-36" x="63.623047"/>
      </g>
     </g>
    </g>
    <g id="xtick_10">
     <g id="line2d_19">
      <path d="M 610.108424 591.79575 
L 610.108424 37.39575 
" clip-path="url(#pd345315b53)" style="fill: none; stroke: #b0b0b0; stroke-width: 0.8; stroke-linecap: square"/>
     </g>
     <g id="line2d_20">
      <g>
       <use xlink:href="#m22ebaad861" x="610.108424" y="591.79575" style="stroke: #000000; stroke-width: 0.8"/>
      </g>
     </g>
     <g id="text_10">
      <!-- 18 -->
      <g transform="translate(593.565924 618.551687) scale(0.26 -0.26)">
       <use xlink:href="#DejaVuSans-31"/>
       <use xlink:href="#DejaVuSans-38" x="63.623047"/>
      </g>
     </g>
    </g>
    <g id="text_11">
     <!-- Energy level $n$ -->
     <g transform="translate(289.960625 647.718875) scale(0.26 -0.26)">
      <defs>
       <path id="DejaVuSans-45" d="M 628 4666 
L 3578 4666 
L 3578 4134 
L 1259 4134 
L 1259 2753 
L 3481 2753 
L 3481 2222 
L 1259 2222 
L 1259 531 
L 3634 531 
L 3634 0 
L 628 0 
L 628 4666 
z
" transform="scale(0.015625)"/>
       <path id="DejaVuSans-6e" d="M 3513 2113 
L 3513 0 
L 2938 0 
L 2938 2094 
Q 2938 2591 2744 2837 
Q 2550 3084 2163 3084 
Q 1697 3084 1428 2787 
Q 1159 2491 1159 1978 
L 1159 0 
L 581 0 
L 581 3500 
L 1159 3500 
L 1159 2956 
Q 1366 3272 1645 3428 
Q 1925 3584 2291 3584 
Q 2894 3584 3203 3211 
Q 3513 2838 3513 2113 
z
" transform="scale(0.015625)"/>
       <path id="DejaVuSans-65" d="M 3597 1894 
L 3597 1613 
L 953 1613 
Q 991 1019 1311 708 
Q 1631 397 2203 397 
Q 2534 397 2845 478 
Q 3156 559 3463 722 
L 3463 178 
Q 3153 47 2828 -22 
Q 2503 -91 2169 -91 
Q 1331 -91 842 396 
Q 353 884 353 1716 
Q 353 2575 817 3079 
Q 1281 3584 2069 3584 
Q 2775 3584 3186 3129 
Q 3597 2675 3597 1894 
z
M 3022 2063 
Q 3016 2534 2758 2815 
Q 2500 3097 2075 3097 
Q 1594 3097 1305 2825 
Q 1016 2553 972 2059 
L 3022 2063 
z
" transform="scale(0.015625)"/>
       <path id="DejaVuSans-72" d="M 2631 2963 
Q 2534 3019 2420 3045 
Q 2306 3072 2169 3072 
Q 1681 3072 1420 2755 
Q 1159 2438 1159 1844 
L 1159 0 
L 581 0 
L 581 3500 
L 1159 3500 
L 1159 2956 
Q 1341 3275 1631 3429 
Q 1922 3584 2338 3584 
Q 2397 3584 2469 3576 
Q 2541 3569 2628 3553 
L 2631 2963 
z
" transform="scale(0.015625)"/>
       <path id="DejaVuSans-67" d="M 2906 1791 
Q 2906 2416 2648 2759 
Q 2391 3103 1925 3103 
Q 1463 3103 1205 2759 
Q 947 2416 947 1791 
Q 947 1169 1205 825 
Q 1463 481 1925 481 
Q 2391 481 2648 825 
Q 2906 1169 2906 1791 
z
M 3481 434 
Q 3481 -459 3084 -895 
Q 2688 -1331 1869 -1331 
Q 1566 -1331 1297 -1286 
Q 1028 -1241 775 -1147 
L 775 -588 
Q 1028 -725 1275 -790 
Q 1522 -856 1778 -856 
Q 2344 -856 2625 -561 
Q 2906 -266 2906 331 
L 2906 616 
Q 2728 306 2450 153 
Q 2172 0 1784 0 
Q 1141 0 747 490 
Q 353 981 353 1791 
Q 353 2603 747 3093 
Q 1141 3584 1784 3584 
Q 2172 3584 2450 3431 
Q 2728 3278 2906 2969 
L 2906 3500 
L 3481 3500 
L 3481 434 
z
" transform="scale(0.015625)"/>
       <path id="DejaVuSans-79" d="M 2059 -325 
Q 1816 -950 1584 -1140 
Q 1353 -1331 966 -1331 
L 506 -1331 
L 506 -850 
L 844 -850 
Q 1081 -850 1212 -737 
Q 1344 -625 1503 -206 
L 1606 56 
L 191 3500 
L 800 3500 
L 1894 763 
L 2988 3500 
L 3597 3500 
L 2059 -325 
z
" transform="scale(0.015625)"/>
       <path id="DejaVuSans-20" transform="scale(0.015625)"/>
       <path id="DejaVuSans-6c" d="M 603 4863 
L 1178 4863 
L 1178 0 
L 603 0 
L 603 4863 
z
" transform="scale(0.015625)"/>
       <path id="DejaVuSans-76" d="M 191 3500 
L 800 3500 
L 1894 563 
L 2988 3500 
L 3597 3500 
L 2284 0 
L 1503 0 
L 191 3500 
z
" transform="scale(0.015625)"/>
       <path id="DejaVuSans-Oblique-6e" d="M 3566 2113 
L 3156 0 
L 2578 0 
L 2988 2091 
Q 3016 2238 3031 2350 
Q 3047 2463 3047 2528 
Q 3047 2791 2881 2937 
Q 2716 3084 2419 3084 
Q 1956 3084 1622 2776 
Q 1288 2469 1184 1941 
L 800 0 
L 225 0 
L 903 3500 
L 1478 3500 
L 1363 2950 
Q 1603 3253 1940 3418 
Q 2278 3584 2650 3584 
Q 3113 3584 3367 3334 
Q 3622 3084 3622 2631 
Q 3622 2519 3608 2391 
Q 3594 2263 3566 2113 
z
" transform="scale(0.015625)"/>
      </defs>
      <use xlink:href="#DejaVuSans-45" transform="translate(0 0.015625)"/>
      <use xlink:href="#DejaVuSans-6e" transform="translate(63.183594 0.015625)"/>
      <use xlink:href="#DejaVuSans-65" transform="translate(126.5625 0.015625)"/>
      <use xlink:href="#DejaVuSans-72" transform="translate(188.085938 0.015625)"/>
      <use xlink:href="#DejaVuSans-67" transform="translate(229.199219 0.015625)"/>
      <use xlink:href="#DejaVuSans-79" transform="translate(292.675781 0.015625)"/>
      <use xlink:href="#DejaVuSans-20" transform="translate(351.855469 0.015625)"/>
      <use xlink:href="#DejaVuSans-6c" transform="translate(383.642578 0.015625)"/>
      <use xlink:href="#DejaVuSans-65" transform="translate(411.425781 0.015625)"/>
      <use xlink:href="#DejaVuSans-76" transform="translate(472.949219 0.015625)"/>
      <use xlink:href="#DejaVuSans-65" transform="translate(532.128906 0.015625)"/>
      <use xlink:href="#DejaVuSans-6c" transform="translate(593.652344 0.015625)"/>
      <use xlink:href="#DejaVuSans-20" transform="translate(621.435547 0.015625)"/>
      <use xlink:href="#DejaVuSans-Oblique-6e" transform="translate(653.222656 0.015625)"/>
     </g>
    </g>
   </g>
   <g id="matplotlib.axis_2">
    <g id="ytick_1">
     <g id="line2d_21">
      <path d="M 104.170625 566.721742 
L 662.170625 566.721742 
" clip-path="url(#pd345315b53)" style="fill: none; stroke: #b0b0b0; stroke-width: 0.8; stroke-linecap: square"/>
     </g>
     <g id="line2d_22">
      <defs>
       <path id="ma083f2bb10" d="M 0 0 
L -3.5 0 
" style="stroke: #000000; stroke-width: 0.8"/>
      </defs>
      <g>
       <use xlink:href="#ma083f2bb10" x="104.170625" y="566.721742" style="stroke: #000000; stroke-width: 0.8"/>
      </g>
     </g>
     <g id="text_12">
      <!-- 0.00 -->
      <g transform="translate(39.28 576.599711) scale(0.26 -0.26)">
       <defs>
        <path id="DejaVuSans-2e" d="M 684 794 
L 1344 794 
L 1344 0 
L 684 0 
L 684 794 
z
" transform="scale(0.015625)"/>
       </defs>
       <use xlink:href="#DejaVuSans-30"/>
       <use xlink:href="#DejaVuSans-2e" x="63.623047"/>
       <use xlink:href="#DejaVuSans-30" x="95.410156"/>
       <use xlink:href="#DejaVuSans-30" x="159.033203"/>
      </g>
     </g>
    </g>
    <g id="ytick_2">
     <g id="line2d_23">
      <path d="M 104.170625 485.694278 
L 662.170625 485.694278 
" clip-path="url(#pd345315b53)" style="fill: none; stroke: #b0b0b0; stroke-width: 0.8; stroke-linecap: square"/>
     </g>
     <g id="line2d_24">
      <g>
       <use xlink:href="#ma083f2bb10" x="104.170625" y="485.694278" style="stroke: #000000; stroke-width: 0.8"/>
      </g>
     </g>
     <g id="text_13">
      <!-- 0.05 -->
      <g transform="translate(39.28 495.572247) scale(0.26 -0.26)">
       <defs>
        <path id="DejaVuSans-35" d="M 691 4666 
L 3169 4666 
L 3169 4134 
L 1269 4134 
L 1269 2991 
Q 1406 3038 1543 3061 
Q 1681 3084 1819 3084 
Q 2600 3084 3056 2656 
Q 3513 2228 3513 1497 
Q 3513 744 3044 326 
Q 2575 -91 1722 -91 
Q 1428 -91 1123 -41 
Q 819 9 494 109 
L 494 744 
Q 775 591 1075 516 
Q 1375 441 1709 441 
Q 2250 441 2565 725 
Q 2881 1009 2881 1497 
Q 2881 1984 2565 2268 
Q 2250 2553 1709 2553 
Q 1456 2553 1204 2497 
Q 953 2441 691 2322 
L 691 4666 
z
" transform="scale(0.015625)"/>
       </defs>
       <use xlink:href="#DejaVuSans-30"/>
       <use xlink:href="#DejaVuSans-2e" x="63.623047"/>
       <use xlink:href="#DejaVuSans-30" x="95.410156"/>
       <use xlink:href="#DejaVuSans-35" x="159.033203"/>
      </g>
     </g>
    </g>
    <g id="ytick_3">
     <g id="line2d_25">
      <path d="M 104.170625 404.666814 
L 662.170625 404.666814 
" clip-path="url(#pd345315b53)" style="fill: none; stroke: #b0b0b0; stroke-width: 0.8; stroke-linecap: square"/>
     </g>
     <g id="line2d_26">
      <g>
       <use xlink:href="#ma083f2bb10" x="104.170625" y="404.666814" style="stroke: #000000; stroke-width: 0.8"/>
      </g>
     </g>
     <g id="text_14">
      <!-- 0.10 -->
      <g transform="translate(39.28 414.544783) scale(0.26 -0.26)">
       <use xlink:href="#DejaVuSans-30"/>
       <use xlink:href="#DejaVuSans-2e" x="63.623047"/>
       <use xlink:href="#DejaVuSans-31" x="95.410156"/>
       <use xlink:href="#DejaVuSans-30" x="159.033203"/>
      </g>
     </g>
    </g>
    <g id="ytick_4">
     <g id="line2d_27">
      <path d="M 104.170625 323.63935 
L 662.170625 323.63935 
" clip-path="url(#pd345315b53)" style="fill: none; stroke: #b0b0b0; stroke-width: 0.8; stroke-linecap: square"/>
     </g>
     <g id="line2d_28">
      <g>
       <use xlink:href="#ma083f2bb10" x="104.170625" y="323.63935" style="stroke: #000000; stroke-width: 0.8"/>
      </g>
     </g>
     <g id="text_15">
      <!-- 0.15 -->
      <g transform="translate(39.28 333.517319) scale(0.26 -0.26)">
       <use xlink:href="#DejaVuSans-30"/>
       <use xlink:href="#DejaVuSans-2e" x="63.623047"/>
       <use xlink:href="#DejaVuSans-31" x="95.410156"/>
       <use xlink:href="#DejaVuSans-35" x="159.033203"/>
      </g>
     </g>
    </g>
    <g id="ytick_5">
     <g id="line2d_29">
      <path d="M 104.170625 242.611886 
L 662.170625 242.611886 
" clip-path="url(#pd345315b53)" style="fill: none; stroke: #b0b0b0; stroke-width: 0.8; stroke-linecap: square"/>
     </g>
     <g id="line2d_30">
      <g>
       <use xlink:href="#ma083f2bb10" x="104.170625" y="242.611886" style="stroke: #000000; stroke-width: 0.8"/>
      </g>
     </g>
     <g id="text_16">
      <!-- 0.20 -->
      <g transform="translate(39.28 252.489855) scale(0.26 -0.26)">
       <use xlink:href="#DejaVuSans-30"/>
       <use xlink:href="#DejaVuSans-2e" x="63.623047"/>
       <use xlink:href="#DejaVuSans-32" x="95.410156"/>
       <use xlink:href="#DejaVuSans-30" x="159.033203"/>
      </g>
     </g>
    </g>
    <g id="ytick_6">
     <g id="line2d_31">
      <path d="M 104.170625 161.584422 
L 662.170625 161.584422 
" clip-path="url(#pd345315b53)" style="fill: none; stroke: #b0b0b0; stroke-width: 0.8; stroke-linecap: square"/>
     </g>
     <g id="line2d_32">
      <g>
       <use xlink:href="#ma083f2bb10" x="104.170625" y="161.584422" style="stroke: #000000; stroke-width: 0.8"/>
      </g>
     </g>
     <g id="text_17">
      <!-- 0.25 -->
      <g transform="translate(39.28 171.46239) scale(0.26 -0.26)">
       <use xlink:href="#DejaVuSans-30"/>
       <use xlink:href="#DejaVuSans-2e" x="63.623047"/>
       <use xlink:href="#DejaVuSans-32" x="95.410156"/>
       <use xlink:href="#DejaVuSans-35" x="159.033203"/>
      </g>
     </g>
    </g>
    <g id="ytick_7">
     <g id="line2d_33">
      <path d="M 104.170625 80.556958 
L 662.170625 80.556958 
" clip-path="url(#pd345315b53)" style="fill: none; stroke: #b0b0b0; stroke-width: 0.8; stroke-linecap: square"/>
     </g>
     <g id="line2d_34">
      <g>
       <use xlink:href="#ma083f2bb10" x="104.170625" y="80.556958" style="stroke: #000000; stroke-width: 0.8"/>
      </g>
     </g>
     <g id="text_18">
      <!-- 0.30 -->
      <g transform="translate(39.28 90.434926) scale(0.26 -0.26)">
       <defs>
        <path id="DejaVuSans-33" d="M 2597 2516 
Q 3050 2419 3304 2112 
Q 3559 1806 3559 1356 
Q 3559 666 3084 287 
Q 2609 -91 1734 -91 
Q 1441 -91 1130 -33 
Q 819 25 488 141 
L 488 750 
Q 750 597 1062 519 
Q 1375 441 1716 441 
Q 2309 441 2620 675 
Q 2931 909 2931 1356 
Q 2931 1769 2642 2001 
Q 2353 2234 1838 2234 
L 1294 2234 
L 1294 2753 
L 1863 2753 
Q 2328 2753 2575 2939 
Q 2822 3125 2822 3475 
Q 2822 3834 2567 4026 
Q 2313 4219 1838 4219 
Q 1578 4219 1281 4162 
Q 984 4106 628 3988 
L 628 4550 
Q 988 4650 1302 4700 
Q 1616 4750 1894 4750 
Q 2613 4750 3031 4423 
Q 3450 4097 3450 3541 
Q 3450 3153 3228 2886 
Q 3006 2619 2597 2516 
z
" transform="scale(0.015625)"/>
       </defs>
       <use xlink:href="#DejaVuSans-30"/>
       <use xlink:href="#DejaVuSans-2e" x="63.623047"/>
       <use xlink:href="#DejaVuSans-33" x="95.410156"/>
       <use xlink:href="#DejaVuSans-30" x="159.033203"/>
      </g>
     </g>
    </g>
    <g id="text_19">
     <!-- $|E_{n,theory} - E_{n,numerical}|$ -->
     <g transform="translate(27.22 452.39575) rotate(-90) scale(0.26 -0.26)">
      <defs>
       <path id="DejaVuSans-7c" d="M 1344 4891 
L 1344 -1509 
L 813 -1509 
L 813 4891 
L 1344 4891 
z
" transform="scale(0.015625)"/>
       <path id="DejaVuSans-Oblique-45" d="M 1081 4666 
L 4031 4666 
L 3928 4134 
L 1606 4134 
L 1338 2753 
L 3566 2753 
L 3463 2222 
L 1234 2222 
L 909 531 
L 3284 531 
L 3181 0 
L 172 0 
L 1081 4666 
z
" transform="scale(0.015625)"/>
       <path id="DejaVuSans-2c" d="M 750 794 
L 1409 794 
L 1409 256 
L 897 -744 
L 494 -744 
L 750 256 
L 750 794 
z
" transform="scale(0.015625)"/>
       <path id="DejaVuSans-Oblique-74" d="M 2706 3500 
L 2619 3053 
L 1472 3053 
L 1100 1153 
Q 1081 1047 1072 975 
Q 1063 903 1063 863 
Q 1063 663 1183 572 
Q 1303 481 1569 481 
L 2150 481 
L 2053 0 
L 1503 0 
Q 991 0 739 200 
Q 488 400 488 806 
Q 488 878 497 964 
Q 506 1050 525 1153 
L 897 3053 
L 409 3053 
L 500 3500 
L 978 3500 
L 1172 4494 
L 1747 4494 
L 1556 3500 
L 2706 3500 
z
" transform="scale(0.015625)"/>
       <path id="DejaVuSans-Oblique-68" d="M 3566 2113 
L 3156 0 
L 2578 0 
L 2988 2091 
Q 3016 2238 3031 2350 
Q 3047 2463 3047 2528 
Q 3047 2791 2881 2937 
Q 2716 3084 2419 3084 
Q 1956 3084 1617 2771 
Q 1278 2459 1178 1941 
L 800 0 
L 225 0 
L 1172 4863 
L 1747 4863 
L 1375 2950 
Q 1594 3244 1934 3414 
Q 2275 3584 2650 3584 
Q 3113 3584 3367 3334 
Q 3622 3084 3622 2631 
Q 3622 2519 3608 2391 
Q 3594 2263 3566 2113 
z
" transform="scale(0.015625)"/>
       <path id="DejaVuSans-Oblique-65" d="M 3078 2063 
Q 3088 2113 3092 2166 
Q 3097 2219 3097 2272 
Q 3097 2653 2873 2875 
Q 2650 3097 2266 3097 
Q 1838 3097 1509 2826 
Q 1181 2556 1013 2059 
L 3078 2063 
z
M 3578 1613 
L 903 1613 
Q 884 1494 878 1425 
Q 872 1356 872 1306 
Q 872 872 1139 634 
Q 1406 397 1894 397 
Q 2269 397 2603 481 
Q 2938 566 3225 728 
L 3116 159 
Q 2806 34 2476 -28 
Q 2147 -91 1806 -91 
Q 1078 -91 686 257 
Q 294 606 294 1247 
Q 294 1794 489 2264 
Q 684 2734 1063 3103 
Q 1306 3334 1642 3459 
Q 1978 3584 2356 3584 
Q 2950 3584 3301 3228 
Q 3653 2872 3653 2272 
Q 3653 2128 3634 1964 
Q 3616 1800 3578 1613 
z
" transform="scale(0.015625)"/>
       <path id="DejaVuSans-Oblique-6f" d="M 1625 -91 
Q 1009 -91 651 289 
Q 294 669 294 1325 
Q 294 1706 417 2101 
Q 541 2497 738 2766 
Q 1047 3184 1428 3384 
Q 1809 3584 2291 3584 
Q 2888 3584 3255 3212 
Q 3622 2841 3622 2241 
Q 3622 1825 3500 1412 
Q 3378 1000 3181 728 
Q 2875 309 2494 109 
Q 2113 -91 1625 -91 
z
M 891 1344 
Q 891 869 1089 633 
Q 1288 397 1691 397 
Q 2269 397 2648 901 
Q 3028 1406 3028 2181 
Q 3028 2634 2825 2865 
Q 2622 3097 2228 3097 
Q 1903 3097 1650 2945 
Q 1397 2794 1197 2484 
Q 1050 2253 970 1956 
Q 891 1659 891 1344 
z
" transform="scale(0.015625)"/>
       <path id="DejaVuSans-Oblique-72" d="M 2853 2969 
Q 2766 3016 2653 3041 
Q 2541 3066 2413 3066 
Q 1953 3066 1609 2717 
Q 1266 2369 1153 1784 
L 800 0 
L 225 0 
L 909 3500 
L 1484 3500 
L 1375 2956 
Q 1603 3259 1920 3421 
Q 2238 3584 2597 3584 
Q 2691 3584 2781 3573 
Q 2872 3563 2963 3538 
L 2853 2969 
z
" transform="scale(0.015625)"/>
       <path id="DejaVuSans-Oblique-79" d="M 1588 -325 
Q 1188 -997 936 -1164 
Q 684 -1331 294 -1331 
L -159 -1331 
L -63 -850 
L 269 -850 
Q 509 -850 678 -719 
Q 847 -588 1056 -206 
L 1234 128 
L 459 3500 
L 1069 3500 
L 1650 819 
L 3256 3500 
L 3859 3500 
L 1588 -325 
z
" transform="scale(0.015625)"/>
       <path id="DejaVuSans-2212" d="M 678 2272 
L 4684 2272 
L 4684 1741 
L 678 1741 
L 678 2272 
z
" transform="scale(0.015625)"/>
       <path id="DejaVuSans-Oblique-75" d="M 428 1388 
L 838 3500 
L 1416 3500 
L 1006 1409 
Q 975 1256 961 1147 
Q 947 1038 947 966 
Q 947 700 1109 554 
Q 1272 409 1569 409 
Q 2031 409 2368 721 
Q 2706 1034 2809 1563 
L 3194 3500 
L 3769 3500 
L 3091 0 
L 2516 0 
L 2631 550 
Q 2388 244 2052 76 
Q 1716 -91 1338 -91 
Q 878 -91 622 161 
Q 366 413 366 863 
Q 366 956 381 1097 
Q 397 1238 428 1388 
z
" transform="scale(0.015625)"/>
       <path id="DejaVuSans-Oblique-6d" d="M 5747 2113 
L 5338 0 
L 4763 0 
L 5166 2094 
Q 5191 2228 5203 2325 
Q 5216 2422 5216 2491 
Q 5216 2772 5059 2928 
Q 4903 3084 4622 3084 
Q 4203 3084 3875 2770 
Q 3547 2456 3450 1953 
L 3066 0 
L 2491 0 
L 2900 2094 
Q 2925 2209 2937 2307 
Q 2950 2406 2950 2484 
Q 2950 2769 2794 2926 
Q 2638 3084 2363 3084 
Q 1938 3084 1609 2770 
Q 1281 2456 1184 1953 
L 800 0 
L 225 0 
L 909 3500 
L 1484 3500 
L 1375 2956 
Q 1609 3263 1923 3423 
Q 2238 3584 2597 3584 
Q 2978 3584 3223 3384 
Q 3469 3184 3519 2828 
Q 3781 3197 4126 3390 
Q 4472 3584 4856 3584 
Q 5306 3584 5551 3325 
Q 5797 3066 5797 2591 
Q 5797 2488 5784 2364 
Q 5772 2241 5747 2113 
z
" transform="scale(0.015625)"/>
       <path id="DejaVuSans-Oblique-69" d="M 1172 4863 
L 1747 4863 
L 1606 4134 
L 1031 4134 
L 1172 4863 
z
M 909 3500 
L 1484 3500 
L 800 0 
L 225 0 
L 909 3500 
z
" transform="scale(0.015625)"/>
       <path id="DejaVuSans-Oblique-63" d="M 3431 3366 
L 3316 2797 
Q 3109 2947 2876 3022 
Q 2644 3097 2394 3097 
Q 2119 3097 1870 3000 
Q 1622 2903 1453 2725 
Q 1184 2453 1037 2087 
Q 891 1722 891 1331 
Q 891 859 1127 628 
Q 1363 397 1844 397 
Q 2081 397 2348 469 
Q 2616 541 2906 684 
L 2797 116 
Q 2547 13 2283 -39 
Q 2019 -91 1741 -91 
Q 1044 -91 669 257 
Q 294 606 294 1253 
Q 294 1797 489 2255 
Q 684 2713 1069 3078 
Q 1331 3328 1684 3456 
Q 2038 3584 2456 3584 
Q 2700 3584 2940 3529 
Q 3181 3475 3431 3366 
z
" transform="scale(0.015625)"/>
       <path id="DejaVuSans-Oblique-61" d="M 3438 1997 
L 3047 0 
L 2472 0 
L 2578 531 
Q 2325 219 2001 64 
Q 1678 -91 1281 -91 
Q 834 -91 548 182 
Q 263 456 263 884 
Q 263 1497 752 1853 
Q 1241 2209 2100 2209 
L 2900 2209 
L 2931 2363 
Q 2938 2388 2941 2417 
Q 2944 2447 2944 2509 
Q 2944 2788 2717 2942 
Q 2491 3097 2081 3097 
Q 1800 3097 1504 3025 
Q 1209 2953 897 2809 
L 997 3341 
Q 1322 3463 1633 3523 
Q 1944 3584 2234 3584 
Q 2853 3584 3176 3315 
Q 3500 3047 3500 2534 
Q 3500 2431 3484 2292 
Q 3469 2153 3438 1997 
z
M 2816 1759 
L 2241 1759 
Q 1534 1759 1195 1570 
Q 856 1381 856 984 
Q 856 709 1029 553 
Q 1203 397 1509 397 
Q 1978 397 2328 733 
Q 2678 1069 2791 1631 
L 2816 1759 
z
" transform="scale(0.015625)"/>
       <path id="DejaVuSans-Oblique-6c" d="M 1172 4863 
L 1747 4863 
L 800 0 
L 225 0 
L 1172 4863 
z
" transform="scale(0.015625)"/>
      </defs>
      <use xlink:href="#DejaVuSans-7c" transform="translate(0 0.578125)"/>
      <use xlink:href="#DejaVuSans-Oblique-45" transform="translate(33.691406 0.578125)"/>
      <use xlink:href="#DejaVuSans-Oblique-6e" transform="translate(96.875 -15.828125) scale(0.7)"/>
      <use xlink:href="#DejaVuSans-2c" transform="translate(141.240234 -15.828125) scale(0.7)"/>
      <use xlink:href="#DejaVuSans-Oblique-74" transform="translate(177.128906 -15.828125) scale(0.7)"/>
      <use xlink:href="#DejaVuSans-Oblique-68" transform="translate(204.575195 -15.828125) scale(0.7)"/>
      <use xlink:href="#DejaVuSans-Oblique-65" transform="translate(248.94043 -15.828125) scale(0.7)"/>
      <use xlink:href="#DejaVuSans-Oblique-6f" transform="translate(292.006836 -15.828125) scale(0.7)"/>
      <use xlink:href="#DejaVuSans-Oblique-72" transform="translate(334.833984 -15.828125) scale(0.7)"/>
      <use xlink:href="#DejaVuSans-Oblique-79" transform="translate(363.613281 -15.828125) scale(0.7)"/>
      <use xlink:href="#DejaVuSans-2212" transform="translate(427.255859 0.578125)"/>
      <use xlink:href="#DejaVuSans-Oblique-45" transform="translate(530.527344 0.578125)"/>
      <use xlink:href="#DejaVuSans-Oblique-6e" transform="translate(593.710938 -15.828125) scale(0.7)"/>
      <use xlink:href="#DejaVuSans-2c" transform="translate(638.076172 -15.828125) scale(0.7)"/>
      <use xlink:href="#DejaVuSans-Oblique-6e" transform="translate(673.964844 -15.828125) scale(0.7)"/>
      <use xlink:href="#DejaVuSans-Oblique-75" transform="translate(718.330078 -15.828125) scale(0.7)"/>
      <use xlink:href="#DejaVuSans-Oblique-6d" transform="translate(762.695312 -15.828125) scale(0.7)"/>
      <use xlink:href="#DejaVuSans-Oblique-65" transform="translate(830.883789 -15.828125) scale(0.7)"/>
      <use xlink:href="#DejaVuSans-Oblique-72" transform="translate(873.950195 -15.828125) scale(0.7)"/>
      <use xlink:href="#DejaVuSans-Oblique-69" transform="translate(902.729492 -15.828125) scale(0.7)"/>
      <use xlink:href="#DejaVuSans-Oblique-63" transform="translate(922.177734 -15.828125) scale(0.7)"/>
      <use xlink:href="#DejaVuSans-Oblique-61" transform="translate(960.664062 -15.828125) scale(0.7)"/>
      <use xlink:href="#DejaVuSans-Oblique-6c" transform="translate(1003.55957 -15.828125) scale(0.7)"/>
      <use xlink:href="#DejaVuSans-7c" transform="translate(1025.742188 0.578125)"/>
     </g>
    </g>
   </g>
   <g id="line2d_35">
    <path d="M 129.534261 565.179306 
L 156.232826 562.257188 
L 182.931391 559.660626 
L 209.629955 557.38972 
L 236.32852 555.444567 
L 263.027084 553.825266 
L 289.725649 552.531914 
L 316.424214 551.56461 
L 343.122778 550.923453 
L 369.821343 550.608541 
L 396.519907 550.619973 
L 423.218472 550.957848 
L 449.917036 551.622264 
L 476.615601 552.613321 
L 503.314166 553.931118 
L 530.01273 555.575754 
L 556.711295 557.547328 
L 583.409859 559.84594 
L 610.108424 562.471689 
L 636.806989 565.424675 
" clip-path="url(#pd345315b53)" style="fill: none; stroke: #e41a1c; stroke-width: 1.5; stroke-linecap: square"/>
   </g>
   <g id="line2d_36">
    <path d="M 129.534261 565.930954 
L 156.232826 564.389977 
L 182.931391 562.930198 
L 209.629955 561.551624 
L 236.32852 560.254262 
L 263.027084 559.038116 
L 289.725649 557.903194 
L 316.424214 556.849502 
L 343.122778 555.877044 
L 369.821343 554.985829 
L 396.519907 554.175861 
L 423.218472 553.447147 
L 449.917036 552.799693 
L 476.615601 552.233505 
L 503.314166 551.748589 
L 530.01273 551.344952 
L 556.711295 551.022599 
L 583.409859 550.781537 
L 610.108424 550.621771 
L 636.806989 550.543308 
" clip-path="url(#pd345315b53)" style="fill: none; stroke: #377eb8; stroke-width: 1.5; stroke-linecap: square"/>
   </g>
   <g id="line2d_37">
    <path d="M 129.534261 566.190214 
L 156.232826 565.145188 
L 182.931391 564.136224 
L 209.629955 563.163324 
L 236.32852 562.226488 
L 263.027084 561.325717 
L 289.725649 560.461014 
L 316.424214 559.632379 
L 343.122778 558.839813 
L 369.821343 558.083317 
L 396.519907 557.362893 
L 423.218472 556.678542 
L 449.917036 556.030265 
L 476.615601 555.418064 
L 503.314166 554.841939 
L 530.01273 554.301892 
L 556.711295 553.797923 
L 583.409859 553.330035 
L 610.108424 552.898228 
L 636.806989 552.502504 
" clip-path="url(#pd345315b53)" style="fill: none; stroke: #4daf4a; stroke-width: 1.5; stroke-linecap: square"/>
   </g>
   <g id="line2d_38">
    <path d="M 129.534261 565.423486 
L 156.232826 563.478579 
L 182.931391 562.837668 
L 209.629955 563.502332 
L 236.32852 565.474156 
L 263.027084 564.688756 
L 289.725649 560.097838 
L 316.424214 554.194969 
L 343.122778 546.978541 
L 369.821343 538.446936 
L 396.519907 528.598531 
L 423.218472 517.431696 
L 449.917036 504.944795 
L 476.615601 491.136183 
L 503.314166 476.004212 
L 530.01273 459.547222 
L 556.711295 441.763552 
L 583.409859 422.651528 
L 610.108424 402.209474 
L 636.806989 380.435703 
" clip-path="url(#pd345315b53)" style="fill: none; stroke: #984ea3; stroke-width: 1.5; stroke-linecap: square"/>
   </g>
   <g id="line2d_39">
    <path d="M 129.534261 565.991854 
L 156.232826 564.694507 
L 182.931391 563.722065 
L 209.629955 563.074626 
L 236.32852 562.752289 
L 263.027084 562.75515 
L 289.725649 563.083308 
L 316.424214 563.736861 
L 343.122778 564.715908 
L 369.821343 566.020546 
L 396.519907 565.79261 
L 423.218472 563.836494 
L 449.917036 561.55449 
L 476.615601 558.9465 
L 503.314166 556.012426 
L 530.01273 552.752169 
L 556.711295 549.165628 
L 583.409859 545.252707 
L 610.108424 541.013304 
L 636.806989 536.447321 
" clip-path="url(#pd345315b53)" style="fill: none; stroke: #ff7f00; stroke-width: 1.5; stroke-linecap: square"/>
   </g>
   <g id="line2d_40">
    <path d="M 129.534261 566.217261 
L 156.232826 565.280428 
L 182.931391 564.487864 
L 209.629955 563.839591 
L 236.32852 563.335625 
L 263.027084 562.975988 
L 289.725649 562.760697 
L 316.424214 562.689773 
L 343.122778 562.763235 
L 369.821343 562.981101 
L 396.519907 563.343392 
L 423.218472 563.850127 
L 449.917036 564.501324 
L 476.615601 565.297004 
L 503.314166 566.237185 
L 530.01273 566.121597 
L 556.711295 564.892354 
L 583.409859 563.518551 
L 610.108424 562.000169 
L 636.806989 560.337189 
" clip-path="url(#pd345315b53)" style="fill: none; stroke: #ffff33; stroke-width: 1.5; stroke-linecap: square"/>
   </g>
   <g id="line2d_41">
    <path d="M 129.534261 565.83078 
L 156.232826 565.517186 
L 182.931391 565.299219 
L 209.629955 559.723397 
L 236.32852 551.190688 
L 263.027084 539.692876 
L 289.725649 525.221666 
L 316.424214 507.768684 
L 343.122778 487.32548 
L 369.821343 463.883523 
L 396.519907 437.434199 
L 423.218472 407.968815 
L 449.917036 375.478589 
L 476.615601 339.954659 
L 503.314166 301.388072 
L 530.01273 259.769789 
L 556.711295 215.090682 
L 583.409859 167.34153 
L 610.108424 116.513022 
L 636.806989 62.59575 
" clip-path="url(#pd345315b53)" style="fill: none; stroke: #a65628; stroke-width: 1.5; stroke-linecap: square"/>
   </g>
   <g id="line2d_42">
    <path d="M 129.534261 566.093375 
L 156.232826 565.20224 
L 182.931391 565.042556 
L 209.629955 565.614818 
L 236.32852 566.523961 
L 263.027084 564.486315 
L 289.725649 561.715229 
L 316.424214 558.210201 
L 343.122778 553.970731 
L 369.821343 548.996316 
L 396.519907 543.286451 
L 423.218472 536.840632 
L 449.917036 529.658353 
L 476.615601 521.739105 
L 503.314166 513.082382 
L 530.01273 503.687672 
L 556.711295 493.554465 
L 583.409859 482.682249 
L 610.108424 471.07051 
L 636.806989 458.718735 
" clip-path="url(#pd345315b53)" style="fill: none; stroke: #f781bf; stroke-width: 1.5; stroke-linecap: square"/>
   </g>
   <g id="line2d_43">
    <path d="M 129.534261 566.262342 
L 156.232826 565.505863 
L 182.931391 565.074072 
L 209.629955 564.967068 
L 236.32852 565.184947 
L 263.027084 565.727809 
L 289.725649 566.59575 
L 316.424214 565.654615 
L 343.122778 564.13622 
L 369.821343 562.292451 
L 396.519907 560.123209 
L 423.218472 557.628397 
L 449.917036 554.807915 
L 476.615601 551.661666 
L 503.314166 548.189549 
L 530.01273 544.391467 
L 556.711295 540.267321 
L 583.409859 535.817011 
L 610.108424 531.040439 
L 636.806989 525.937505 
" clip-path="url(#pd345315b53)" style="fill: none; stroke: #999999; stroke-width: 1.5; stroke-linecap: square"/>
   </g>
   <g id="patch_3">
    <path d="M 104.170625 591.79575 
L 104.170625 37.39575 
" style="fill: none; stroke: #000000; stroke-width: 0.8; stroke-linejoin: miter; stroke-linecap: square"/>
   </g>
   <g id="patch_4">
    <path d="M 662.170625 591.79575 
L 662.170625 37.39575 
" style="fill: none; stroke: #000000; stroke-width: 0.8; stroke-linejoin: miter; stroke-linecap: square"/>
   </g>
   <g id="patch_5">
    <path d="M 104.170625 591.79575 
L 662.170625 591.79575 
" style="fill: none; stroke: #000000; stroke-width: 0.8; stroke-linejoin: miter; stroke-linecap: square"/>
   </g>
   <g id="patch_6">
    <path d="M 104.170625 37.39575 
L 662.170625 37.39575 
" style="fill: none; stroke: #000000; stroke-width: 0.8; stroke-linejoin: miter; stroke-linecap: square"/>
   </g>
   <g id="text_20">
    <!-- Errors in the eigenvalues -->
    <g transform="translate(188.270563 30.907125) scale(0.312 -0.312)">
     <defs>
      <path id="DejaVuSans-6f" d="M 1959 3097 
Q 1497 3097 1228 2736 
Q 959 2375 959 1747 
Q 959 1119 1226 758 
Q 1494 397 1959 397 
Q 2419 397 2687 759 
Q 2956 1122 2956 1747 
Q 2956 2369 2687 2733 
Q 2419 3097 1959 3097 
z
M 1959 3584 
Q 2709 3584 3137 3096 
Q 3566 2609 3566 1747 
Q 3566 888 3137 398 
Q 2709 -91 1959 -91 
Q 1206 -91 779 398 
Q 353 888 353 1747 
Q 353 2609 779 3096 
Q 1206 3584 1959 3584 
z
" transform="scale(0.015625)"/>
      <path id="DejaVuSans-73" d="M 2834 3397 
L 2834 2853 
Q 2591 2978 2328 3040 
Q 2066 3103 1784 3103 
Q 1356 3103 1142 2972 
Q 928 2841 928 2578 
Q 928 2378 1081 2264 
Q 1234 2150 1697 2047 
L 1894 2003 
Q 2506 1872 2764 1633 
Q 3022 1394 3022 966 
Q 3022 478 2636 193 
Q 2250 -91 1575 -91 
Q 1294 -91 989 -36 
Q 684 19 347 128 
L 347 722 
Q 666 556 975 473 
Q 1284 391 1588 391 
Q 1994 391 2212 530 
Q 2431 669 2431 922 
Q 2431 1156 2273 1281 
Q 2116 1406 1581 1522 
L 1381 1569 
Q 847 1681 609 1914 
Q 372 2147 372 2553 
Q 372 3047 722 3315 
Q 1072 3584 1716 3584 
Q 2034 3584 2315 3537 
Q 2597 3491 2834 3397 
z
" transform="scale(0.015625)"/>
      <path id="DejaVuSans-69" d="M 603 3500 
L 1178 3500 
L 1178 0 
L 603 0 
L 603 3500 
z
M 603 4863 
L 1178 4863 
L 1178 4134 
L 603 4134 
L 603 4863 
z
" transform="scale(0.015625)"/>
      <path id="DejaVuSans-74" d="M 1172 4494 
L 1172 3500 
L 2356 3500 
L 2356 3053 
L 1172 3053 
L 1172 1153 
Q 1172 725 1289 603 
Q 1406 481 1766 481 
L 2356 481 
L 2356 0 
L 1766 0 
Q 1100 0 847 248 
Q 594 497 594 1153 
L 594 3053 
L 172 3053 
L 172 3500 
L 594 3500 
L 594 4494 
L 1172 4494 
z
" transform="scale(0.015625)"/>
      <path id="DejaVuSans-68" d="M 3513 2113 
L 3513 0 
L 2938 0 
L 2938 2094 
Q 2938 2591 2744 2837 
Q 2550 3084 2163 3084 
Q 1697 3084 1428 2787 
Q 1159 2491 1159 1978 
L 1159 0 
L 581 0 
L 581 4863 
L 1159 4863 
L 1159 2956 
Q 1366 3272 1645 3428 
Q 1925 3584 2291 3584 
Q 2894 3584 3203 3211 
Q 3513 2838 3513 2113 
z
" transform="scale(0.015625)"/>
      <path id="DejaVuSans-61" d="M 2194 1759 
Q 1497 1759 1228 1600 
Q 959 1441 959 1056 
Q 959 750 1161 570 
Q 1363 391 1709 391 
Q 2188 391 2477 730 
Q 2766 1069 2766 1631 
L 2766 1759 
L 2194 1759 
z
M 3341 1997 
L 3341 0 
L 2766 0 
L 2766 531 
Q 2569 213 2275 61 
Q 1981 -91 1556 -91 
Q 1019 -91 701 211 
Q 384 513 384 1019 
Q 384 1609 779 1909 
Q 1175 2209 1959 2209 
L 2766 2209 
L 2766 2266 
Q 2766 2663 2505 2880 
Q 2244 3097 1772 3097 
Q 1472 3097 1187 3025 
Q 903 2953 641 2809 
L 641 3341 
Q 956 3463 1253 3523 
Q 1550 3584 1831 3584 
Q 2591 3584 2966 3190 
Q 3341 2797 3341 1997 
z
" transform="scale(0.015625)"/>
      <path id="DejaVuSans-75" d="M 544 1381 
L 544 3500 
L 1119 3500 
L 1119 1403 
Q 1119 906 1312 657 
Q 1506 409 1894 409 
Q 2359 409 2629 706 
Q 2900 1003 2900 1516 
L 2900 3500 
L 3475 3500 
L 3475 0 
L 2900 0 
L 2900 538 
Q 2691 219 2414 64 
Q 2138 -91 1772 -91 
Q 1169 -91 856 284 
Q 544 659 544 1381 
z
M 1991 3584 
L 1991 3584 
z
" transform="scale(0.015625)"/>
     </defs>
     <use xlink:href="#DejaVuSans-45"/>
     <use xlink:href="#DejaVuSans-72" x="63.183594"/>
     <use xlink:href="#DejaVuSans-72" x="102.546875"/>
     <use xlink:href="#DejaVuSans-6f" x="141.410156"/>
     <use xlink:href="#DejaVuSans-72" x="202.591797"/>
     <use xlink:href="#DejaVuSans-73" x="243.705078"/>
     <use xlink:href="#DejaVuSans-20" x="295.804688"/>
     <use xlink:href="#DejaVuSans-69" x="327.591797"/>
     <use xlink:href="#DejaVuSans-6e" x="355.375"/>
     <use xlink:href="#DejaVuSans-20" x="418.753906"/>
     <use xlink:href="#DejaVuSans-74" x="450.541016"/>
     <use xlink:href="#DejaVuSans-68" x="489.75"/>
     <use xlink:href="#DejaVuSans-65" x="553.128906"/>
     <use xlink:href="#DejaVuSans-20" x="614.652344"/>
     <use xlink:href="#DejaVuSans-65" x="646.439453"/>
     <use xlink:href="#DejaVuSans-69" x="707.962891"/>
     <use xlink:href="#DejaVuSans-67" x="735.746094"/>
     <use xlink:href="#DejaVuSans-65" x="799.222656"/>
     <use xlink:href="#DejaVuSans-6e" x="860.746094"/>
     <use xlink:href="#DejaVuSans-76" x="924.125"/>
     <use xlink:href="#DejaVuSans-61" x="983.304688"/>
     <use xlink:href="#DejaVuSans-6c" x="1044.583984"/>
     <use xlink:href="#DejaVuSans-75" x="1072.367188"/>
     <use xlink:href="#DejaVuSans-65" x="1135.746094"/>
     <use xlink:href="#DejaVuSans-73" x="1197.269531"/>
    </g>
   </g>
   <g id="legend_1">
    <g id="patch_7">
     <path d="M 122.370625 401.663875 
L 567.494687 401.663875 
Q 572.694687 401.663875 572.694687 396.463875 
L 572.694687 55.59575 
Q 572.694687 50.39575 567.494687 50.39575 
L 122.370625 50.39575 
Q 117.170625 50.39575 117.170625 55.59575 
L 117.170625 396.463875 
Q 117.170625 401.663875 122.370625 401.663875 
z
" style="fill: #ffffff; opacity: 0.8; stroke: #cccccc; stroke-linejoin: miter"/>
    </g>
    <g id="PathCollection_10">
     <g>
      <use xlink:href="#m364930ed44" x="153.570625" y="73.726687" style="fill: #e41a1c; stroke: #e41a1c"/>
     </g>
    </g>
    <g id="text_21">
     <!-- (a=-10.0, b=10.0, N=500) -->
     <g transform="translate(200.370625 80.551687) scale(0.26 -0.26)">
      <defs>
       <path id="DejaVuSans-28" d="M 1984 4856 
Q 1566 4138 1362 3434 
Q 1159 2731 1159 2009 
Q 1159 1288 1364 580 
Q 1569 -128 1984 -844 
L 1484 -844 
Q 1016 -109 783 600 
Q 550 1309 550 2009 
Q 550 2706 781 3412 
Q 1013 4119 1484 4856 
L 1984 4856 
z
" transform="scale(0.015625)"/>
       <path id="DejaVuSans-3d" d="M 678 2906 
L 4684 2906 
L 4684 2381 
L 678 2381 
L 678 2906 
z
M 678 1631 
L 4684 1631 
L 4684 1100 
L 678 1100 
L 678 1631 
z
" transform="scale(0.015625)"/>
       <path id="DejaVuSans-2d" d="M 313 2009 
L 1997 2009 
L 1997 1497 
L 313 1497 
L 313 2009 
z
" transform="scale(0.015625)"/>
       <path id="DejaVuSans-62" d="M 3116 1747 
Q 3116 2381 2855 2742 
Q 2594 3103 2138 3103 
Q 1681 3103 1420 2742 
Q 1159 2381 1159 1747 
Q 1159 1113 1420 752 
Q 1681 391 2138 391 
Q 2594 391 2855 752 
Q 3116 1113 3116 1747 
z
M 1159 2969 
Q 1341 3281 1617 3432 
Q 1894 3584 2278 3584 
Q 2916 3584 3314 3078 
Q 3713 2572 3713 1747 
Q 3713 922 3314 415 
Q 2916 -91 2278 -91 
Q 1894 -91 1617 61 
Q 1341 213 1159 525 
L 1159 0 
L 581 0 
L 581 4863 
L 1159 4863 
L 1159 2969 
z
" transform="scale(0.015625)"/>
       <path id="DejaVuSans-4e" d="M 628 4666 
L 1478 4666 
L 3547 763 
L 3547 4666 
L 4159 4666 
L 4159 0 
L 3309 0 
L 1241 3903 
L 1241 0 
L 628 0 
L 628 4666 
z
" transform="scale(0.015625)"/>
       <path id="DejaVuSans-29" d="M 513 4856 
L 1013 4856 
Q 1481 4119 1714 3412 
Q 1947 2706 1947 2009 
Q 1947 1309 1714 600 
Q 1481 -109 1013 -844 
L 513 -844 
Q 928 -128 1133 580 
Q 1338 1288 1338 2009 
Q 1338 2731 1133 3434 
Q 928 4138 513 4856 
z
" transform="scale(0.015625)"/>
      </defs>
      <use xlink:href="#DejaVuSans-28"/>
      <use xlink:href="#DejaVuSans-61" x="39.013672"/>
      <use xlink:href="#DejaVuSans-3d" x="100.292969"/>
      <use xlink:href="#DejaVuSans-2d" x="184.082031"/>
      <use xlink:href="#DejaVuSans-31" x="220.166016"/>
      <use xlink:href="#DejaVuSans-30" x="283.789062"/>
      <use xlink:href="#DejaVuSans-2e" x="347.412109"/>
      <use xlink:href="#DejaVuSans-30" x="379.199219"/>
      <use xlink:href="#DejaVuSans-2c" x="442.822266"/>
      <use xlink:href="#DejaVuSans-20" x="474.609375"/>
      <use xlink:href="#DejaVuSans-62" x="506.396484"/>
      <use xlink:href="#DejaVuSans-3d" x="569.873047"/>
      <use xlink:href="#DejaVuSans-31" x="653.662109"/>
      <use xlink:href="#DejaVuSans-30" x="717.285156"/>
      <use xlink:href="#DejaVuSans-2e" x="780.908203"/>
      <use xlink:href="#DejaVuSans-30" x="812.695312"/>
      <use xlink:href="#DejaVuSans-2c" x="876.318359"/>
      <use xlink:href="#DejaVuSans-20" x="908.105469"/>
      <use xlink:href="#DejaVuSans-4e" x="939.892578"/>
      <use xlink:href="#DejaVuSans-3d" x="1014.697266"/>
      <use xlink:href="#DejaVuSans-35" x="1098.486328"/>
      <use xlink:href="#DejaVuSans-30" x="1162.109375"/>
      <use xlink:href="#DejaVuSans-30" x="1225.732422"/>
      <use xlink:href="#DejaVuSans-29" x="1289.355469"/>
     </g>
    </g>
    <g id="PathCollection_11">
     <g>
      <use xlink:href="#m06aef644d3" x="153.570625" y="111.889812" style="fill: #377eb8; stroke: #377eb8"/>
     </g>
    </g>
    <g id="text_22">
     <!-- (a=-10.0, b=10.0, N=1000) -->
     <g transform="translate(200.370625 118.714812) scale(0.26 -0.26)">
      <use xlink:href="#DejaVuSans-28"/>
      <use xlink:href="#DejaVuSans-61" x="39.013672"/>
      <use xlink:href="#DejaVuSans-3d" x="100.292969"/>
      <use xlink:href="#DejaVuSans-2d" x="184.082031"/>
      <use xlink:href="#DejaVuSans-31" x="220.166016"/>
      <use xlink:href="#DejaVuSans-30" x="283.789062"/>
      <use xlink:href="#DejaVuSans-2e" x="347.412109"/>
      <use xlink:href="#DejaVuSans-30" x="379.199219"/>
      <use xlink:href="#DejaVuSans-2c" x="442.822266"/>
      <use xlink:href="#DejaVuSans-20" x="474.609375"/>
      <use xlink:href="#DejaVuSans-62" x="506.396484"/>
      <use xlink:href="#DejaVuSans-3d" x="569.873047"/>
      <use xlink:href="#DejaVuSans-31" x="653.662109"/>
      <use xlink:href="#DejaVuSans-30" x="717.285156"/>
      <use xlink:href="#DejaVuSans-2e" x="780.908203"/>
      <use xlink:href="#DejaVuSans-30" x="812.695312"/>
      <use xlink:href="#DejaVuSans-2c" x="876.318359"/>
      <use xlink:href="#DejaVuSans-20" x="908.105469"/>
      <use xlink:href="#DejaVuSans-4e" x="939.892578"/>
      <use xlink:href="#DejaVuSans-3d" x="1014.697266"/>
      <use xlink:href="#DejaVuSans-31" x="1098.486328"/>
      <use xlink:href="#DejaVuSans-30" x="1162.109375"/>
      <use xlink:href="#DejaVuSans-30" x="1225.732422"/>
      <use xlink:href="#DejaVuSans-30" x="1289.355469"/>
      <use xlink:href="#DejaVuSans-29" x="1352.978516"/>
     </g>
    </g>
    <g id="PathCollection_12">
     <g>
      <use xlink:href="#me0276e8934" x="153.570625" y="150.052937" style="fill: #4daf4a; stroke: #4daf4a"/>
     </g>
    </g>
    <g id="text_23">
     <!-- (a=-10.0, b=10.0, N=1500) -->
     <g transform="translate(200.370625 156.877937) scale(0.26 -0.26)">
      <use xlink:href="#DejaVuSans-28"/>
      <use xlink:href="#DejaVuSans-61" x="39.013672"/>
      <use xlink:href="#DejaVuSans-3d" x="100.292969"/>
      <use xlink:href="#DejaVuSans-2d" x="184.082031"/>
      <use xlink:href="#DejaVuSans-31" x="220.166016"/>
      <use xlink:href="#DejaVuSans-30" x="283.789062"/>
      <use xlink:href="#DejaVuSans-2e" x="347.412109"/>
      <use xlink:href="#DejaVuSans-30" x="379.199219"/>
      <use xlink:href="#DejaVuSans-2c" x="442.822266"/>
      <use xlink:href="#DejaVuSans-20" x="474.609375"/>
      <use xlink:href="#DejaVuSans-62" x="506.396484"/>
      <use xlink:href="#DejaVuSans-3d" x="569.873047"/>
      <use xlink:href="#DejaVuSans-31" x="653.662109"/>
      <use xlink:href="#DejaVuSans-30" x="717.285156"/>
      <use xlink:href="#DejaVuSans-2e" x="780.908203"/>
      <use xlink:href="#DejaVuSans-30" x="812.695312"/>
      <use xlink:href="#DejaVuSans-2c" x="876.318359"/>
      <use xlink:href="#DejaVuSans-20" x="908.105469"/>
      <use xlink:href="#DejaVuSans-4e" x="939.892578"/>
      <use xlink:href="#DejaVuSans-3d" x="1014.697266"/>
      <use xlink:href="#DejaVuSans-31" x="1098.486328"/>
      <use xlink:href="#DejaVuSans-35" x="1162.109375"/>
      <use xlink:href="#DejaVuSans-30" x="1225.732422"/>
      <use xlink:href="#DejaVuSans-30" x="1289.355469"/>
      <use xlink:href="#DejaVuSans-29" x="1352.978516"/>
     </g>
    </g>
    <g id="PathCollection_13">
     <g>
      <use xlink:href="#m648ffa0e26" x="153.570625" y="188.216062" style="fill: #984ea3; stroke: #984ea3"/>
     </g>
    </g>
    <g id="text_24">
     <!-- (a=-20.0, b=20.0, N=500) -->
     <g transform="translate(200.370625 195.041062) scale(0.26 -0.26)">
      <use xlink:href="#DejaVuSans-28"/>
      <use xlink:href="#DejaVuSans-61" x="39.013672"/>
      <use xlink:href="#DejaVuSans-3d" x="100.292969"/>
      <use xlink:href="#DejaVuSans-2d" x="184.082031"/>
      <use xlink:href="#DejaVuSans-32" x="220.166016"/>
      <use xlink:href="#DejaVuSans-30" x="283.789062"/>
      <use xlink:href="#DejaVuSans-2e" x="347.412109"/>
      <use xlink:href="#DejaVuSans-30" x="379.199219"/>
      <use xlink:href="#DejaVuSans-2c" x="442.822266"/>
      <use xlink:href="#DejaVuSans-20" x="474.609375"/>
      <use xlink:href="#DejaVuSans-62" x="506.396484"/>
      <use xlink:href="#DejaVuSans-3d" x="569.873047"/>
      <use xlink:href="#DejaVuSans-32" x="653.662109"/>
      <use xlink:href="#DejaVuSans-30" x="717.285156"/>
      <use xlink:href="#DejaVuSans-2e" x="780.908203"/>
      <use xlink:href="#DejaVuSans-30" x="812.695312"/>
      <use xlink:href="#DejaVuSans-2c" x="876.318359"/>
      <use xlink:href="#DejaVuSans-20" x="908.105469"/>
      <use xlink:href="#DejaVuSans-4e" x="939.892578"/>
      <use xlink:href="#DejaVuSans-3d" x="1014.697266"/>
      <use xlink:href="#DejaVuSans-35" x="1098.486328"/>
      <use xlink:href="#DejaVuSans-30" x="1162.109375"/>
      <use xlink:href="#DejaVuSans-30" x="1225.732422"/>
      <use xlink:href="#DejaVuSans-29" x="1289.355469"/>
     </g>
    </g>
    <g id="PathCollection_14">
     <g>
      <use xlink:href="#m7a14fc3afd" x="153.570625" y="226.379187" style="fill: #ff7f00; stroke: #ff7f00"/>
     </g>
    </g>
    <g id="text_25">
     <!-- (a=-20.0, b=20.0, N=1000) -->
     <g transform="translate(200.370625 233.204187) scale(0.26 -0.26)">
      <use xlink:href="#DejaVuSans-28"/>
      <use xlink:href="#DejaVuSans-61" x="39.013672"/>
      <use xlink:href="#DejaVuSans-3d" x="100.292969"/>
      <use xlink:href="#DejaVuSans-2d" x="184.082031"/>
      <use xlink:href="#DejaVuSans-32" x="220.166016"/>
      <use xlink:href="#DejaVuSans-30" x="283.789062"/>
      <use xlink:href="#DejaVuSans-2e" x="347.412109"/>
      <use xlink:href="#DejaVuSans-30" x="379.199219"/>
      <use xlink:href="#DejaVuSans-2c" x="442.822266"/>
      <use xlink:href="#DejaVuSans-20" x="474.609375"/>
      <use xlink:href="#DejaVuSans-62" x="506.396484"/>
      <use xlink:href="#DejaVuSans-3d" x="569.873047"/>
      <use xlink:href="#DejaVuSans-32" x="653.662109"/>
      <use xlink:href="#DejaVuSans-30" x="717.285156"/>
      <use xlink:href="#DejaVuSans-2e" x="780.908203"/>
      <use xlink:href="#DejaVuSans-30" x="812.695312"/>
      <use xlink:href="#DejaVuSans-2c" x="876.318359"/>
      <use xlink:href="#DejaVuSans-20" x="908.105469"/>
      <use xlink:href="#DejaVuSans-4e" x="939.892578"/>
      <use xlink:href="#DejaVuSans-3d" x="1014.697266"/>
      <use xlink:href="#DejaVuSans-31" x="1098.486328"/>
      <use xlink:href="#DejaVuSans-30" x="1162.109375"/>
      <use xlink:href="#DejaVuSans-30" x="1225.732422"/>
      <use xlink:href="#DejaVuSans-30" x="1289.355469"/>
      <use xlink:href="#DejaVuSans-29" x="1352.978516"/>
     </g>
    </g>
    <g id="PathCollection_15">
     <g>
      <use xlink:href="#m2b8e501d53" x="153.570625" y="264.542312" style="fill: #ffff33; stroke: #ffff33"/>
     </g>
    </g>
    <g id="text_26">
     <!-- (a=-20.0, b=20.0, N=1500) -->
     <g transform="translate(200.370625 271.367312) scale(0.26 -0.26)">
      <use xlink:href="#DejaVuSans-28"/>
      <use xlink:href="#DejaVuSans-61" x="39.013672"/>
      <use xlink:href="#DejaVuSans-3d" x="100.292969"/>
      <use xlink:href="#DejaVuSans-2d" x="184.082031"/>
      <use xlink:href="#DejaVuSans-32" x="220.166016"/>
      <use xlink:href="#DejaVuSans-30" x="283.789062"/>
      <use xlink:href="#DejaVuSans-2e" x="347.412109"/>
      <use xlink:href="#DejaVuSans-30" x="379.199219"/>
      <use xlink:href="#DejaVuSans-2c" x="442.822266"/>
      <use xlink:href="#DejaVuSans-20" x="474.609375"/>
      <use xlink:href="#DejaVuSans-62" x="506.396484"/>
      <use xlink:href="#DejaVuSans-3d" x="569.873047"/>
      <use xlink:href="#DejaVuSans-32" x="653.662109"/>
      <use xlink:href="#DejaVuSans-30" x="717.285156"/>
      <use xlink:href="#DejaVuSans-2e" x="780.908203"/>
      <use xlink:href="#DejaVuSans-30" x="812.695312"/>
      <use xlink:href="#DejaVuSans-2c" x="876.318359"/>
      <use xlink:href="#DejaVuSans-20" x="908.105469"/>
      <use xlink:href="#DejaVuSans-4e" x="939.892578"/>
      <use xlink:href="#DejaVuSans-3d" x="1014.697266"/>
      <use xlink:href="#DejaVuSans-31" x="1098.486328"/>
      <use xlink:href="#DejaVuSans-35" x="1162.109375"/>
      <use xlink:href="#DejaVuSans-30" x="1225.732422"/>
      <use xlink:href="#DejaVuSans-30" x="1289.355469"/>
      <use xlink:href="#DejaVuSans-29" x="1352.978516"/>
     </g>
    </g>
    <g id="PathCollection_16">
     <g>
      <use xlink:href="#m3a82985ab9" x="153.570625" y="302.705437" style="fill: #a65628; stroke: #a65628"/>
     </g>
    </g>
    <g id="text_27">
     <!-- (a=-30.0, b=30.0, N=500) -->
     <g transform="translate(200.370625 309.530437) scale(0.26 -0.26)">
      <use xlink:href="#DejaVuSans-28"/>
      <use xlink:href="#DejaVuSans-61" x="39.013672"/>
      <use xlink:href="#DejaVuSans-3d" x="100.292969"/>
      <use xlink:href="#DejaVuSans-2d" x="184.082031"/>
      <use xlink:href="#DejaVuSans-33" x="220.166016"/>
      <use xlink:href="#DejaVuSans-30" x="283.789062"/>
      <use xlink:href="#DejaVuSans-2e" x="347.412109"/>
      <use xlink:href="#DejaVuSans-30" x="379.199219"/>
      <use xlink:href="#DejaVuSans-2c" x="442.822266"/>
      <use xlink:href="#DejaVuSans-20" x="474.609375"/>
      <use xlink:href="#DejaVuSans-62" x="506.396484"/>
      <use xlink:href="#DejaVuSans-3d" x="569.873047"/>
      <use xlink:href="#DejaVuSans-33" x="653.662109"/>
      <use xlink:href="#DejaVuSans-30" x="717.285156"/>
      <use xlink:href="#DejaVuSans-2e" x="780.908203"/>
      <use xlink:href="#DejaVuSans-30" x="812.695312"/>
      <use xlink:href="#DejaVuSans-2c" x="876.318359"/>
      <use xlink:href="#DejaVuSans-20" x="908.105469"/>
      <use xlink:href="#DejaVuSans-4e" x="939.892578"/>
      <use xlink:href="#DejaVuSans-3d" x="1014.697266"/>
      <use xlink:href="#DejaVuSans-35" x="1098.486328"/>
      <use xlink:href="#DejaVuSans-30" x="1162.109375"/>
      <use xlink:href="#DejaVuSans-30" x="1225.732422"/>
      <use xlink:href="#DejaVuSans-29" x="1289.355469"/>
     </g>
    </g>
    <g id="PathCollection_17">
     <g>
      <use xlink:href="#m92ca5bb380" x="153.570625" y="340.868562" style="fill: #f781bf; stroke: #f781bf"/>
     </g>
    </g>
    <g id="text_28">
     <!-- (a=-30.0, b=30.0, N=1000) -->
     <g transform="translate(200.370625 347.693562) scale(0.26 -0.26)">
      <use xlink:href="#DejaVuSans-28"/>
      <use xlink:href="#DejaVuSans-61" x="39.013672"/>
      <use xlink:href="#DejaVuSans-3d" x="100.292969"/>
      <use xlink:href="#DejaVuSans-2d" x="184.082031"/>
      <use xlink:href="#DejaVuSans-33" x="220.166016"/>
      <use xlink:href="#DejaVuSans-30" x="283.789062"/>
      <use xlink:href="#DejaVuSans-2e" x="347.412109"/>
      <use xlink:href="#DejaVuSans-30" x="379.199219"/>
      <use xlink:href="#DejaVuSans-2c" x="442.822266"/>
      <use xlink:href="#DejaVuSans-20" x="474.609375"/>
      <use xlink:href="#DejaVuSans-62" x="506.396484"/>
      <use xlink:href="#DejaVuSans-3d" x="569.873047"/>
      <use xlink:href="#DejaVuSans-33" x="653.662109"/>
      <use xlink:href="#DejaVuSans-30" x="717.285156"/>
      <use xlink:href="#DejaVuSans-2e" x="780.908203"/>
      <use xlink:href="#DejaVuSans-30" x="812.695312"/>
      <use xlink:href="#DejaVuSans-2c" x="876.318359"/>
      <use xlink:href="#DejaVuSans-20" x="908.105469"/>
      <use xlink:href="#DejaVuSans-4e" x="939.892578"/>
      <use xlink:href="#DejaVuSans-3d" x="1014.697266"/>
      <use xlink:href="#DejaVuSans-31" x="1098.486328"/>
      <use xlink:href="#DejaVuSans-30" x="1162.109375"/>
      <use xlink:href="#DejaVuSans-30" x="1225.732422"/>
      <use xlink:href="#DejaVuSans-30" x="1289.355469"/>
      <use xlink:href="#DejaVuSans-29" x="1352.978516"/>
     </g>
    </g>
    <g id="PathCollection_18">
     <g>
      <use xlink:href="#m5e0d1200fd" x="153.570625" y="379.031687" style="fill: #999999; stroke: #999999"/>
     </g>
    </g>
    <g id="text_29">
     <!-- (a=-30.0, b=30.0, N=1500) -->
     <g transform="translate(200.370625 385.856687) scale(0.26 -0.26)">
      <use xlink:href="#DejaVuSans-28"/>
      <use xlink:href="#DejaVuSans-61" x="39.013672"/>
      <use xlink:href="#DejaVuSans-3d" x="100.292969"/>
      <use xlink:href="#DejaVuSans-2d" x="184.082031"/>
      <use xlink:href="#DejaVuSans-33" x="220.166016"/>
      <use xlink:href="#DejaVuSans-30" x="283.789062"/>
      <use xlink:href="#DejaVuSans-2e" x="347.412109"/>
      <use xlink:href="#DejaVuSans-30" x="379.199219"/>
      <use xlink:href="#DejaVuSans-2c" x="442.822266"/>
      <use xlink:href="#DejaVuSans-20" x="474.609375"/>
      <use xlink:href="#DejaVuSans-62" x="506.396484"/>
      <use xlink:href="#DejaVuSans-3d" x="569.873047"/>
      <use xlink:href="#DejaVuSans-33" x="653.662109"/>
      <use xlink:href="#DejaVuSans-30" x="717.285156"/>
      <use xlink:href="#DejaVuSans-2e" x="780.908203"/>
      <use xlink:href="#DejaVuSans-30" x="812.695312"/>
      <use xlink:href="#DejaVuSans-2c" x="876.318359"/>
      <use xlink:href="#DejaVuSans-20" x="908.105469"/>
      <use xlink:href="#DejaVuSans-4e" x="939.892578"/>
      <use xlink:href="#DejaVuSans-3d" x="1014.697266"/>
      <use xlink:href="#DejaVuSans-31" x="1098.486328"/>
      <use xlink:href="#DejaVuSans-35" x="1162.109375"/>
      <use xlink:href="#DejaVuSans-30" x="1225.732422"/>
      <use xlink:href="#DejaVuSans-30" x="1289.355469"/>
      <use xlink:href="#DejaVuSans-29" x="1352.978516"/>
     </g>
    </g>
   </g>
  </g>
 </g>
 <defs>
  <clipPath id="pd345315b53">
   <rect x="104.170625" y="37.39575" width="558" height="554.4"/>
  </clipPath>
 </defs>
</svg>
